{"glyphs":{"0":{"ha":852,"x_min":57,"x_max":795,"o":"m 426 -15 q 153 115 248 -15 q 57 473 57 245 q 153 831 57 701 q 426 962 248 962 q 698 833 601 962 q 795 473 795 704 q 698 114 795 243 q 426 -15 601 -15 m 426 102 q 605 199 541 102 q 669 473 669 296 q 605 747 669 650 q 426 844 541 844 q 247 747 311 844 q 183 473 183 650 q 247 199 183 296 q 426 102 311 102 z "},"1":{"ha":852,"x_min":172,"x_max":719,"o":"m 240 -1 q 199 16 216 -1 q 182 57 182 33 q 199 99 182 81 q 240 117 216 117 l 400 117 l 400 780 q 395 793 400 789 q 381 791 391 796 l 263 734 q 232 726 245 726 q 189 743 206 726 q 172 785 172 760 q 209 842 172 825 l 393 939 q 431 948 408 948 l 460 948 q 507 928 487 948 q 526 882 526 909 l 526 117 l 659 117 q 701 99 684 117 q 719 57 719 81 q 701 16 719 33 q 659 -1 684 -1 l 240 -1 z "},"2":{"ha":852,"x_min":87,"x_max":751,"o":"m 160 -1 q 107 18 127 -1 q 87 71 87 38 q 129 202 87 142 q 221 302 167 258 q 384 415 275 346 q 515 505 463 465 q 629 675 629 590 q 576 800 629 757 q 416 842 522 842 q 184 793 294 842 q 159 787 168 787 q 121 802 137 787 q 106 841 106 818 q 137 892 106 875 q 438 962 275 962 q 597 928 528 962 q 711 829 670 892 q 751 685 751 766 q 705 536 751 602 q 602 422 662 472 q 423 296 541 372 q 276 189 320 225 q 214 117 232 153 l 684 117 q 726 99 708 117 q 743 57 743 81 q 726 16 743 33 q 684 -1 708 -1 l 160 -1 z "},"3":{"ha":852,"x_min":79,"x_max":751,"o":"m 556 490 q 696 410 642 469 q 751 248 751 350 q 654 55 751 125 q 399 -15 557 -15 q 115 39 244 -15 q 79 92 79 54 q 94 134 79 117 q 134 151 110 151 q 160 145 146 151 q 376 106 259 106 q 557 142 488 106 q 625 255 625 179 q 327 425 625 425 l 305 425 q 264 442 282 425 q 247 483 247 460 q 264 524 247 506 q 305 541 282 541 l 313 541 q 521 583 450 541 q 591 704 591 624 q 536 807 591 770 q 378 844 480 844 q 168 799 263 844 q 144 793 155 793 q 108 808 123 793 q 92 845 92 823 q 121 892 92 876 q 389 962 250 962 q 631 898 545 962 q 718 716 718 834 q 556 490 718 551 z "},"4":{"ha":852,"x_min":33,"x_max":810,"o":"m 587 -8 q 543 10 562 -8 q 525 54 525 28 l 525 237 l 113 237 q 56 260 80 237 q 33 316 33 283 l 33 328 q 49 378 33 357 l 475 922 q 505 946 487 937 q 544 955 524 955 l 571 955 q 629 932 606 955 q 651 875 651 909 l 651 350 l 753 350 q 793 333 776 350 q 810 293 810 316 q 793 253 810 269 q 753 237 777 237 l 651 237 l 651 54 q 632 10 651 28 q 587 -8 613 -8 m 525 779 q 522 788 525 784 q 517 792 519 792 q 506 784 513 792 l 183 369 q 178 359 178 363 q 193 350 178 350 l 525 350 l 525 779 z "},"5":{"ha":852,"x_min":85,"x_max":776,"o":"m 403 -15 q 113 64 237 -15 q 92 84 99 73 q 85 114 85 95 q 101 157 85 140 q 141 174 117 174 q 170 167 153 174 q 387 110 279 110 q 585 154 519 110 q 650 300 650 198 q 594 432 650 384 q 441 480 538 480 q 233 422 327 480 l 217 414 q 184 406 203 406 q 119 428 145 406 q 94 486 94 450 q 96 518 94 496 l 157 879 q 181 929 161 910 q 231 948 201 948 l 666 948 q 708 930 690 948 q 726 888 726 913 q 708 847 726 864 q 666 830 690 830 l 300 830 q 270 806 274 830 l 231 547 q 458 601 335 601 q 631 562 556 601 q 739 453 701 522 q 776 293 776 384 q 680 68 776 152 q 403 -15 583 -15 z "},"6":{"ha":852,"x_min":79,"x_max":788,"o":"m 639 575 q 749 460 711 533 q 788 294 788 388 q 747 138 788 210 q 628 25 705 65 q 452 -15 551 -15 q 79 472 79 -15 q 118 701 79 587 q 250 890 159 819 q 473 962 340 962 q 602 947 545 962 q 713 903 658 932 q 735 882 727 897 q 743 853 743 868 q 727 814 743 831 q 686 796 711 796 q 663 800 674 796 q 483 840 578 840 q 276 744 343 840 q 199 499 209 648 q 476 614 294 614 q 639 575 568 614 m 564 130 q 636 200 610 156 q 662 297 662 244 q 609 446 662 392 q 461 499 556 499 q 206 351 286 499 q 453 103 243 103 q 564 130 514 103 z "},"7":{"ha":852,"x_min":80,"x_max":770,"o":"m 312 -8 q 268 10 286 -8 q 250 54 250 28 q 258 87 250 73 l 620 808 q 623 818 623 817 q 609 827 623 827 l 140 827 q 98 845 115 827 q 80 887 80 863 q 98 930 80 911 q 140 948 115 948 l 693 948 q 748 928 726 948 q 770 875 770 907 q 757 815 770 846 l 372 27 q 347 1 363 11 q 312 -8 330 -8 z "},"8":{"ha":852,"x_min":62,"x_max":789,"o":"m 426 -15 q 218 24 300 -15 q 101 122 140 62 q 62 251 62 182 q 262 507 62 439 q 149 586 191 533 q 107 713 107 639 q 140 829 107 774 q 245 926 172 890 q 426 962 319 962 q 609 925 538 962 q 711 833 677 890 q 745 713 745 776 q 703 586 745 639 q 590 507 661 533 q 789 251 789 439 q 753 123 789 183 q 631 22 715 60 q 426 -15 548 -15 m 426 560 q 570 602 521 560 q 618 705 618 643 q 567 812 618 773 q 426 850 515 850 q 285 812 336 850 q 233 705 233 773 q 282 602 233 643 q 426 560 331 560 m 426 96 q 564 125 510 96 q 638 189 613 151 q 663 264 663 227 q 596 397 663 349 q 426 446 529 446 q 256 397 323 446 q 189 264 189 349 q 213 191 189 231 q 292 123 239 149 q 426 96 346 96 z "},"9":{"ha":852,"x_min":64,"x_max":773,"o":"m 400 962 q 773 475 773 962 q 735 245 773 355 q 603 56 694 127 q 378 -15 511 -15 q 250 0 307 -15 q 138 43 194 15 q 117 64 125 50 q 109 94 109 79 q 125 133 109 115 q 165 151 142 151 q 189 146 178 151 q 369 107 274 107 q 576 203 509 107 q 652 448 643 298 q 376 332 557 332 q 214 372 286 332 q 102 486 141 414 q 64 652 64 559 q 104 808 64 738 q 224 922 146 882 q 400 962 301 962 m 391 448 q 646 595 566 448 q 399 844 609 844 q 289 818 336 844 q 216 748 241 792 q 190 650 190 704 q 243 501 190 555 q 391 448 296 448 z "}," ":{"ha":407,"x_min":0,"x_max":0,"o":""},"a":{"ha":762,"x_min":61,"x_max":663,"o":"m 283 -15 q 174 9 225 -15 q 91 81 121 34 q 61 190 61 129 q 143 353 61 296 q 374 411 225 411 l 537 411 l 537 420 q 494 547 537 507 q 357 587 452 587 q 269 580 308 587 q 176 555 229 572 l 159 552 q 123 568 138 552 q 107 605 107 583 q 144 658 107 643 q 378 707 258 707 q 538 669 472 707 q 632 572 601 632 q 663 438 663 511 l 663 54 q 644 10 663 28 q 600 -8 625 -8 q 555 10 574 -8 q 537 54 537 28 l 537 87 q 283 -15 439 -15 m 330 96 q 443 124 388 96 q 537 197 498 152 l 537 309 l 391 309 q 187 203 187 309 q 330 96 187 96 z "},"b":{"ha":856,"x_min":106,"x_max":792,"o":"m 463 -15 q 232 87 330 -15 l 232 54 q 213 10 232 28 q 168 -8 194 -8 q 124 10 142 -8 q 106 54 106 28 l 106 935 q 124 979 106 960 q 168 998 142 998 q 214 980 195 998 q 232 935 232 962 l 232 605 q 463 707 330 707 q 623 665 551 707 q 747 537 701 621 q 792 346 792 453 q 746 155 792 235 q 625 29 700 73 q 463 -15 549 -15 m 445 103 q 607 168 548 103 q 666 346 666 232 q 607 524 666 460 q 445 589 548 589 q 330 562 385 589 q 232 488 275 534 l 232 203 q 330 130 275 157 q 445 103 385 103 z "},"c":{"ha":723,"x_min":64,"x_max":677,"o":"m 427 -15 q 247 28 331 -15 q 113 156 161 73 q 64 346 64 239 q 114 538 64 456 q 245 663 163 618 q 427 707 327 707 q 547 690 495 707 q 650 642 598 673 q 677 593 677 623 q 661 555 677 572 q 624 537 644 537 q 594 545 610 537 q 515 579 547 570 q 438 589 484 589 q 257 523 324 589 q 190 346 190 457 q 257 169 190 235 q 438 103 324 103 q 515 113 484 103 q 594 146 547 122 q 624 155 610 155 q 661 137 644 155 q 677 99 677 119 q 650 50 677 69 q 547 2 598 19 q 427 -15 495 -15 z "},"d":{"ha":856,"x_min":64,"x_max":750,"o":"m 393 -15 q 235 28 311 -15 q 110 155 156 72 q 64 346 64 239 q 111 538 64 456 q 232 663 157 620 q 393 707 307 707 q 624 605 526 707 l 624 935 q 643 980 624 962 q 688 998 662 998 q 732 979 713 998 q 750 935 750 960 l 750 54 q 732 10 750 28 q 688 -8 713 -8 q 643 10 662 -8 q 624 54 624 28 l 624 87 q 393 -15 526 -15 m 411 103 q 526 130 471 103 q 624 203 581 157 l 624 488 q 526 562 581 534 q 411 589 471 589 q 249 524 308 589 q 190 346 190 460 q 249 168 190 232 q 411 103 308 103 z "},"e":{"ha":768,"x_min":64,"x_max":713,"o":"m 416 -15 q 157 80 250 -15 q 64 346 64 175 q 99 524 64 438 q 210 658 136 609 q 389 707 285 707 q 564 661 490 707 q 674 536 635 614 q 713 363 713 458 q 696 319 713 338 q 650 301 678 301 l 191 301 q 264 154 203 205 q 427 103 324 103 q 524 113 481 103 q 610 145 567 123 q 635 151 620 151 q 673 135 656 151 q 690 96 690 119 q 654 45 690 65 q 545 -1 597 14 q 416 -15 494 -15 m 571 404 q 587 422 589 404 q 555 513 582 476 q 481 578 525 556 q 389 600 437 600 q 298 579 346 600 q 223 511 251 556 q 191 404 195 465 l 571 404 z "},"f":{"ha":518,"x_min":24,"x_max":513,"o":"m 220 -8 q 176 10 194 -8 q 157 54 157 28 l 157 585 l 79 585 q 41 601 57 585 q 24 639 24 617 q 41 677 24 662 q 79 693 57 693 l 157 693 l 157 770 q 187 905 157 853 q 261 980 214 955 q 362 1005 308 1005 q 480 978 423 1005 q 513 929 513 959 q 497 892 513 909 q 461 876 481 876 q 430 880 446 876 l 393 884 q 309 857 334 884 q 283 766 283 830 l 283 693 l 452 693 q 490 677 475 693 q 506 639 506 662 q 490 601 506 617 q 452 585 475 585 l 283 585 l 283 54 q 264 10 283 28 q 220 -8 245 -8 z "},"g":{"ha":856,"x_min":64,"x_max":750,"o":"m 430 -327 q 273 -307 354 -327 q 140 -256 193 -286 q 114 -208 114 -240 q 130 -168 114 -186 q 170 -151 146 -151 q 194 -156 180 -151 q 418 -208 300 -208 q 624 12 624 -208 l 624 99 q 393 -1 530 -1 q 239 39 312 -1 q 111 162 159 81 q 64 353 64 243 q 113 548 64 467 q 235 666 160 625 q 393 707 311 707 q 624 606 530 707 l 624 636 q 642 681 624 662 q 686 700 661 700 q 731 681 712 700 q 750 636 750 662 l 750 30 q 667 -234 750 -141 q 430 -327 585 -327 m 419 114 q 527 139 479 114 q 624 213 575 164 l 624 492 q 527 566 575 541 q 419 591 479 591 q 252 529 315 591 q 190 353 190 467 q 252 176 190 239 q 419 114 315 114 z "},"h":{"ha":826,"x_min":106,"x_max":727,"o":"m 168 -8 q 124 10 142 -8 q 106 54 106 28 l 106 935 q 124 979 106 960 q 168 998 142 998 q 213 979 194 998 q 232 935 232 960 l 232 585 q 347 675 288 644 q 483 707 407 707 q 614 671 557 707 q 698 575 669 636 q 727 439 727 514 l 727 54 q 708 10 727 28 q 663 -8 689 -8 q 619 10 637 -8 q 601 54 601 28 l 601 426 q 453 590 601 590 q 336 557 388 590 q 232 461 283 525 l 232 54 q 213 10 232 28 q 168 -8 194 -8 z "},"i":{"ha":338,"x_min":95,"x_max":244,"o":"m 165 831 q 116 852 137 831 q 95 902 95 873 l 95 907 q 116 957 95 936 q 165 978 137 978 l 174 978 q 223 957 202 978 q 244 907 244 936 l 244 902 q 223 852 244 873 q 174 831 202 831 l 165 831 m 168 -8 q 124 10 142 -8 q 106 54 106 28 l 106 636 q 124 681 106 662 q 168 700 142 700 q 214 682 195 700 q 232 636 232 663 l 232 54 q 213 10 232 28 q 168 -8 194 -8 z "},"j":{"ha":345,"x_min":-62,"x_max":251,"o":"m 172 831 q 123 852 144 831 q 102 902 102 873 l 102 907 q 123 957 102 936 q 172 978 144 978 l 180 978 q 230 957 209 978 q 251 907 251 936 l 251 902 q 230 852 251 873 q 180 831 209 831 l 172 831 m 60 -327 q -26 -315 11 -327 q -53 -296 -43 -309 q -62 -264 -62 -282 q -47 -228 -62 -244 q -9 -212 -31 -212 l 7 -214 l 11 -214 q 31 -216 19 -216 q 94 -199 76 -216 q 113 -137 113 -183 l 113 635 q 131 680 113 661 q 175 699 149 699 q 220 680 202 699 q 239 635 239 662 l 239 -140 q 193 -279 239 -231 q 60 -327 148 -327 z "},"k":{"ha":739,"x_min":106,"x_max":696,"o":"m 168 -8 q 124 10 142 -8 q 106 54 106 28 l 106 935 q 124 979 106 960 q 168 998 142 998 q 213 979 194 998 q 232 935 232 960 l 232 382 l 552 680 q 594 697 574 697 q 640 681 624 697 q 655 636 655 665 q 632 589 655 614 l 437 415 l 682 91 q 696 53 696 71 q 677 9 696 26 q 632 -8 659 -8 q 604 -1 618 -8 q 581 18 590 5 l 349 335 l 232 229 l 232 54 q 213 10 232 28 q 168 -8 194 -8 z "},"l":{"ha":338,"x_min":106,"x_max":232,"o":"m 168 -8 q 124 10 142 -8 q 106 54 106 28 l 106 935 q 124 979 106 960 q 168 998 142 998 q 214 980 195 998 q 232 935 232 962 l 232 54 q 213 10 232 28 q 168 -8 194 -8 z "},"m":{"ha":1245,"x_min":106,"x_max":1146,"o":"m 1047 669 q 1121 572 1096 632 q 1146 445 1146 513 l 1146 54 q 1127 10 1146 28 q 1082 -8 1108 -8 q 1038 10 1057 -8 q 1020 54 1020 28 l 1020 420 q 988 551 1020 511 q 883 590 956 590 q 773 557 818 590 q 689 461 728 524 l 689 54 q 670 10 689 28 q 625 -8 651 -8 q 581 10 600 -8 q 563 54 563 28 l 563 420 q 531 551 563 511 q 426 590 499 590 q 316 557 361 590 q 232 461 271 524 l 232 54 q 213 10 232 28 q 168 -8 194 -8 q 124 10 142 -8 q 106 54 106 28 l 106 636 q 124 681 106 662 q 168 700 142 700 q 213 681 194 700 q 232 636 232 662 l 232 586 q 328 675 274 643 q 461 707 382 707 q 589 668 534 707 q 669 568 644 629 q 918 707 753 707 q 1047 669 997 707 z "},"n":{"ha":826,"x_min":106,"x_max":727,"o":"m 168 -8 q 124 10 142 -8 q 106 54 106 28 l 106 636 q 124 681 106 662 q 168 700 142 700 q 213 681 194 700 q 232 636 232 662 l 232 585 q 347 675 288 644 q 483 707 407 707 q 614 671 557 707 q 698 575 669 636 q 727 439 727 514 l 727 54 q 708 10 727 28 q 663 -8 689 -8 q 619 10 637 -8 q 601 54 601 28 l 601 426 q 453 590 601 590 q 336 557 388 590 q 232 461 283 525 l 232 54 q 213 10 232 28 q 168 -8 194 -8 z "},"o":{"ha":825,"x_min":64,"x_max":761,"o":"m 412 -15 q 229 30 308 -15 q 107 159 151 76 q 64 346 64 241 q 107 534 64 452 q 230 662 151 617 q 412 707 309 707 q 594 662 515 707 q 718 534 674 616 q 761 346 761 452 q 718 159 761 240 q 593 30 673 75 q 412 -15 514 -15 m 412 100 q 519 126 468 100 q 604 210 572 153 q 635 347 635 266 q 602 486 635 433 q 523 564 572 537 q 412 591 473 591 q 305 567 357 591 q 221 484 252 540 q 190 347 190 429 q 222 208 190 260 q 302 127 252 155 q 412 100 351 100 z "},"p":{"ha":856,"x_min":106,"x_max":792,"o":"m 168 -320 q 124 -301 142 -320 q 106 -256 106 -282 l 106 637 q 124 682 106 663 q 168 700 142 700 q 213 682 194 700 q 232 637 232 663 l 232 605 q 463 707 330 707 q 623 665 551 707 q 747 537 701 621 q 792 346 792 453 q 746 155 792 235 q 625 29 700 73 q 463 -15 549 -15 q 232 87 330 -15 l 232 -256 q 214 -302 232 -283 q 168 -320 195 -320 m 445 103 q 607 168 548 103 q 666 346 666 232 q 607 524 666 460 q 445 589 548 589 q 330 562 385 589 q 232 488 275 534 l 232 203 q 330 130 275 157 q 445 103 385 103 z "},"q":{"ha":856,"x_min":64,"x_max":750,"o":"m 688 -320 q 643 -302 662 -320 q 624 -256 624 -283 l 624 87 q 393 -15 526 -15 q 235 28 311 -15 q 110 155 156 72 q 64 346 64 239 q 111 538 64 456 q 232 663 157 620 q 393 707 307 707 q 624 605 526 707 l 624 637 q 643 682 624 663 q 688 700 662 700 q 732 682 713 700 q 750 637 750 663 l 750 -256 q 732 -301 750 -282 q 688 -320 713 -320 m 411 103 q 526 130 471 103 q 624 203 581 157 l 624 488 q 526 562 581 534 q 411 589 471 589 q 249 524 308 589 q 190 346 190 460 q 249 168 190 232 q 411 103 308 103 z "},"r":{"ha":519,"x_min":106,"x_max":511,"o":"m 168 -8 q 124 10 142 -8 q 106 54 106 28 l 106 636 q 124 681 106 662 q 168 700 142 700 q 213 681 194 700 q 232 636 232 662 l 232 582 q 444 707 326 707 l 450 707 q 494 688 476 707 q 511 644 511 670 q 493 602 511 618 q 448 585 475 585 l 441 585 q 323 554 377 585 q 232 467 270 524 l 232 54 q 213 10 232 28 q 168 -8 194 -8 z "},"s":{"ha":651,"x_min":60,"x_max":594,"o":"m 331 -15 q 83 46 197 -15 q 60 92 60 62 q 75 131 60 114 q 114 148 91 148 q 138 142 127 148 q 228 112 184 122 q 323 102 271 102 q 472 197 472 102 q 439 243 472 227 q 326 279 406 259 q 194 319 247 297 q 100 384 136 340 q 65 491 65 427 q 136 647 65 587 q 331 707 206 707 q 528 673 439 707 q 557 652 547 667 q 568 620 568 637 q 552 581 568 598 q 513 564 536 564 l 495 567 q 340 591 414 591 q 228 566 270 591 q 186 498 186 540 q 222 439 186 458 q 340 403 262 422 q 471 363 414 384 q 560 298 526 342 q 594 187 594 254 q 524 42 594 99 q 331 -15 453 -15 z "},"t":{"ha":518,"x_min":24,"x_max":491,"o":"m 441 109 q 476 94 461 109 q 491 58 491 79 q 458 9 491 27 q 346 -15 406 -15 q 146 165 146 -15 l 146 578 l 79 578 q 39 592 53 578 q 24 632 24 606 q 39 672 24 658 q 79 686 53 686 l 146 686 l 146 783 q 163 830 146 814 q 210 846 180 846 q 256 829 240 846 q 273 783 273 812 l 273 686 l 425 686 q 463 671 448 686 q 479 632 479 655 q 463 594 479 610 q 425 578 448 578 l 273 578 l 273 176 q 294 113 273 129 q 359 96 316 96 q 414 104 388 96 q 418 106 416 104 q 441 109 431 109 z "},"u":{"ha":826,"x_min":99,"x_max":720,"o":"m 343 -15 q 213 20 270 -15 q 129 117 159 56 q 99 252 99 178 l 99 637 q 118 682 99 663 q 163 700 137 700 q 207 682 189 700 q 225 637 225 663 l 225 266 q 373 102 225 102 q 490 134 438 102 q 594 231 543 167 l 594 637 q 613 682 594 663 q 658 700 632 700 q 702 682 684 700 q 720 637 720 663 l 720 56 q 702 11 720 30 q 658 -8 684 -8 q 613 11 632 -8 q 594 56 594 30 l 594 107 q 479 16 538 47 q 343 -15 419 -15 z "},"v":{"ha":719,"x_min":34,"x_max":685,"o":"m 353 -8 q 307 6 328 -8 q 277 43 286 20 l 41 608 q 34 636 34 625 q 52 681 34 662 q 96 700 71 700 q 130 690 114 700 q 153 663 146 680 l 349 167 q 359 157 353 157 q 370 167 366 157 l 566 663 q 589 690 572 680 q 623 700 605 700 q 667 681 648 700 q 685 636 685 662 q 678 608 685 625 l 442 43 q 412 6 433 20 q 366 -8 391 -8 l 353 -8 z "},"w":{"ha":1074,"x_min":37,"x_max":1038,"o":"m 313 -8 q 264 8 286 -8 q 233 50 241 24 l 41 614 q 37 637 37 627 q 55 682 37 663 q 99 700 73 700 q 135 690 119 700 q 156 662 151 680 l 304 176 q 313 165 308 165 q 323 176 319 165 l 469 650 q 495 686 476 673 q 537 700 514 700 q 579 686 560 700 q 605 650 598 673 l 751 176 q 761 165 755 165 q 770 176 766 165 l 918 662 q 939 690 924 680 q 975 700 955 700 q 1019 682 1001 700 q 1038 637 1038 663 q 1034 614 1038 627 l 841 50 q 810 8 833 24 q 761 -8 788 -8 q 711 8 734 -8 q 680 52 689 24 l 547 465 q 537 476 543 476 q 528 465 532 476 l 395 52 q 363 8 385 24 q 313 -8 340 -8 z "},"x":{"ha":734,"x_min":66,"x_max":667,"o":"m 127 -8 q 83 9 99 -8 q 68 56 68 27 q 81 95 68 75 l 292 342 l 81 597 q 66 637 66 616 q 85 682 66 665 q 129 700 103 700 q 179 677 161 700 l 368 444 l 555 677 q 604 700 574 700 q 649 683 631 700 q 667 640 667 666 q 654 601 667 621 l 439 350 l 651 96 q 666 56 666 79 q 648 11 666 30 q 602 -8 631 -8 q 553 16 572 -8 l 362 245 l 182 19 q 127 -8 161 -8 z "},"y":{"ha":728,"x_min":34,"x_max":694,"o":"m 262 -320 q 220 -302 237 -320 q 202 -259 202 -283 q 206 -237 202 -248 l 294 -11 l 39 610 q 34 636 34 624 q 52 681 34 662 q 96 700 71 700 q 132 689 115 700 q 155 661 148 678 l 362 146 l 574 658 q 632 700 593 700 q 676 681 658 700 q 694 636 694 662 q 690 613 694 624 l 320 -277 q 262 -320 301 -320 z "},"z":{"ha":675,"x_min":53,"x_max":623,"o":"m 140 -1 q 77 19 102 -1 q 53 72 53 39 q 75 129 53 103 l 446 556 q 450 567 450 563 q 438 575 450 575 l 123 575 q 82 592 99 575 q 65 633 65 609 q 82 675 65 658 q 123 693 99 693 l 534 693 q 592 671 570 693 q 614 614 614 648 q 595 559 614 585 l 235 136 q 231 125 231 130 q 243 117 231 117 l 563 117 q 605 99 587 117 q 623 57 623 81 q 605 16 623 33 q 563 -1 587 -1 l 140 -1 z "},"七":{"ha":1389,"x_min":87,"x_max":1301,"o":"m 585 578 l 585 111 q 600 66 585 87 q 693 43 618 43 q 765 42 741 43 l 837 41 q 1090 66 1065 41 q 1124 202 1114 90 q 1141 245 1127 232 q 1184 259 1156 259 q 1248 198 1248 259 q 1158 -45 1248 -16 q 770 -75 1063 -75 q 522 -46 575 -75 q 480 -1 494 -31 q 467 75 467 28 l 467 566 l 155 526 q 140 525 149 525 q 100 540 113 525 q 87 579 87 555 q 103 621 87 606 q 155 642 119 635 l 467 681 l 467 1017 q 481 1075 467 1057 q 525 1093 495 1093 q 570 1075 556 1093 q 585 1017 585 1057 l 585 696 l 1234 776 q 1283 765 1265 780 q 1301 723 1301 750 q 1232 662 1301 670 l 585 578 z "},"三":{"ha":1389,"x_min":77,"x_max":1313,"o":"m 241 879 q 171 939 171 879 q 241 998 171 998 l 1145 998 q 1201 983 1181 998 q 1221 939 1221 968 q 1201 895 1221 910 q 1145 879 1181 879 l 241 879 m 332 431 q 264 491 264 431 q 332 551 264 551 l 1044 551 q 1112 491 1112 551 q 1044 431 1112 431 l 332 431 m 149 -65 q 77 -5 77 -65 q 149 56 77 56 l 1238 56 q 1313 -5 1313 56 q 1293 -50 1313 -35 q 1238 -65 1274 -65 l 149 -65 z "},"上":{"ha":1389,"x_min":81,"x_max":1308,"o":"m 144 -50 q 81 5 81 -50 q 144 60 81 60 l 586 60 l 586 1034 q 644 1100 586 1100 q 700 1034 700 1100 l 700 719 l 1120 719 q 1184 665 1184 719 q 1120 609 1184 609 l 700 609 l 700 60 l 1242 60 q 1308 5 1308 60 q 1242 -50 1308 -50 l 144 -50 z "},"下":{"ha":1389,"x_min":81,"x_max":1308,"o":"m 1240 1019 q 1308 964 1308 1019 q 1240 910 1308 910 l 708 910 l 708 -61 q 647 -129 708 -129 q 603 -113 617 -129 q 589 -61 589 -96 l 589 910 l 149 910 q 98 923 114 910 q 81 964 81 936 q 149 1019 81 1019 l 1240 1019 m 1116 429 q 1141 380 1141 406 q 1124 340 1141 359 q 1084 321 1108 321 q 1038 340 1061 321 q 764 564 902 456 q 736 609 736 585 q 746 637 736 621 q 787 661 760 661 q 821 651 806 661 q 977 543 894 605 q 1116 429 1059 480 z "},"中":{"ha":1389,"x_min":136,"x_max":1267,"o":"m 1111 861 q 1259 712 1267 871 l 1259 410 q 1223 293 1259 330 q 1111 262 1188 256 l 754 262 l 754 -66 q 694 -133 754 -133 q 635 -66 635 -133 l 635 262 l 292 262 q 144 410 136 252 l 144 712 q 178 830 144 793 q 292 861 213 867 l 635 861 l 635 1039 q 694 1107 635 1107 q 754 1039 754 1107 l 754 861 l 1111 861 m 635 370 l 635 753 l 339 753 q 277 737 293 753 q 262 674 262 722 l 262 448 q 277 386 262 401 q 339 370 293 370 l 635 370 m 1139 674 q 1124 737 1139 722 q 1062 753 1108 753 l 754 753 l 754 370 l 1062 370 q 1124 386 1108 370 q 1139 448 1139 401 l 1139 674 z "},"丹":{"ha":1389,"x_min":81,"x_max":1309,"o":"m 888 -123 q 829 -65 829 -123 q 888 -5 829 -5 l 981 -5 q 1042 53 1040 -5 l 1042 401 l 392 401 q 283 15 372 149 q 142 -118 195 -118 q 81 -54 81 -118 q 92 -28 81 -43 q 130 16 103 -12 q 262 274 241 138 l 281 401 l 144 401 q 81 453 81 401 q 144 506 81 506 l 285 506 l 283 883 q 319 1017 283 981 q 437 1055 355 1055 l 1001 1055 q 1116 1017 1078 1055 q 1153 902 1154 979 l 1153 506 l 1245 506 q 1309 453 1309 506 q 1245 401 1309 401 l 1153 401 l 1153 26 q 1121 -90 1158 -53 q 1004 -123 1084 -127 l 888 -123 m 1042 871 q 963 949 1042 951 l 472 949 q 393 879 393 949 l 393 506 l 1042 506 l 1042 871 m 777 590 q 708 640 753 590 q 666 689 703 646 q 605 760 646 715 q 578 810 578 791 q 633 861 578 861 q 751 768 665 861 q 837 647 837 677 q 777 590 837 590 z "},"九":{"ha":1389,"x_min":81,"x_max":1308,"o":"m 1245 231 q 1308 172 1308 231 q 1252 -49 1308 -14 q 1181 -72 1230 -62 q 1086 -81 1133 -81 q 971 -76 1027 -81 q 897 -64 916 -71 q 850 -26 864 -52 q 837 43 836 0 q 848 289 840 140 q 860 494 857 438 l 869 673 q 830 715 872 715 l 576 715 q 549 475 568 579 q 498 285 530 372 q 319 18 444 140 q 138 -98 203 -98 q 98 -76 118 -98 q 81 -35 81 -58 q 123 26 81 0 q 389 334 304 137 q 440 503 425 414 q 461 715 456 591 l 167 715 q 119 730 136 715 q 102 772 102 745 q 118 810 102 796 q 164 825 134 825 l 464 825 q 467 966 467 911 l 468 1036 q 526 1093 468 1093 q 583 1029 583 1093 q 581 825 583 949 l 868 825 q 962 794 935 825 q 986 689 990 764 q 981 591 983 620 q 960 98 960 220 q 968 60 960 73 q 996 41 975 46 q 1078 34 1025 34 q 1172 53 1157 34 q 1192 174 1185 71 q 1245 231 1196 231 z "},"二":{"ha":1389,"x_min":80,"x_max":1309,"o":"m 300 854 q 227 916 227 854 q 300 974 227 974 l 1089 974 q 1145 960 1127 974 q 1162 914 1162 945 q 1089 854 1162 854 l 300 854 m 153 -16 q 98 -2 115 -16 q 80 43 80 12 q 98 89 80 75 q 153 103 115 103 l 1234 103 q 1309 43 1309 103 q 1234 -16 1309 -16 l 153 -16 z "},"五":{"ha":1389,"x_min":76,"x_max":1308,"o":"m 145 -68 q 76 -11 76 -68 q 94 29 76 15 q 145 43 111 43 l 396 43 l 479 475 l 293 475 q 222 529 222 475 q 293 587 222 587 l 498 587 l 553 902 l 233 902 q 165 959 165 902 q 233 1015 165 1015 l 1142 1015 q 1213 959 1213 1015 q 1142 902 1213 902 l 669 902 l 614 587 l 933 587 q 1042 559 1009 593 q 1069 452 1074 526 l 1069 43 l 1238 43 q 1308 -12 1308 43 q 1238 -68 1308 -68 l 145 -68 m 954 415 q 939 460 954 446 q 894 475 925 475 l 595 475 l 519 45 l 954 45 l 954 415 z "},"井":{"ha":1389,"x_min":83,"x_max":1306,"o":"m 138 -125 q 96 -111 110 -125 q 83 -65 83 -96 q 151 4 83 -30 q 392 317 347 99 l 145 317 q 83 368 83 317 q 98 407 83 395 q 145 419 113 419 l 407 419 q 425 764 425 570 l 206 764 q 142 814 142 764 q 206 865 142 865 l 425 865 l 423 1042 q 437 1084 423 1070 q 479 1099 450 1099 q 532 1031 532 1099 l 530 865 l 875 865 l 875 1031 q 928 1099 875 1099 q 982 1031 982 1099 l 982 865 l 1185 865 q 1249 814 1249 865 q 1185 764 1249 764 l 982 764 l 982 419 l 1241 419 q 1291 407 1275 419 q 1306 368 1306 395 q 1241 317 1306 317 l 982 317 l 982 -58 q 928 -125 982 -125 q 875 -58 875 -125 l 875 317 l 503 317 q 236 -84 457 49 q 138 -125 170 -125 m 875 764 l 530 764 q 518 433 530 598 l 514 419 l 875 419 l 875 764 z "},"仁":{"ha":1389,"x_min":77,"x_max":1312,"o":"m 330 -130 q 274 -62 274 -130 l 274 566 l 267 567 q 180 430 218 479 q 123 381 142 381 q 77 439 77 381 q 113 509 77 464 q 366 1043 273 720 q 429 1104 382 1104 q 484 1050 484 1104 q 456 964 484 1031 l 385 792 l 385 -62 q 330 -130 385 -130 m 575 803 q 509 863 509 803 q 572 922 509 922 l 1194 922 q 1244 907 1226 922 q 1261 863 1261 892 q 1196 803 1261 803 l 575 803 m 514 -22 q 448 38 448 -22 q 514 96 448 96 l 1244 96 q 1312 38 1312 96 q 1294 -7 1312 8 q 1244 -22 1276 -22 l 514 -22 z "},"仙":{"ha":1389,"x_min":73,"x_max":1263,"o":"m 312 -133 q 258 -66 258 -133 l 258 574 q 175 443 206 483 q 122 403 144 403 q 87 416 102 403 q 73 448 73 429 q 84 492 73 469 q 121 555 95 515 q 345 1038 254 762 q 371 1088 355 1072 q 408 1105 387 1105 q 456 1093 439 1105 q 472 1061 472 1081 q 462 1015 472 1043 q 430 933 452 986 q 368 798 404 873 l 368 -66 q 312 -133 368 -133 m 640 -81 q 503 54 494 -91 l 503 770 q 560 838 503 838 q 616 770 616 838 l 616 92 q 680 28 616 27 l 822 28 l 822 1035 q 878 1103 822 1103 q 935 1035 935 1103 l 935 28 l 1084 28 q 1146 92 1147 28 l 1146 769 q 1204 838 1146 838 q 1263 769 1263 838 l 1263 54 q 1229 -49 1263 -14 q 1131 -81 1198 -81 l 640 -81 z "},"份":{"ha":1389,"x_min":75,"x_max":1317,"o":"m 313 -132 q 259 -65 259 -132 l 259 578 l 256 578 q 172 442 202 481 q 121 403 142 403 q 87 414 99 403 q 75 448 75 426 q 91 493 75 463 q 144 582 107 524 q 264 803 205 678 q 363 1051 315 909 q 429 1104 381 1104 q 483 1053 483 1104 q 450 962 483 1032 l 422 898 q 368 777 380 800 l 368 -65 q 313 -132 368 -132 m 1256 464 q 1090 614 1185 464 q 972 913 987 779 q 921 963 966 962 l 852 963 q 787 1016 787 963 q 852 1069 787 1069 l 958 1069 q 1045 1041 1017 1069 q 1080 954 1073 1013 q 1145 737 1092 834 q 1290 568 1199 640 q 1317 522 1317 548 q 1256 464 1317 464 m 467 471 q 411 524 411 471 q 418 546 411 533 q 438 572 425 559 q 593 868 524 658 q 618 918 604 902 q 654 933 632 933 q 712 886 712 933 q 617 650 712 826 q 467 471 522 471 m 461 -121 q 407 -66 407 -121 q 458 -12 407 -33 q 711 423 707 87 l 597 423 q 545 473 545 423 q 602 526 545 526 l 1069 526 q 1160 500 1130 526 q 1188 426 1191 475 l 1176 206 q 1118 -49 1166 19 q 901 -113 1073 -113 q 834 -56 834 -113 q 859 -11 834 -27 q 928 7 883 5 q 1006 20 977 8 q 1040 54 1035 33 q 1072 372 1072 163 q 1021 423 1072 423 l 822 423 q 768 140 814 252 q 617 -46 720 27 q 461 -121 511 -121 z "},"伸":{"ha":1389,"x_min":75,"x_max":1272,"o":"m 1131 898 q 1238 869 1204 903 q 1268 761 1272 836 l 1268 296 q 1236 186 1268 220 q 1131 159 1203 153 l 921 159 l 921 -71 q 868 -133 921 -133 q 814 -71 814 -133 l 814 159 l 613 159 q 505 187 538 153 q 476 296 471 221 l 476 761 q 505 869 471 836 q 613 898 538 903 l 814 898 l 814 1047 q 868 1111 814 1111 q 921 1047 921 1111 l 921 898 l 1131 898 m 377 1105 q 437 1059 437 1105 q 416 979 437 1039 q 349 804 395 920 l 349 -66 q 293 -133 349 -133 q 240 -66 240 -133 l 240 562 q 122 399 155 399 q 75 454 75 399 q 91 503 75 475 q 313 1044 231 739 q 377 1105 330 1105 m 648 796 q 585 732 583 796 l 585 585 l 814 585 l 814 796 l 648 796 m 1160 732 q 1096 796 1160 796 l 921 796 l 921 585 l 1160 585 l 1160 732 m 814 262 l 814 483 l 585 483 l 585 324 q 600 277 585 292 q 648 262 616 262 l 814 262 m 1160 483 l 921 483 l 921 262 l 1096 262 q 1144 277 1128 262 q 1160 324 1160 292 l 1160 483 z "},"低":{"ha":1389,"x_min":76,"x_max":1313,"o":"m 297 -132 q 244 -66 244 -132 l 244 562 l 241 562 q 171 441 202 484 q 122 399 140 399 q 76 450 76 399 q 106 521 76 473 q 317 1034 236 730 q 382 1104 336 1104 q 424 1092 411 1104 q 437 1054 437 1080 q 350 800 437 1029 l 350 -66 q 297 -132 350 -132 m 1196 -106 q 1101 -59 1149 -106 q 1009 79 1053 -12 q 890 552 921 264 l 623 552 l 623 182 l 841 263 l 850 264 q 886 252 873 267 q 898 209 898 237 q 841 151 898 175 q 444 7 491 7 q 393 68 393 7 q 452 122 393 104 l 514 142 l 514 891 q 570 994 514 971 q 656 1008 586 1001 l 732 1015 q 1112 1081 895 1034 l 1176 1095 q 1234 1029 1234 1095 q 1191 981 1234 990 q 979 944 1115 963 l 993 662 l 1227 662 q 1294 606 1294 662 q 1227 552 1294 552 l 1002 552 q 1105 145 1027 296 q 1184 41 1158 41 q 1213 178 1208 41 q 1225 218 1214 206 q 1261 231 1237 231 q 1313 172 1313 231 q 1280 -24 1313 62 q 1196 -106 1251 -106 m 882 662 q 871 928 869 811 l 654 905 q 623 857 625 901 l 623 662 l 882 662 m 589 -92 q 525 -39 525 -92 q 589 11 525 11 l 955 11 q 1008 -41 1008 11 q 996 -80 1008 -68 q 956 -92 983 -92 l 589 -92 z "},"佳":{"ha":1389,"x_min":73,"x_max":1314,"o":"m 437 1028 q 349 787 404 917 l 349 -66 q 293 -133 349 -133 q 237 -66 237 -133 l 237 548 q 121 397 159 397 q 85 410 98 397 q 73 446 73 423 q 81 483 73 465 q 104 528 88 500 q 320 1050 229 730 q 342 1092 328 1078 q 381 1105 357 1105 q 426 1091 411 1105 q 441 1054 441 1077 q 437 1028 441 1040 m 798 647 l 798 830 l 553 830 q 488 883 488 830 q 553 935 488 935 l 798 935 l 798 1038 q 854 1105 798 1105 q 911 1038 911 1105 l 911 935 l 1173 935 q 1237 883 1237 935 q 1221 843 1237 856 q 1173 830 1206 830 l 911 830 l 911 647 l 1238 647 q 1303 594 1303 647 q 1238 541 1303 541 l 469 541 q 404 594 404 541 q 469 647 404 647 l 798 647 m 1249 19 q 1314 -34 1314 19 q 1249 -85 1314 -85 l 452 -85 q 389 -34 389 -85 q 452 19 389 19 l 798 19 l 798 231 l 536 231 q 472 283 472 231 q 536 336 472 336 l 798 336 l 798 445 q 854 513 798 513 q 911 445 911 513 l 911 336 l 1183 336 q 1246 283 1246 336 q 1183 231 1246 231 l 911 231 l 911 19 l 1249 19 z "},"來":{"ha":1389,"x_min":83,"x_max":1309,"o":"m 1270 87 q 1309 35 1309 71 q 1291 -12 1309 7 q 1251 -28 1272 -31 q 1023 83 1172 -18 q 745 316 845 202 l 745 -68 q 688 -130 745 -130 q 631 -68 631 -130 l 631 311 q 408 112 540 208 q 155 -28 275 16 q 132 -33 142 -33 q 96 -16 110 -33 q 83 24 83 0 q 93 55 83 42 q 126 77 103 68 q 393 237 241 129 q 631 444 544 345 l 631 841 l 174 841 q 109 892 109 841 q 174 944 109 944 l 631 944 l 631 1042 q 688 1104 631 1104 q 745 1042 745 1104 l 745 944 l 1203 944 q 1267 892 1267 944 q 1203 841 1267 841 l 745 841 l 745 437 q 976 243 842 334 q 1270 87 1109 152 m 1096 749 q 1061 639 1096 709 q 1244 495 1156 575 q 1267 449 1267 476 q 1253 410 1267 425 q 1211 396 1238 396 q 1181 405 1195 396 q 1147 434 1168 414 l 1126 456 q 1016 562 1073 510 q 901 422 963 472 q 857 403 878 403 q 823 418 838 403 q 808 449 808 433 q 833 498 808 471 q 922 614 886 553 q 990 757 959 675 q 1043 796 1005 796 q 1081 782 1066 796 q 1096 749 1096 768 m 414 741 q 381 635 414 707 q 544 509 495 556 q 567 463 567 486 q 552 426 567 439 q 513 412 537 412 q 483 421 496 412 q 450 449 469 430 l 339 559 q 205 382 270 439 q 155 361 182 361 q 119 376 134 361 q 107 404 107 388 q 134 460 107 429 q 304 746 245 593 q 362 789 321 789 q 399 774 385 789 q 414 741 414 760 z "},"保":{"ha":1389,"x_min":75,"x_max":1314,"o":"m 392 1105 q 454 1053 454 1105 q 384 863 454 1021 l 351 788 l 351 -60 q 298 -133 351 -133 q 244 -69 244 -133 l 244 567 q 122 399 160 399 q 75 461 75 399 q 118 556 75 486 q 330 1038 247 773 q 355 1089 342 1073 q 392 1105 369 1105 m 1241 106 q 1314 35 1314 69 q 1260 -26 1314 -26 q 1089 77 1198 -26 q 906 304 978 183 l 906 -71 q 853 -133 906 -133 q 802 -71 802 -133 l 802 301 q 608 71 720 165 q 439 -31 487 -31 q 391 27 391 -31 q 445 90 391 64 q 635 227 538 134 q 777 396 730 317 l 484 396 q 422 446 422 396 q 484 496 422 496 l 802 496 l 802 627 l 617 627 q 532 654 559 627 q 507 738 505 681 l 507 939 q 534 1025 507 998 q 617 1050 560 1053 l 1101 1050 q 1191 1023 1164 1050 q 1214 937 1218 997 l 1214 739 q 1187 651 1214 678 q 1101 627 1161 624 l 906 627 l 906 496 l 1242 496 q 1305 446 1305 496 q 1242 396 1305 396 l 929 396 q 1241 106 1048 205 m 613 772 q 658 726 613 728 l 1058 726 q 1105 773 1103 726 l 1105 903 q 1058 951 1105 948 l 658 951 q 613 905 613 951 l 613 772 z "},"信":{"ha":1389,"x_min":75,"x_max":1316,"o":"m 307 -133 q 252 -66 252 -133 l 252 575 q 126 399 155 399 q 75 460 75 399 q 126 563 75 483 q 339 1038 252 764 q 365 1089 350 1073 q 401 1105 380 1105 q 464 1053 464 1105 q 362 802 464 1034 l 362 -66 q 307 -133 362 -133 m 582 948 q 525 1000 525 948 q 582 1051 525 1051 l 1173 1051 q 1230 1000 1230 1051 q 1173 948 1230 948 l 582 948 m 472 754 q 407 806 407 754 q 472 860 407 860 l 1252 860 q 1316 806 1316 860 q 1252 754 1316 754 l 472 754 m 581 560 q 525 612 525 560 q 581 663 525 663 l 1175 663 q 1230 612 1230 663 q 1175 560 1230 560 l 581 560 m 581 369 q 525 420 525 369 q 581 472 525 472 l 1175 472 q 1230 420 1230 472 q 1175 369 1230 369 l 581 369 m 628 -92 q 534 -65 563 -92 q 507 22 505 -38 l 507 168 q 536 257 507 229 q 628 281 566 285 l 1127 281 q 1221 254 1191 281 q 1248 168 1251 228 l 1248 22 q 1219 -68 1248 -41 q 1127 -92 1191 -96 l 628 -92 m 1086 8 q 1135 56 1133 8 l 1135 136 q 1086 183 1135 180 l 669 183 q 620 136 623 183 l 620 56 q 633 20 620 33 q 669 8 646 8 l 1086 8 z "},"像":{"ha":1389,"x_min":75,"x_max":1316,"o":"m 1244 95 q 1316 20 1316 60 q 1259 -38 1316 -38 q 1126 35 1207 -38 q 985 201 1051 102 q 993 113 993 159 q 945 -76 993 -14 q 776 -134 901 -134 q 709 -75 709 -134 q 773 -20 709 -27 q 857 -1 829 -15 q 897 119 897 18 l 891 164 q 655 -1 802 83 q 442 -91 500 -91 q 392 -39 392 -91 q 469 22 392 -8 q 869 250 704 109 l 841 309 q 598 163 754 243 q 483 119 513 119 q 437 167 437 119 q 494 221 437 202 q 800 376 658 277 l 761 426 q 448 289 514 289 q 412 302 425 289 q 399 338 399 315 q 472 395 399 369 q 761 529 627 448 l 589 529 q 506 555 533 529 q 479 633 479 581 l 479 734 q 490 795 479 772 q 427 765 450 765 q 384 811 384 765 q 449 886 384 840 q 633 1067 551 962 q 694 1107 663 1107 q 747 1072 747 1107 q 719 1021 747 1054 l 986 1021 q 1078 964 1078 1021 q 975 840 1078 941 l 1149 840 q 1232 814 1204 840 q 1260 736 1260 789 l 1260 633 q 1149 529 1260 525 l 905 529 l 840 477 q 948 319 905 412 q 1114 469 1005 358 q 1168 499 1143 499 q 1227 448 1227 499 q 1027 275 1227 397 q 1244 95 1127 152 m 426 1025 l 340 788 l 340 -69 q 288 -133 340 -133 q 235 -69 235 -133 l 235 552 q 122 397 156 397 q 75 452 75 397 q 103 522 75 476 q 313 1034 232 728 q 378 1105 334 1105 q 431 1054 431 1105 l 426 1025 m 574 840 l 863 840 l 926 903 q 940 922 940 917 q 922 933 940 933 l 643 933 q 540 834 589 875 l 574 840 m 581 658 q 624 616 581 618 l 814 616 l 814 753 l 610 753 q 581 723 581 753 l 581 658 m 911 753 l 911 616 l 1115 616 q 1157 658 1157 616 l 1157 709 q 1115 753 1157 750 l 911 753 z "},"元":{"ha":1389,"x_min":88,"x_max":1302,"o":"m 294 932 q 227 985 227 932 q 294 1039 227 1039 l 1093 1039 q 1160 985 1160 1039 q 1093 932 1160 932 l 294 932 m 145 -113 q 88 -52 88 -113 q 111 -15 88 -31 q 180 18 133 1 q 388 183 321 65 q 457 549 456 304 l 163 549 q 95 602 95 549 q 163 656 95 656 l 1225 656 q 1290 604 1290 656 q 1225 549 1290 549 l 882 549 l 882 80 q 917 26 882 35 q 1035 18 948 18 q 1162 43 1141 18 q 1184 130 1183 65 q 1242 195 1187 195 q 1287 182 1272 195 q 1302 137 1302 168 q 1257 -41 1302 15 q 1012 -88 1207 -88 q 829 -72 871 -88 q 773 31 773 -50 l 773 549 l 566 549 l 564 490 q 502 168 560 305 q 334 -37 448 38 q 145 -113 218 -113 z "},"光":{"ha":1389,"x_min":91,"x_max":1301,"o":"m 1242 194 q 1301 132 1301 194 q 1259 -41 1301 1 q 1001 -88 1211 -88 q 817 -73 853 -88 q 760 39 760 -50 l 760 515 l 570 515 q 553 316 567 392 q 511 170 540 240 q 336 -34 461 46 q 144 -109 221 -109 q 91 -47 91 -109 q 109 -9 91 -22 q 197 24 121 0 q 396 176 327 66 q 465 515 463 283 l 168 515 q 104 566 104 515 q 168 617 104 617 l 633 617 l 633 1027 q 692 1101 633 1101 q 750 1027 750 1101 l 750 617 l 1214 617 q 1262 605 1246 617 q 1278 566 1278 593 q 1214 515 1278 515 l 864 515 l 864 79 q 883 26 864 37 q 981 11 909 11 q 1154 30 1124 11 q 1188 125 1183 47 q 1204 177 1191 160 q 1242 194 1217 194 m 928 723 q 902 768 902 739 q 918 817 902 791 q 1008 971 983 918 q 1059 1010 1025 1010 q 1093 1000 1076 1010 q 1122 954 1122 982 q 1108 909 1122 932 q 1016 758 1053 807 q 955 715 983 715 q 928 723 943 715 m 349 751 q 247 899 319 806 q 227 949 227 926 q 252 994 227 975 q 279 1004 266 1004 q 340 964 305 1004 q 445 819 387 910 q 461 773 461 795 q 435 728 461 749 q 400 716 419 716 q 349 751 368 716 z "},"內":{"ha":1389,"x_min":151,"x_max":1255,"o":"m 1131 859 q 1221 830 1187 859 q 1251 742 1255 802 l 1251 39 q 1217 -64 1251 -33 q 1104 -96 1183 -96 q 947 -95 985 -96 q 884 -80 901 -94 q 867 -35 867 -66 q 888 9 867 -7 q 947 23 909 24 l 1057 19 q 1114 33 1093 18 q 1137 76 1134 49 l 1137 678 q 1122 739 1137 724 q 1063 754 1107 754 l 785 754 q 863 543 803 648 q 1027 324 922 438 q 1053 279 1053 297 q 1034 242 1053 256 q 985 228 1016 228 q 926 254 959 228 q 849 339 894 281 q 701 648 777 431 l 699 648 q 652 514 689 593 q 556 347 616 435 q 476 245 510 277 q 416 214 442 214 q 372 227 387 214 q 357 270 357 240 q 438 382 357 296 q 632 754 562 514 l 340 754 q 283 739 297 754 q 269 678 269 724 l 269 -47 q 254 -90 269 -73 q 217 -106 239 -106 q 170 -92 183 -106 q 156 -46 156 -79 l 156 745 q 184 833 151 804 q 274 859 218 863 l 654 859 l 654 939 q 589 989 654 989 l 434 989 q 382 1003 400 989 q 365 1043 365 1017 q 434 1097 365 1097 l 624 1097 q 770 987 770 1097 l 770 859 l 1131 859 z "},"八":{"ha":1389,"x_min":84,"x_max":1303,"o":"m 1240 -88 q 1182 -62 1215 -88 q 1103 20 1149 -35 q 909 382 971 175 q 841 865 848 590 q 826 919 840 902 q 781 936 812 936 l 608 936 q 536 994 536 936 q 608 1051 536 1051 l 819 1051 q 918 1016 887 1051 q 951 905 948 981 q 1025 391 959 590 q 1112 223 1055 302 q 1248 65 1169 144 q 1303 -23 1303 7 q 1282 -73 1303 -56 q 1240 -88 1265 -88 m 144 -95 q 98 -79 113 -95 q 84 -31 84 -64 q 111 30 84 -1 q 286 346 218 155 q 369 764 358 552 q 431 848 373 848 q 490 795 491 848 q 431 415 480 595 q 308 100 382 235 q 212 -47 252 0 q 144 -95 172 -95 z "},"公":{"ha":1389,"x_min":80,"x_max":1309,"o":"m 1255 381 q 1164 421 1217 381 q 1043 544 1112 461 q 871 883 906 708 q 815 949 859 948 l 675 949 q 613 1004 613 949 q 675 1057 613 1057 l 846 1057 q 962 955 944 1057 q 1242 521 1015 667 q 1309 442 1309 479 q 1255 381 1309 381 m 133 372 q 80 434 80 372 q 165 548 80 456 q 363 886 275 666 q 396 945 380 925 q 434 964 412 964 q 487 917 487 964 q 463 829 487 888 q 391 685 438 769 q 187 403 288 500 q 157 379 170 387 q 133 372 145 372 m 1175 -115 q 1105 -58 1139 -115 l 1066 9 l 1044 7 l 994 0 q 856 -17 970 -3 q 595 -45 742 -31 l 213 -77 q 163 -64 180 -80 q 146 -16 146 -47 q 167 28 146 14 q 281 43 190 43 l 327 45 q 530 541 444 263 q 593 591 545 591 q 636 575 610 591 q 652 538 652 555 q 648 522 652 532 q 643 507 644 511 q 439 49 545 220 l 1012 92 q 882 260 928 209 q 834 334 834 312 q 886 378 834 378 q 1023 258 925 378 q 1183 52 1115 146 q 1237 -60 1237 -23 q 1175 -115 1237 -115 z "},"六":{"ha":1389,"x_min":79,"x_max":1308,"o":"m 165 709 q 94 766 94 709 q 165 823 94 823 l 631 823 l 631 1024 q 646 1073 631 1055 q 690 1090 661 1090 q 749 1024 749 1090 l 749 823 l 1221 823 q 1293 766 1293 823 q 1221 709 1293 709 l 165 709 m 140 -94 q 79 -30 79 -94 q 87 -1 79 -16 q 117 34 96 14 q 399 477 302 220 q 460 528 418 528 q 526 476 526 528 q 448 281 526 439 q 275 15 372 126 q 140 -94 183 -94 m 1245 -85 q 1101 38 1198 -85 q 932 301 1000 170 q 859 479 859 441 q 922 525 859 525 q 985 473 962 525 q 1233 85 1096 222 q 1308 -19 1308 11 q 1245 -85 1308 -85 z "},"冬":{"ha":1389,"x_min":75,"x_max":1314,"o":"m 133 281 q 75 343 75 281 q 90 387 75 368 q 123 404 96 395 q 212 427 149 412 q 415 492 334 458 q 604 585 519 536 q 415 823 490 685 q 269 686 361 760 q 142 610 174 610 q 91 669 91 610 q 167 750 91 699 q 441 1021 342 871 q 538 1105 496 1105 q 598 1067 598 1105 q 541 975 598 1044 l 1009 975 q 1115 911 1115 975 q 1009 768 1115 872 q 793 583 907 666 q 1249 425 998 464 q 1314 362 1314 415 q 1246 296 1314 296 q 991 363 1168 296 q 694 514 814 430 q 376 355 564 430 q 133 281 184 281 m 701 647 q 873 783 788 705 q 948 864 948 849 q 930 871 948 871 l 505 871 q 701 647 585 739 m 921 151 q 821 183 914 151 q 544 266 620 251 q 490 285 507 273 q 473 316 473 297 q 530 369 473 369 q 723 326 570 369 q 929 262 887 279 q 977 208 977 241 q 921 151 977 151 m 1034 -117 q 324 18 727 -34 q 259 72 259 26 q 328 129 259 129 l 708 71 q 962 23 861 46 q 1101 -16 1063 0 q 1137 -40 1126 -27 q 1147 -72 1147 -53 q 1090 -127 1147 -127 l 1034 -117 z "},"前":{"ha":1389,"x_min":75,"x_max":1314,"o":"m 140 808 q 75 863 75 808 q 140 917 75 917 l 401 917 l 369 990 l 355 1020 q 339 1061 339 1057 q 397 1104 339 1104 q 484 1017 446 1104 l 528 917 l 831 917 l 884 1059 q 951 1107 902 1107 q 1015 1055 1015 1107 q 978 962 1015 1027 l 954 917 l 1248 917 q 1314 863 1314 917 q 1248 808 1314 808 l 140 808 m 986 -123 q 922 -64 922 -123 q 986 -5 922 -5 l 1050 -5 q 1104 52 1103 -5 l 1104 665 q 1161 727 1104 727 q 1217 665 1217 727 l 1217 18 q 1183 -93 1217 -58 q 1076 -123 1149 -127 l 986 -123 m 213 -134 q 156 -72 156 -134 l 156 601 q 182 688 156 661 q 269 712 209 715 l 557 712 q 646 686 618 712 q 670 601 674 659 l 670 12 q 540 -123 680 -129 l 475 -123 q 410 -68 410 -123 q 465 -12 410 -12 l 513 -12 q 559 35 556 -12 l 559 182 l 266 182 l 266 -66 q 213 -134 266 -134 m 863 100 q 807 155 807 100 l 807 629 q 863 686 807 686 q 918 629 918 686 l 918 155 q 863 100 918 100 m 559 568 q 518 610 559 608 l 307 610 q 266 568 269 610 l 266 491 l 559 491 l 559 568 m 559 278 l 559 393 l 266 393 l 266 278 l 559 278 z "},"功":{"ha":1389,"x_min":73,"x_max":1270,"o":"m 959 -121 q 880 -54 880 -121 q 941 9 880 9 l 1008 8 q 1090 41 1062 7 q 1134 255 1115 69 q 1150 612 1150 418 q 1085 689 1150 689 l 892 689 q 808 243 876 408 q 566 -47 742 81 q 427 -117 471 -117 q 368 -54 368 -117 q 444 19 368 -24 q 734 357 666 142 q 780 689 769 468 l 617 689 q 548 746 548 689 q 617 802 548 802 l 781 802 q 785 1020 785 928 q 842 1105 785 1105 q 903 1031 903 1105 q 897 802 903 951 l 1133 802 q 1270 662 1270 802 q 1223 52 1270 256 q 959 -121 1184 -121 m 137 79 q 75 144 75 79 q 88 183 75 170 q 194 221 104 199 l 229 229 l 264 240 l 264 848 l 140 848 q 73 902 73 848 q 140 956 73 956 l 511 956 q 578 902 578 956 q 511 848 578 848 l 378 848 l 378 271 q 517 316 468 297 q 560 327 543 327 q 609 275 609 327 q 560 218 609 239 q 509 199 547 212 q 449 178 472 186 l 334 138 q 137 79 163 79 z "},"勢":{"ha":1389,"x_min":76,"x_max":1320,"o":"m 1276 606 q 1320 551 1320 606 q 1292 382 1320 439 q 1210 324 1264 324 q 1067 703 1067 324 l 1069 793 q 1029 840 1069 840 l 954 840 q 932 624 951 716 q 1043 506 1043 538 q 993 456 1043 456 q 916 514 972 456 l 902 528 q 831 412 875 471 q 749 350 783 350 q 699 403 699 350 q 705 424 699 414 q 727 449 712 434 q 825 594 798 519 l 760 640 q 732 680 732 661 q 776 723 732 723 q 845 688 793 723 q 859 840 857 761 l 776 840 q 713 886 713 840 q 776 935 713 935 l 857 935 l 857 1054 q 909 1108 857 1108 q 959 1059 959 1108 l 959 935 l 1069 935 q 1168 841 1168 935 q 1166 792 1168 808 l 1165 742 q 1166 643 1165 675 q 1180 492 1171 538 q 1208 446 1190 446 q 1224 471 1219 446 q 1230 552 1229 495 q 1244 591 1230 576 q 1276 606 1257 606 m 153 709 q 248 802 232 728 l 130 802 q 85 842 85 802 q 130 886 85 886 l 345 886 l 345 945 l 182 945 q 149 956 161 945 q 137 987 137 967 q 182 1028 137 1028 l 345 1028 l 345 1061 q 396 1107 345 1107 q 449 1061 449 1107 l 449 1028 l 610 1028 q 656 987 656 1028 q 644 956 656 967 q 610 945 632 945 l 449 945 l 449 886 l 663 886 q 708 844 708 886 q 696 812 708 823 q 663 802 685 802 l 525 802 l 525 747 q 559 722 525 723 l 586 722 q 621 750 617 722 q 667 789 627 789 q 716 749 716 789 q 624 646 716 646 l 533 646 q 433 718 435 646 l 433 802 l 350 802 q 273 662 339 712 q 133 612 209 612 q 85 661 85 612 q 153 709 85 693 m 1078 293 q 1191 202 1191 293 q 1139 -56 1191 12 q 856 -123 1088 -123 q 781 -66 781 -123 q 864 -9 781 -9 l 907 -9 l 939 -11 q 1007 -2 979 -12 q 1047 27 1035 8 q 1069 153 1069 62 q 1020 195 1069 195 l 665 195 q 245 -115 606 -64 l 198 -123 l 168 -125 q 113 -71 113 -126 q 153 -20 113 -28 l 214 -12 q 447 60 361 7 q 556 195 533 113 l 228 195 q 172 244 172 195 q 228 293 172 293 l 568 293 q 575 376 571 345 q 578 387 575 378 q 503 376 540 380 l 279 354 l 126 339 q 89 349 102 336 q 76 387 76 362 q 123 431 76 427 q 346 448 263 444 l 346 525 l 194 525 q 151 566 151 525 q 194 606 151 606 l 346 606 l 346 650 q 395 701 346 701 q 444 650 444 701 l 444 606 l 601 606 q 646 566 646 606 q 601 525 646 525 l 444 525 l 444 457 q 583 472 494 464 q 606 475 594 473 q 628 476 617 476 q 670 433 670 476 q 654 403 670 414 q 685 361 686 393 l 680 293 l 1078 293 z "},"化":{"ha":1389,"x_min":75,"x_max":1309,"o":"m 511 1104 q 543 1059 543 1092 q 534 1023 543 1043 q 396 749 481 894 l 396 -58 q 339 -127 396 -127 q 282 -58 282 -127 l 282 571 q 178 441 225 492 q 127 416 156 416 q 92 430 107 416 q 75 467 75 446 q 95 513 75 488 q 283 776 194 625 q 429 1065 372 926 q 453 1097 437 1085 q 488 1108 469 1108 q 511 1104 499 1108 m 1308 195 q 1289 -12 1309 47 q 1210 -86 1268 -71 q 1001 -102 1152 -102 q 802 -95 865 -102 q 708 -62 739 -88 q 677 26 677 -35 l 677 1025 q 732 1092 677 1092 q 791 1025 791 1092 l 791 574 q 1164 833 971 680 q 1213 852 1190 852 q 1256 830 1238 852 q 1271 793 1271 811 q 1241 743 1271 766 q 791 469 1031 582 l 791 77 q 805 28 791 43 q 852 9 819 14 q 974 4 895 4 l 1017 4 q 1118 9 1085 5 q 1168 23 1152 12 q 1191 73 1183 34 q 1200 198 1199 113 q 1252 254 1203 254 q 1294 238 1280 254 q 1308 195 1308 222 z "},"北":{"ha":1389,"x_min":77,"x_max":1312,"o":"m 487 -130 q 430 -60 430 -130 l 430 138 l 414 130 q 130 -4 170 -4 q 77 61 77 -4 q 94 102 77 90 q 174 140 117 119 q 430 252 289 182 l 430 633 l 151 633 q 81 690 81 633 q 151 747 81 747 l 430 747 l 430 1027 q 487 1099 430 1099 q 544 1027 544 1099 l 544 -60 q 487 -130 544 -130 m 1023 -92 q 831 -83 868 -92 q 758 22 758 -65 l 758 1027 q 817 1099 758 1099 q 873 1027 873 1099 l 873 677 q 1143 833 1009 743 q 1204 859 1181 859 q 1270 798 1270 859 q 1249 762 1270 781 q 1184 715 1227 742 q 873 564 1104 666 l 873 90 q 925 20 873 27 l 1040 20 q 1169 50 1145 20 q 1190 176 1187 72 q 1249 232 1191 232 q 1312 170 1312 232 q 1213 -77 1312 -42 q 1023 -92 1172 -92 z "},"區":{"ha":1389,"x_min":138,"x_max":1314,"o":"m 273 -80 q 170 -49 202 -80 q 142 50 138 -18 l 142 922 q 174 1023 142 991 q 273 1051 205 1055 l 1225 1051 q 1287 1000 1287 1051 q 1225 949 1287 949 l 311 949 q 259 897 262 949 l 259 75 q 311 22 259 24 l 1251 22 q 1314 -30 1314 22 q 1251 -80 1314 -80 l 273 -80 m 533 529 q 450 554 476 529 q 427 635 425 579 l 427 764 q 452 848 427 822 q 533 871 477 873 l 1016 871 q 1100 845 1074 871 q 1123 762 1126 819 l 1123 636 q 1097 552 1123 578 q 1016 529 1072 526 l 533 529 m 975 621 q 1016 662 1013 621 l 1016 738 q 975 779 1016 776 l 570 779 q 530 739 533 779 l 530 661 q 570 621 530 624 l 975 621 m 433 95 q 328 198 328 95 l 328 354 q 433 457 328 457 l 644 457 q 747 354 747 457 l 747 198 q 644 95 747 95 l 433 95 m 911 95 q 808 198 808 95 l 808 354 q 911 457 808 457 l 1137 457 q 1238 353 1238 457 l 1238 199 q 1137 95 1238 95 l 911 95 m 613 186 q 651 225 648 186 l 651 327 q 613 365 651 362 l 464 365 q 426 327 427 365 l 426 225 q 464 186 426 187 l 613 186 m 1101 186 q 1139 225 1139 186 l 1139 327 q 1130 355 1139 346 q 1101 365 1120 363 l 944 365 q 906 327 906 365 l 906 225 q 944 186 906 189 l 1101 186 z "},"卑":{"ha":1389,"x_min":77,"x_max":1312,"o":"m 315 437 q 206 472 240 437 q 171 581 171 509 l 171 844 q 206 954 171 920 q 252 980 225 972 q 315 987 278 987 l 549 987 l 578 1061 q 603 1098 586 1084 q 643 1112 620 1112 q 689 1099 673 1112 q 705 1063 705 1085 q 671 987 705 1040 l 1073 987 q 1183 954 1150 987 q 1217 844 1217 918 l 1217 581 q 1183 472 1217 502 q 1078 437 1143 437 l 665 437 q 267 243 556 286 q 247 241 259 241 q 214 252 225 241 q 198 282 202 262 q 208 318 194 300 q 250 340 221 336 q 421 376 353 353 q 533 437 490 399 l 315 437 m 340 887 q 295 873 309 887 q 282 829 281 860 l 282 765 l 629 765 l 629 887 l 340 887 m 1105 829 q 1092 873 1105 860 q 1047 887 1078 887 l 738 887 l 738 765 l 1105 765 l 1105 829 m 282 597 q 296 551 282 566 q 340 537 309 537 l 601 537 q 627 666 620 590 l 282 666 l 282 597 m 1047 537 q 1091 551 1077 537 q 1105 597 1105 566 l 1105 666 l 736 666 q 715 537 732 593 l 1047 537 m 1253 227 q 1312 175 1312 227 q 1253 125 1312 125 l 864 125 l 864 -69 q 808 -130 864 -130 q 753 -69 753 -130 l 753 125 l 134 125 q 77 176 77 125 q 134 227 77 227 l 753 227 l 753 327 q 808 388 753 388 q 864 327 864 388 l 864 227 l 1253 227 z "},"卓":{"ha":1389,"x_min":76,"x_max":1312,"o":"m 1249 198 q 1312 146 1312 198 q 1249 96 1312 96 l 745 96 l 745 -71 q 689 -130 745 -130 q 632 -71 632 -130 l 632 96 l 138 96 q 76 146 76 96 q 138 198 76 198 l 632 198 l 632 304 l 339 304 q 239 330 271 298 q 213 429 208 362 l 213 688 q 239 786 208 754 q 339 812 271 818 l 613 812 l 613 1057 q 670 1108 613 1108 q 727 1057 727 1108 l 727 1013 l 1181 1013 q 1240 966 1240 1013 q 1181 917 1240 917 l 727 917 l 727 812 l 1051 812 q 1177 688 1185 822 l 1177 429 q 1147 329 1177 359 q 1051 304 1118 298 l 745 304 l 745 198 l 1249 198 m 326 605 l 1063 605 l 1063 674 q 1053 707 1063 697 q 1020 718 1043 716 l 369 718 q 337 707 347 718 q 326 674 327 697 l 326 605 m 326 442 q 336 410 326 419 q 369 399 347 400 l 1020 399 q 1053 409 1043 399 q 1063 442 1062 419 l 1063 515 l 326 515 l 326 442 z "},"南":{"ha":1389,"x_min":85,"x_max":1305,"o":"m 745 871 l 745 746 l 1115 746 q 1218 713 1181 746 q 1251 616 1251 685 l 1251 34 q 1214 -84 1251 -53 q 1095 -122 1168 -123 l 1010 -122 q 940 -62 940 -122 q 1010 -4 940 -4 l 1086 -4 q 1124 8 1112 -4 q 1138 47 1137 20 l 1138 586 q 1081 643 1138 640 l 944 643 l 914 477 l 998 477 q 1055 429 1055 477 q 998 381 1055 381 l 743 381 l 743 262 l 1021 262 q 1078 212 1078 262 q 1021 164 1078 164 l 743 164 l 743 -35 q 689 -100 743 -100 q 635 -35 635 -100 l 635 164 l 365 164 q 308 212 308 164 q 365 262 308 262 l 635 262 l 635 381 l 385 381 q 328 430 328 381 q 385 477 328 477 l 468 477 l 439 643 l 308 643 q 252 586 255 643 l 252 -57 q 195 -125 252 -125 q 138 -57 138 -125 l 138 610 q 171 713 138 677 q 274 746 202 749 l 632 746 l 632 871 l 148 871 q 85 924 85 871 q 148 975 85 975 l 632 975 l 632 1044 q 688 1101 632 1101 q 745 1044 745 1101 l 745 975 l 1241 975 q 1305 924 1305 975 q 1241 871 1305 871 l 745 871 m 841 643 l 541 643 l 572 479 l 810 479 l 841 643 z "},"原":{"ha":1389,"x_min":76,"x_max":1310,"o":"m 1204 401 q 1181 315 1210 343 q 1092 288 1153 288 l 868 288 l 868 -3 q 838 -101 868 -71 q 743 -127 808 -132 l 661 -127 q 595 -72 595 -127 q 650 -16 595 -16 l 715 -16 q 757 30 757 -16 l 757 288 l 524 288 q 433 315 461 288 q 411 400 406 342 l 411 697 q 524 810 400 814 l 703 810 l 738 945 l 342 945 q 297 925 304 945 q 289 834 289 905 l 289 632 q 283 367 289 477 q 254 144 277 256 q 183 -72 231 33 q 132 -110 165 -110 q 103 -102 118 -110 q 76 -57 76 -87 q 85 -19 76 -39 q 162 268 144 104 q 180 667 180 431 l 180 898 q 213 1011 180 975 q 315 1047 245 1047 l 1233 1047 q 1295 997 1295 1047 q 1233 945 1295 945 l 852 945 l 811 810 l 1092 810 q 1181 782 1153 810 q 1204 696 1210 754 l 1204 401 m 517 597 l 1099 597 l 1099 670 q 1088 701 1099 692 q 1057 712 1078 711 l 559 712 q 517 670 517 712 l 517 597 m 1057 385 q 1099 427 1099 385 l 1099 505 l 517 505 l 517 426 q 559 385 517 385 l 1057 385 m 1272 49 q 1310 -1 1310 20 q 1251 -66 1310 -66 q 1097 42 1206 -66 q 990 183 990 149 q 1004 219 990 208 q 1047 231 1017 231 q 1101 197 1072 231 q 1272 49 1157 133 m 551 229 q 608 180 608 229 q 505 34 608 137 q 406 -49 454 -16 q 339 -81 358 -81 q 283 -33 283 -81 q 297 3 283 -14 q 340 41 311 20 q 420 109 374 64 q 502 201 467 153 q 551 229 525 229 z "},"口":{"ha":1389,"x_min":174,"x_max":1215,"o":"m 331 1 q 210 38 247 1 q 174 160 174 75 l 174 815 q 210 937 174 901 q 331 974 247 974 l 1059 974 q 1179 937 1143 974 q 1215 815 1215 901 l 1215 160 q 1179 38 1215 75 q 1059 1 1143 1 l 331 1 m 1017 114 q 1077 136 1057 114 q 1097 197 1097 157 l 1097 781 q 1015 861 1097 861 l 372 861 q 312 840 332 861 q 292 779 292 818 l 292 194 q 313 134 292 155 q 374 114 335 114 l 1017 114 z "},"古":{"ha":1389,"x_min":75,"x_max":1316,"o":"m 380 -99 q 261 -64 297 -99 q 229 52 225 -28 l 229 316 q 264 434 229 397 q 380 467 300 471 l 636 467 l 636 705 l 142 705 q 91 719 107 705 q 75 760 75 732 q 91 800 75 787 q 142 814 107 814 l 636 814 l 636 1053 q 696 1115 636 1115 q 753 1053 753 1115 l 753 814 l 1246 814 q 1316 760 1316 814 q 1246 705 1316 705 l 753 705 l 753 467 l 1009 467 q 1128 431 1092 467 q 1160 316 1165 396 l 1160 52 q 1128 -66 1165 -30 q 1009 -99 1090 -103 l 380 -99 m 968 7 q 1030 22 1015 7 q 1046 85 1046 38 l 1046 282 q 1030 345 1046 330 q 968 361 1015 361 l 420 361 q 359 345 374 361 q 343 282 343 330 l 343 85 q 358 22 343 38 q 418 7 373 7 l 968 7 z "},"台":{"ha":1389,"x_min":87,"x_max":1309,"o":"m 1248 530 q 1160 602 1213 530 l 1134 635 l 149 579 q 102 593 118 578 q 87 637 87 608 q 130 690 87 680 l 202 694 l 305 696 q 481 1034 395 838 q 516 1086 496 1069 q 562 1103 536 1103 q 620 1051 620 1103 q 515 846 620 1016 l 423 700 q 1029 720 895 711 l 1055 722 q 911 863 959 829 q 868 922 868 892 q 880 959 868 947 q 920 971 892 971 q 1133 802 954 971 q 1309 585 1309 633 q 1248 530 1309 530 m 362 -94 q 246 -58 282 -94 q 216 53 210 -23 l 216 315 q 362 460 206 469 l 1028 460 q 1176 315 1187 469 l 1176 53 q 1028 -94 1185 -102 l 362 -94 m 987 11 q 1062 81 1062 11 l 1062 282 q 990 357 1062 357 l 404 357 q 331 285 331 357 l 331 84 q 401 11 331 11 l 987 11 z "},"吉":{"ha":1389,"x_min":80,"x_max":1309,"o":"m 218 533 q 173 545 187 533 q 159 583 159 557 q 173 621 159 609 q 218 633 187 633 l 628 633 l 628 830 l 142 830 q 95 842 110 830 q 80 882 80 854 q 95 920 80 907 q 142 932 110 932 l 628 932 l 628 1044 q 685 1101 628 1101 q 742 1044 742 1101 l 742 932 l 1245 932 q 1294 920 1279 932 q 1309 882 1309 907 q 1294 842 1309 854 q 1245 830 1279 830 l 742 830 l 742 633 l 1169 633 q 1216 621 1202 633 q 1230 583 1230 609 q 1216 545 1230 557 q 1169 533 1202 533 l 218 533 m 350 -81 q 245 -51 277 -81 q 218 49 213 -20 l 218 259 q 245 362 213 330 q 350 389 278 395 l 1040 389 q 1171 259 1180 399 l 1171 49 q 1040 -81 1180 -91 l 350 -81 m 990 18 q 1058 87 1058 18 l 1058 221 q 990 289 1058 290 l 397 289 q 330 221 330 289 l 330 87 q 397 18 330 16 l 990 18 z "},"同":{"ha":1389,"x_min":137,"x_max":1265,"o":"m 201 -130 q 142 -68 142 -130 l 142 892 q 174 1010 137 972 q 294 1043 212 1048 l 1103 1043 q 1223 1010 1185 1048 q 1255 892 1260 972 l 1255 28 q 1099 -125 1265 -134 l 1006 -125 q 956 -111 972 -125 q 940 -66 940 -96 q 1006 -8 940 -8 l 1093 -8 q 1128 5 1116 -8 q 1141 39 1141 18 l 1141 864 q 1070 935 1141 935 l 330 935 q 259 864 259 935 l 259 -68 q 201 -130 259 -130 m 400 697 q 346 746 346 697 q 400 795 346 795 l 1000 795 q 1053 746 1053 795 q 1000 697 1053 697 l 400 697 m 524 106 q 435 132 463 106 q 411 217 408 159 l 411 441 q 437 528 411 500 q 524 552 464 555 l 875 552 q 964 526 936 552 q 989 441 991 499 l 989 217 q 962 130 989 157 q 875 106 935 103 l 524 106 m 517 237 q 551 203 517 203 l 849 203 q 883 237 883 203 l 883 420 q 849 454 883 454 l 551 454 q 517 420 517 454 l 517 237 z "},"名":{"ha":1389,"x_min":80,"x_max":1230,"o":"m 483 -81 q 376 -50 410 -81 q 349 53 343 -18 l 349 327 q 127 239 152 239 q 80 296 80 239 q 171 366 80 334 q 541 537 384 444 q 400 651 509 575 q 369 694 369 674 q 427 746 369 746 q 514 701 453 746 l 643 600 q 894 785 812 712 l 951 833 q 967 857 967 845 q 947 875 967 875 l 475 875 q 259 686 336 736 q 137 623 163 623 q 91 675 91 623 q 110 715 91 700 l 109 715 l 202 779 q 503 1062 376 897 q 568 1101 534 1101 q 631 1061 631 1101 q 576 977 631 1036 l 1055 977 q 1127 961 1104 977 q 1150 914 1150 945 q 963 709 1150 865 q 582 449 783 560 l 585 439 l 1081 439 q 1219 302 1230 450 l 1219 54 q 1081 -81 1230 -92 l 483 -81 m 1042 19 q 1107 85 1107 19 l 1107 273 q 1042 338 1107 338 l 494 338 q 454 300 457 338 l 454 84 q 471 36 454 53 q 519 19 488 19 l 1042 19 z "},"后":{"ha":1389,"x_min":76,"x_max":1313,"o":"m 134 -99 q 90 -85 104 -99 q 76 -39 76 -71 q 83 -7 76 -31 q 106 49 91 16 q 203 665 199 252 l 203 868 q 241 982 203 952 q 518 1028 277 1009 q 863 1061 753 1046 q 1118 1101 1006 1080 l 1152 1104 q 1197 1091 1181 1105 q 1213 1048 1213 1077 q 1181 1003 1213 1021 q 1089 977 1150 985 q 438 918 757 933 q 343 905 374 914 q 313 850 313 895 l 316 738 l 1245 738 q 1313 682 1313 738 q 1245 628 1313 628 l 313 628 l 311 566 q 244 84 298 264 q 134 -99 189 -99 m 541 -90 q 401 50 392 -99 l 401 309 q 541 448 392 457 l 1065 448 q 1206 309 1217 457 l 1206 50 q 1065 -90 1217 -99 l 541 -90 m 1029 15 q 1093 80 1093 15 l 1093 279 q 1029 345 1093 345 l 574 345 q 511 279 511 345 l 511 80 q 574 15 511 15 l 1029 15 z "},"和":{"ha":1389,"x_min":75,"x_max":1274,"o":"m 475 632 l 475 477 q 514 505 486 505 q 550 481 524 505 q 614 412 576 457 q 677 334 658 362 q 697 290 697 305 q 646 240 697 240 q 585 294 616 240 q 502 407 556 345 q 475 449 488 422 l 475 -68 q 420 -133 475 -133 q 368 -68 368 -133 l 368 446 q 240 191 317 305 q 130 79 163 79 q 75 137 75 79 q 110 199 75 157 q 358 632 279 400 l 138 632 q 80 686 80 632 q 138 739 80 739 l 368 739 l 368 937 q 148 917 258 925 q 111 928 123 916 q 98 968 98 941 q 168 1019 98 1015 q 572 1084 418 1035 l 632 1100 q 689 1043 689 1100 q 648 989 689 1004 q 475 952 598 971 l 475 739 l 640 739 q 700 685 700 739 q 640 632 700 632 l 475 632 m 1124 955 q 1263 817 1274 966 l 1263 92 q 1230 -18 1263 16 q 1124 -46 1196 -52 l 869 -46 q 761 -13 795 -46 q 731 92 727 20 l 731 817 q 869 955 722 966 l 1124 955 m 1149 783 q 1089 842 1149 842 l 905 842 q 844 783 842 842 l 844 126 q 905 65 844 65 l 1089 65 q 1149 126 1149 65 l 1149 783 z "},"員":{"ha":1389,"x_min":81,"x_max":1310,"o":"m 358 755 q 272 781 298 755 q 245 865 245 807 l 245 958 q 272 1041 245 1016 q 358 1066 298 1066 l 1050 1066 q 1135 1040 1109 1066 q 1161 958 1161 1015 l 1161 865 q 1135 781 1161 807 q 1050 755 1109 755 l 358 755 m 1004 845 q 1046 887 1046 845 l 1046 933 q 1004 977 1046 977 l 404 977 q 362 933 362 977 l 362 887 q 404 845 362 845 l 1004 845 m 308 87 q 219 114 247 87 q 191 202 191 141 l 191 566 q 219 654 191 627 q 308 681 247 681 l 1097 681 q 1185 654 1158 681 q 1213 566 1213 627 l 1213 202 q 1185 114 1213 141 q 1097 87 1158 87 l 308 87 m 1099 551 q 1057 591 1099 591 l 346 591 q 305 551 305 591 l 305 510 l 1099 510 l 1099 551 m 1099 346 l 1099 426 l 305 426 l 305 346 l 1099 346 m 1057 176 q 1099 218 1099 176 l 1099 262 l 305 262 l 305 218 q 346 176 305 176 l 1057 176 m 148 -126 q 81 -75 81 -132 q 126 -23 81 -30 q 510 68 365 11 q 529 72 521 72 q 570 47 555 72 q 576 22 576 34 q 570 -3 576 8 q 549 -22 563 -15 q 363 -89 469 -62 q 148 -126 256 -115 m 1255 -125 q 1067 -85 1210 -125 q 871 -23 903 -41 q 842 -2 850 -12 q 833 23 833 8 q 844 54 833 41 q 879 68 856 68 q 901 65 892 68 q 1255 -18 1072 14 q 1310 -68 1310 -28 q 1255 -125 1310 -125 z "},"善":{"ha":1389,"x_min":79,"x_max":1310,"o":"m 1255 396 q 1310 350 1310 396 q 1255 304 1310 304 l 134 304 q 79 350 79 304 q 134 396 79 396 l 392 396 l 366 471 l 363 487 q 373 511 363 502 l 155 511 q 103 557 103 511 q 155 604 103 604 l 637 604 l 637 696 l 256 696 q 206 742 206 696 q 256 787 206 787 l 637 787 l 637 872 l 165 872 q 114 918 114 872 q 165 963 114 963 l 401 963 l 381 1020 q 373 1043 378 1029 q 368 1065 368 1057 q 425 1107 368 1107 q 524 963 475 1107 l 860 963 l 883 1028 q 910 1092 901 1081 q 958 1108 922 1108 q 1016 1062 1016 1108 q 1006 1026 1016 1053 q 975 963 996 1000 l 1225 963 q 1275 917 1275 963 q 1225 872 1275 872 l 745 872 l 745 787 l 1134 787 q 1183 742 1183 787 q 1134 696 1183 696 l 745 696 l 745 604 l 1233 604 q 1284 557 1284 604 q 1233 511 1284 511 l 1024 511 q 1031 488 1031 502 q 1022 454 1031 479 q 1000 396 1013 430 l 1255 396 m 505 396 l 890 396 l 917 480 q 935 511 924 500 l 460 511 q 483 468 473 498 l 505 396 m 1069 233 q 1196 110 1204 244 l 1196 26 q 1166 -69 1196 -34 q 1069 -99 1131 -99 l 324 -99 q 197 26 189 -110 l 197 110 q 227 208 197 178 q 324 233 258 239 l 1069 233 m 1031 -4 q 1082 46 1084 -4 l 1082 91 q 1031 141 1082 142 l 362 141 q 311 91 309 141 l 311 46 q 362 -4 311 -5 l 1031 -4 z "},"嘉":{"ha":1389,"x_min":72,"x_max":1318,"o":"m 140 922 q 85 968 85 922 q 140 1015 85 1015 l 629 1015 l 629 1061 q 689 1115 629 1115 q 747 1061 747 1115 l 747 1015 l 1248 1015 q 1303 968 1303 1015 q 1248 922 1303 922 l 747 922 l 747 860 l 1202 860 q 1257 812 1257 860 q 1202 768 1257 768 l 186 768 q 130 812 130 768 q 186 860 130 860 l 629 860 l 629 922 l 140 922 m 1260 381 q 1318 331 1318 381 q 1260 283 1318 283 l 465 283 l 465 266 q 454 202 464 241 l 610 202 q 712 110 712 202 q 671 -62 712 -4 q 500 -123 631 -123 q 435 -71 435 -123 q 483 -19 435 -19 l 533 -19 q 608 85 608 -19 q 574 110 608 110 l 433 110 q 302 -62 395 4 q 123 -132 208 -132 q 72 -80 72 -132 q 144 -23 72 -45 q 262 31 217 -3 q 328 110 305 65 l 186 110 q 132 156 132 110 q 186 202 132 202 l 353 202 q 368 273 361 233 l 370 283 l 130 283 q 72 331 72 283 q 130 381 72 381 l 406 381 l 392 456 l 308 456 q 226 479 252 456 q 201 553 199 503 l 201 617 q 308 712 201 716 l 1080 712 q 1187 617 1192 712 l 1187 553 q 1161 478 1187 502 q 1080 456 1135 454 l 991 456 l 971 381 l 1260 381 m 316 567 q 351 540 316 543 l 1036 540 q 1072 567 1069 540 l 1072 602 q 1036 628 1072 625 l 351 628 q 316 602 317 628 l 316 567 m 502 456 l 519 381 l 857 381 l 875 456 l 502 456 m 1139 233 q 1225 208 1199 233 q 1248 125 1252 182 l 1248 4 q 1222 -83 1248 -56 q 1139 -106 1196 -110 l 864 -106 q 779 -80 806 -106 q 755 4 751 -54 l 755 125 q 782 210 755 183 q 864 233 808 237 l 1139 233 m 1138 106 q 1100 142 1138 140 l 903 142 q 867 106 869 142 l 867 22 q 903 -15 867 -12 l 1100 -15 q 1127 -5 1118 -15 q 1138 22 1137 5 l 1138 106 z "},"四":{"ha":1389,"x_min":132,"x_max":1256,"o":"m 1105 1008 q 1221 973 1187 1008 q 1256 859 1256 939 l 1256 90 q 1221 -25 1256 9 q 1105 -60 1185 -60 l 282 -60 q 166 -25 201 -60 q 132 90 132 9 l 132 859 q 166 974 132 940 q 282 1008 201 1008 l 1105 1008 m 1139 811 q 1122 878 1139 861 q 1051 895 1104 895 l 848 895 l 848 416 q 910 370 848 370 q 982 384 966 370 q 997 458 996 395 q 1042 519 1000 519 q 1093 464 1093 519 q 1067 316 1093 363 q 937 264 1040 264 q 823 271 868 264 q 765 288 779 277 q 739 359 739 308 l 739 895 l 583 895 q 563 483 583 602 q 475 304 544 376 q 361 231 404 231 q 307 290 307 231 q 354 354 307 316 q 429 446 401 393 q 467 578 458 503 q 473 895 473 640 l 336 895 q 266 878 283 895 q 248 808 248 860 l 248 137 q 266 70 248 87 q 336 53 283 53 l 1054 53 q 1122 71 1105 53 q 1139 140 1139 88 l 1139 811 z "},"國":{"ha":1389,"x_min":127,"x_max":1261,"o":"m 267 -114 q 160 -81 193 -114 q 127 26 127 -49 l 127 920 q 161 1027 127 994 q 267 1061 194 1061 l 1122 1061 q 1229 1027 1196 1061 q 1261 920 1261 994 l 1261 26 q 1228 -81 1261 -49 q 1122 -114 1195 -114 l 267 -114 m 1082 -15 q 1154 57 1154 -15 l 1154 891 q 1082 962 1154 962 l 307 962 q 235 891 235 962 l 235 57 q 307 -15 235 -15 l 1082 -15 m 991 806 q 967 814 977 806 q 937 849 958 823 q 910 901 910 883 q 922 929 910 920 q 955 939 935 939 q 1008 902 975 939 q 1040 846 1040 865 q 991 806 1040 806 m 629 24 q 583 73 583 24 q 601 104 583 87 q 644 134 618 121 q 806 258 741 183 q 723 689 735 427 l 327 689 q 281 700 296 689 q 266 736 266 711 q 281 774 266 762 q 327 787 296 787 l 716 787 l 716 859 q 766 920 716 920 q 803 901 791 920 q 815 846 815 882 l 815 787 l 1055 787 q 1101 774 1086 787 q 1116 736 1116 762 q 1101 700 1116 711 q 1055 689 1086 689 l 821 689 q 836 484 823 562 q 873 357 849 407 q 963 563 913 422 q 1012 610 979 610 q 1054 600 1040 610 q 1067 566 1067 590 q 1019 439 1067 547 q 918 258 967 323 l 918 256 q 969 182 944 210 q 1010 153 994 153 q 1034 179 1023 153 q 1051 250 1046 205 q 1064 279 1054 269 q 1090 290 1074 290 q 1133 245 1133 290 q 1103 103 1133 171 q 1024 30 1072 30 q 854 172 940 30 l 850 172 q 796 117 825 140 q 728 71 768 94 q 663 35 684 45 q 629 24 643 24 m 408 321 q 312 415 312 321 l 312 532 q 408 624 312 624 l 575 624 q 646 602 623 624 q 669 532 669 579 l 669 415 q 575 321 669 321 l 408 321 m 545 406 q 576 438 576 406 l 576 507 q 570 532 576 525 q 545 540 563 540 l 439 540 q 407 507 407 540 l 407 438 q 439 406 407 406 l 545 406 m 304 110 q 272 122 282 110 q 262 161 262 134 q 281 199 262 189 q 396 224 298 210 q 464 235 425 227 q 518 247 503 244 l 586 262 l 650 275 l 681 282 q 709 274 700 286 q 719 240 719 262 q 711 216 719 227 q 689 203 703 206 l 669 197 q 597 175 652 191 q 549 163 581 170 q 499 151 518 156 l 430 136 q 304 110 316 110 z "},"圍":{"ha":1389,"x_min":133,"x_max":1275,"o":"m 1124 1065 q 1240 1029 1204 1065 q 1275 914 1275 994 l 1275 64 q 1240 -51 1275 -16 q 1124 -85 1204 -85 l 283 -85 q 168 -51 202 -85 q 133 64 133 -16 l 133 914 q 168 1029 133 994 q 283 1065 203 1065 l 1124 1065 m 1164 906 q 1097 971 1164 971 l 309 971 q 244 906 244 971 l 244 75 q 308 9 244 9 l 1099 9 q 1164 75 1164 9 l 1164 906 m 1099 742 q 1129 733 1120 742 q 1138 704 1138 724 q 1099 666 1138 666 l 309 666 q 279 675 288 666 q 270 705 270 685 q 309 742 270 742 l 515 742 l 533 802 l 380 802 q 347 812 357 802 q 336 842 336 822 q 347 870 336 861 q 380 879 357 879 l 557 879 l 563 901 q 617 955 578 955 q 654 945 640 955 q 667 917 667 935 q 665 902 667 913 l 658 879 l 909 879 q 997 792 997 879 l 997 742 l 1099 742 m 902 769 q 867 802 902 799 l 631 802 l 613 742 l 902 742 l 902 769 m 1088 208 q 1118 199 1109 208 q 1127 170 1127 190 q 1118 139 1127 148 q 1088 130 1109 130 l 812 130 l 812 71 q 800 38 812 50 q 764 26 788 26 q 727 38 739 26 q 715 71 715 50 l 715 130 l 437 130 q 413 85 427 100 q 382 69 399 69 q 348 79 358 69 q 338 107 338 88 l 350 157 l 377 232 q 420 270 391 270 q 454 260 444 270 q 465 225 465 250 l 463 208 l 715 208 l 715 277 l 351 277 q 319 286 330 277 q 309 315 309 296 q 351 354 309 354 l 715 354 l 715 407 l 446 407 q 363 487 363 407 l 363 534 q 449 614 363 614 l 954 614 q 1038 534 1035 614 l 1038 487 q 956 407 1038 407 l 812 407 l 812 354 l 1028 354 q 1063 345 1053 354 q 1073 315 1073 335 q 1028 277 1073 277 l 812 277 l 812 208 l 1088 208 m 454 510 q 460 486 454 492 q 477 479 465 479 l 924 479 q 941 486 936 479 q 947 510 947 492 q 941 534 947 528 q 924 541 936 541 l 477 541 q 460 534 465 541 q 454 510 454 528 z "},"園":{"ha":1389,"x_min":127,"x_max":1264,"o":"m 1120 1055 q 1230 1021 1196 1055 q 1264 907 1264 986 l 1264 28 q 1230 -83 1264 -49 q 1120 -118 1196 -118 l 271 -118 q 161 -83 195 -118 q 127 28 127 -49 l 127 907 q 161 1021 127 986 q 271 1055 195 1055 l 1120 1055 m 1154 890 q 1085 958 1154 958 l 307 958 q 237 890 237 958 l 237 49 q 307 -19 237 -19 l 1085 -19 q 1154 50 1154 -19 l 1154 890 m 1063 693 q 1111 652 1111 693 q 1063 610 1111 610 l 327 610 q 282 652 282 610 q 327 693 282 693 l 642 693 l 642 766 l 389 766 q 345 807 345 766 q 389 848 345 848 l 642 848 l 642 888 q 694 936 642 936 q 734 924 720 936 q 749 888 749 911 l 749 848 l 1002 848 q 1047 807 1047 848 q 1002 766 1047 766 l 749 766 l 749 693 l 1063 693 m 716 148 q 728 149 720 149 q 758 138 747 149 q 769 109 769 127 q 759 83 769 94 q 731 66 749 72 q 585 35 666 47 q 484 19 503 22 q 437 12 471 18 q 419 11 430 11 q 370 57 370 11 q 416 99 370 94 q 521 114 446 103 l 521 224 q 347 149 439 182 q 321 144 335 144 q 290 156 301 144 q 278 189 278 168 q 313 229 278 218 q 560 328 479 281 l 461 328 q 395 351 418 328 q 372 416 372 374 l 372 479 q 393 539 372 518 q 453 560 414 560 l 930 560 q 997 538 974 560 q 1020 473 1020 517 l 1020 416 q 929 328 1020 328 l 678 328 q 612 277 652 305 l 612 129 l 716 148 m 472 445 q 503 407 472 407 l 887 407 q 910 415 902 407 q 918 445 918 423 q 887 481 918 481 l 503 481 q 472 445 472 481 m 1062 118 q 1092 72 1092 96 q 1085 47 1092 61 q 1046 23 1072 23 q 1013 34 1031 23 q 718 205 852 138 q 690 243 690 220 q 702 272 690 262 q 731 282 713 282 q 751 278 742 282 q 876 224 806 258 q 983 305 940 267 q 1012 316 997 316 q 1046 298 1034 316 q 1055 271 1055 285 q 1035 235 1055 248 q 955 184 1005 213 q 1062 118 994 164 z "},"圖":{"ha":1389,"x_min":127,"x_max":1264,"o":"m 271 -114 q 161 -79 195 -114 q 127 33 127 -45 l 127 907 q 161 1021 127 986 q 271 1055 195 1055 l 1120 1055 q 1230 1021 1196 1055 q 1264 907 1264 986 l 1264 33 q 1230 -79 1264 -45 q 1120 -114 1196 -114 l 271 -114 m 1085 -19 q 1154 50 1154 -19 l 1154 892 q 1085 960 1154 960 l 307 960 q 237 892 237 960 l 237 49 q 307 -19 237 -19 l 1085 -19 m 312 541 q 264 583 264 541 q 312 624 264 624 l 647 624 l 647 681 l 454 681 q 354 762 354 681 l 354 818 q 380 881 354 860 q 454 899 406 902 l 945 899 q 1046 812 1046 899 l 1046 765 q 945 681 1046 681 l 749 681 l 749 624 l 1089 624 q 1137 582 1137 624 q 1089 541 1137 541 l 312 541 m 922 755 q 939 762 935 755 q 944 789 944 769 q 939 817 944 810 q 922 823 935 823 l 477 823 q 460 817 465 823 q 456 789 456 810 q 460 762 456 769 q 477 755 465 755 l 922 755 m 426 52 q 343 76 369 52 q 320 155 317 100 l 320 391 q 345 471 320 446 q 426 492 370 495 l 972 492 q 1055 468 1028 492 q 1078 391 1081 444 l 1078 155 q 1053 74 1078 99 q 972 52 1028 49 l 426 52 m 945 127 q 982 167 982 127 l 982 380 q 945 416 982 416 l 453 416 q 416 380 416 416 l 416 167 q 453 127 416 127 l 945 127 m 567 175 q 486 247 486 175 l 486 296 q 566 369 486 369 l 830 369 q 911 296 911 369 l 911 247 q 833 175 911 175 l 567 175 m 806 244 q 823 250 818 244 q 827 271 827 255 q 823 293 827 288 q 806 298 818 298 l 591 298 q 574 293 579 298 q 570 271 570 288 q 574 250 570 255 q 591 244 579 244 l 806 244 z "},"土":{"ha":1389,"x_min":83,"x_max":1306,"o":"m 155 -53 q 83 5 83 -53 q 155 62 83 62 l 628 62 l 628 591 l 214 591 q 141 650 141 591 q 214 708 141 708 l 628 708 l 628 1029 q 689 1099 628 1099 q 747 1029 747 1099 l 747 708 l 1175 708 q 1246 650 1246 708 q 1175 591 1246 591 l 747 591 l 747 62 l 1233 62 q 1306 5 1306 62 q 1233 -53 1306 -53 l 155 -53 z "},"地":{"ha":1389,"x_min":75,"x_max":1313,"o":"m 922 -94 q 684 -83 755 -94 q 575 39 575 -66 l 575 521 q 460 480 476 480 q 427 492 438 480 q 416 533 416 505 q 461 589 416 572 l 575 633 l 575 933 q 627 993 575 993 q 680 933 680 993 l 680 675 l 848 742 l 848 1046 q 899 1104 848 1104 q 952 1046 952 1104 l 952 784 l 1101 842 q 1169 859 1145 859 q 1256 747 1256 859 l 1256 437 q 1057 232 1256 232 q 1004 294 1004 232 q 1062 349 1004 336 q 1135 381 1126 361 q 1146 435 1145 401 l 1146 688 q 1112 730 1146 730 l 1092 726 l 952 670 l 952 178 q 901 118 952 118 q 848 178 848 118 l 848 628 l 680 563 l 680 75 q 715 24 680 39 q 963 11 746 11 q 1160 33 1130 11 q 1194 104 1191 54 q 1213 174 1195 155 q 1253 193 1229 193 q 1313 130 1313 193 q 1236 -65 1313 -30 q 922 -94 1175 -94 m 133 47 q 75 102 75 47 q 89 144 75 129 q 133 167 103 160 l 248 194 l 248 673 l 137 673 q 80 726 80 673 q 137 777 80 777 l 248 777 l 248 1039 q 301 1097 248 1097 q 353 1039 353 1097 l 353 777 l 448 777 q 506 726 506 777 q 448 673 506 673 l 353 673 l 353 222 q 437 245 373 228 q 464 250 453 250 q 493 239 483 250 q 507 208 503 229 q 509 193 509 202 q 495 158 509 171 q 450 134 481 145 q 133 47 186 47 z "},"坑":{"ha":1389,"x_min":75,"x_max":1312,"o":"m 130 90 q 75 152 75 90 q 85 189 75 175 q 119 209 96 202 l 255 241 l 255 678 l 138 678 q 79 731 79 678 q 138 785 79 785 l 255 785 l 255 1036 q 309 1104 255 1104 q 365 1036 365 1104 l 365 785 l 457 785 q 519 731 519 785 q 457 678 519 678 l 365 678 l 365 269 l 437 289 q 477 297 469 297 q 525 244 525 297 q 491 194 525 208 q 410 168 488 193 l 304 137 q 130 90 145 90 m 545 800 q 484 854 484 800 q 545 907 484 907 l 798 907 l 798 1029 q 853 1100 798 1100 q 910 1029 910 1100 l 910 907 l 1232 907 q 1293 853 1293 907 q 1232 800 1293 800 l 545 800 m 425 -118 q 372 -60 372 -118 q 385 -28 372 -42 q 425 -1 397 -15 q 579 140 532 52 q 632 442 624 221 q 642 589 636 572 q 746 652 665 656 l 977 652 q 1065 625 1038 652 q 1090 537 1093 598 l 1090 56 q 1130 14 1090 14 q 1175 16 1160 14 q 1196 27 1191 19 q 1211 125 1210 46 q 1260 198 1214 198 q 1299 184 1286 198 q 1312 137 1312 171 q 1289 -41 1310 0 q 1124 -87 1264 -87 q 1002 -58 1023 -87 q 983 3 983 -30 l 983 498 q 936 545 983 543 l 787 545 q 745 528 749 545 q 736 419 738 492 q 680 99 731 217 q 500 -88 631 -18 q 425 -118 445 -118 z "},"坪":{"ha":1389,"x_min":76,"x_max":1312,"o":"m 457 248 q 507 197 507 248 q 483 146 507 161 q 349 99 458 132 l 152 49 l 127 46 q 76 104 76 41 q 89 144 76 129 q 130 165 102 159 q 245 195 217 187 l 245 673 l 137 673 q 80 726 80 673 q 137 777 80 777 l 245 777 l 245 1039 q 301 1100 245 1100 q 355 1039 355 1100 l 355 777 l 448 777 q 506 726 506 777 q 448 673 506 673 l 355 673 l 355 224 l 427 241 l 457 248 m 1245 439 q 1312 385 1312 439 q 1245 332 1312 332 l 935 332 l 935 -64 q 879 -130 935 -130 q 825 -64 825 -130 l 825 332 l 534 332 q 469 387 469 332 q 534 439 469 439 l 825 439 l 825 937 l 572 937 q 506 991 506 937 q 572 1044 506 1044 l 1221 1044 q 1284 991 1284 1044 q 1221 937 1284 937 l 935 937 l 935 439 l 1245 439 m 1169 841 q 1222 791 1222 841 q 1165 593 1222 761 q 1137 540 1153 556 q 1100 524 1122 524 q 1048 574 1048 524 q 1067 637 1048 589 q 1103 755 1084 681 q 1134 830 1119 818 q 1169 841 1147 841 m 663 538 q 605 616 625 538 l 564 746 q 555 774 560 761 q 551 792 551 788 q 602 838 551 838 q 661 774 635 838 q 703 661 692 697 q 718 593 718 609 q 663 538 718 538 z "},"城":{"ha":1389,"x_min":75,"x_max":1314,"o":"m 735 -123 q 681 -64 681 -123 q 742 1 681 -34 q 962 183 871 76 q 887 773 899 382 l 642 773 q 593 731 593 773 l 595 597 l 732 597 q 837 491 837 597 q 799 123 837 189 q 648 60 762 60 q 593 118 593 60 q 652 167 593 163 q 715 191 705 171 q 738 448 732 225 q 697 492 739 492 l 595 492 q 567 174 595 279 q 468 -20 536 56 q 357 -99 399 -99 q 301 -41 301 -99 q 361 35 301 -18 q 463 187 429 96 q 491 541 494 270 l 491 760 q 612 884 491 884 l 883 884 l 880 1034 q 937 1105 879 1105 q 986 1076 977 1105 q 991 884 991 1059 l 1241 884 q 1309 829 1309 884 q 1241 773 1309 773 l 993 773 q 1036 293 1000 449 q 1168 610 1114 438 q 1210 652 1180 652 q 1271 604 1271 652 q 1204 411 1271 567 q 1076 168 1139 259 q 1188 18 1145 18 q 1219 144 1215 18 q 1264 217 1222 217 q 1314 160 1314 217 q 1206 -122 1314 -122 q 1005 79 1114 -122 q 860 -53 940 9 q 735 -123 766 -123 m 132 81 q 75 140 75 81 q 142 206 75 189 l 243 235 l 243 678 l 144 678 q 79 731 79 678 q 144 785 79 785 l 243 785 l 243 1038 q 296 1099 243 1099 q 350 1038 350 1099 l 350 785 l 407 785 q 473 731 473 785 q 407 678 473 678 l 350 678 l 350 271 q 404 289 400 289 q 460 236 460 289 q 429 186 460 201 q 212 104 396 171 l 148 84 l 132 81 m 1160 917 q 1095 971 1135 917 l 1072 997 q 1051 1038 1051 1021 q 1103 1082 1051 1082 q 1177 1027 1128 1082 q 1217 964 1217 983 q 1160 917 1217 917 z "},"埔":{"ha":1389,"x_min":75,"x_max":1314,"o":"m 944 830 l 944 718 l 1135 718 q 1231 688 1200 718 q 1257 595 1261 659 l 1257 23 q 1226 -81 1257 -47 q 1126 -109 1195 -114 l 1067 -109 q 1005 -52 1005 -109 q 1059 7 1005 7 l 1101 7 q 1136 17 1126 7 q 1147 52 1146 27 l 1147 187 l 944 187 l 944 -73 q 930 -121 944 -104 q 890 -137 916 -137 q 850 -121 864 -137 q 836 -73 836 -104 l 836 187 l 642 187 l 642 -49 q 627 -97 642 -80 q 587 -114 613 -114 q 547 -97 562 -114 q 533 -49 533 -80 l 533 595 q 562 691 533 661 q 656 718 591 722 l 836 718 l 836 830 l 548 830 q 486 879 486 830 q 548 929 486 929 l 836 929 l 836 1046 q 891 1109 836 1109 q 944 1046 944 1109 l 944 929 l 1253 929 q 1314 880 1314 929 q 1253 830 1314 830 l 944 830 m 438 776 q 500 722 500 776 q 438 667 500 667 l 350 667 l 350 244 l 404 260 l 435 267 q 486 214 486 267 q 444 159 486 172 q 132 68 176 68 q 75 127 75 68 q 130 187 75 178 l 239 214 l 243 214 l 243 667 l 141 667 q 81 722 81 667 q 141 776 81 776 l 243 776 l 243 1038 q 297 1099 243 1099 q 350 1038 350 1099 l 350 776 l 438 776 m 1095 993 q 1040 1055 1040 1039 q 1090 1099 1040 1099 q 1168 1057 1116 1099 q 1221 994 1221 1015 q 1169 945 1221 945 q 1095 993 1153 945 m 836 616 l 680 616 q 642 578 644 616 l 642 500 l 836 500 l 836 616 m 944 616 l 944 500 l 1147 500 l 1147 578 q 1138 606 1147 597 q 1109 616 1128 614 l 944 616 m 836 285 l 836 403 l 642 403 l 642 285 l 836 285 m 1147 285 l 1147 403 l 944 403 l 944 285 l 1147 285 z "},"埕":{"ha":1389,"x_min":75,"x_max":1314,"o":"m 110 104 q 84 121 94 107 q 75 161 75 136 q 151 228 75 208 l 240 256 l 240 678 l 138 678 q 79 731 79 678 q 138 785 79 785 l 240 785 l 240 1031 q 294 1099 240 1099 q 349 1031 349 1099 l 349 785 l 441 785 q 503 731 503 785 q 441 678 503 678 l 349 678 l 349 297 l 456 336 l 471 339 q 508 330 494 343 q 522 290 522 316 q 483 237 522 254 q 198 118 297 157 q 110 104 152 100 m 663 606 q 569 633 598 606 q 544 722 540 661 l 544 921 q 572 1012 544 983 q 663 1036 601 1040 l 1109 1036 q 1205 1009 1176 1036 q 1230 921 1234 982 l 1230 722 q 1202 630 1230 658 q 1109 606 1173 602 l 663 606 m 1074 704 q 1122 749 1120 704 l 1122 894 q 1074 939 1122 936 l 700 939 q 652 894 655 939 l 652 749 q 700 704 652 707 l 1074 704 m 498 -76 q 456 -63 471 -76 q 441 -26 441 -50 q 498 23 441 23 l 830 23 l 830 183 l 602 183 q 548 231 548 183 q 602 278 548 278 l 830 278 l 830 418 q 601 403 716 407 q 551 415 568 401 q 534 456 534 429 q 553 494 534 483 q 665 509 576 507 q 1138 551 939 517 l 1156 553 q 1199 542 1184 557 q 1214 498 1214 526 q 1154 450 1214 464 q 943 426 1133 445 l 943 278 l 1181 278 q 1233 231 1233 278 q 1181 183 1233 183 l 943 183 l 943 23 l 1257 23 q 1314 -27 1314 23 q 1257 -76 1314 -76 l 498 -76 z "},"埤":{"ha":1389,"x_min":75,"x_max":1314,"o":"m 684 448 q 576 479 609 448 q 548 579 543 510 l 548 842 q 684 974 538 985 l 758 974 l 789 1046 q 821 1093 804 1081 q 861 1105 837 1105 q 917 1063 917 1105 q 868 974 917 1046 l 1119 974 q 1255 842 1265 983 l 1255 579 q 1119 448 1264 439 l 876 448 q 743 323 817 369 q 618 274 663 274 q 578 320 578 274 q 633 366 578 347 q 764 448 719 396 l 684 448 m 458 328 q 494 318 481 332 q 506 278 506 304 q 467 225 506 241 q 227 132 361 179 l 172 113 q 132 102 144 102 q 75 161 75 102 q 151 228 75 208 l 240 259 l 240 678 l 138 678 q 79 731 79 678 q 138 785 79 785 l 240 785 l 240 1031 q 294 1099 240 1099 q 349 1031 349 1099 l 349 785 l 441 785 q 503 731 503 785 q 441 678 503 678 l 349 678 l 349 289 l 444 326 l 458 328 m 705 882 q 654 831 652 882 l 654 757 l 845 757 l 845 882 l 705 882 m 941 757 l 1149 757 l 1149 831 q 1137 869 1149 857 q 1097 882 1124 882 l 941 882 l 941 757 m 817 540 q 841 671 833 586 l 654 671 l 654 590 q 705 540 654 538 l 817 540 m 937 671 q 916 540 932 604 l 1097 540 q 1149 590 1150 540 l 1149 671 l 937 671 m 1249 259 q 1314 208 1314 259 q 1249 155 1314 155 l 1024 155 l 1024 -75 q 968 -133 1024 -133 q 916 -75 916 -133 l 916 155 l 568 155 q 503 206 503 155 q 568 259 503 259 l 916 259 l 916 354 q 968 412 916 412 q 1024 354 1024 412 l 1024 259 l 1249 259 z "},"基":{"ha":1389,"x_min":75,"x_max":1314,"o":"m 125 79 q 75 136 75 79 q 129 198 75 171 q 342 395 247 258 l 144 395 q 88 441 88 395 q 144 488 88 488 l 334 488 l 334 890 l 186 890 q 130 937 130 890 q 186 983 130 983 l 334 983 l 334 1039 q 389 1105 334 1105 q 444 1039 444 1105 l 444 983 l 944 983 l 944 1039 q 1000 1105 944 1105 q 1054 1039 1054 1105 l 1054 983 l 1203 983 q 1257 936 1257 983 q 1203 890 1257 890 l 1054 890 l 1054 488 l 1246 488 q 1299 441 1299 488 q 1286 407 1299 418 q 1246 395 1274 396 l 1038 395 q 1271 203 1133 267 q 1314 146 1314 183 q 1260 88 1314 88 q 1118 170 1222 88 q 918 395 1009 255 l 465 395 q 269 164 370 248 q 125 79 167 79 m 944 811 l 944 890 l 444 890 l 444 811 l 944 811 m 944 652 l 944 732 l 444 732 l 444 652 l 944 652 m 944 488 l 944 574 l 444 574 l 444 488 l 944 488 m 217 -90 q 161 -39 161 -90 q 217 8 161 8 l 633 8 l 633 145 l 397 145 q 345 191 345 145 q 397 239 345 239 l 633 239 l 633 304 q 690 369 633 369 q 745 304 745 369 l 745 239 l 985 239 q 1039 191 1039 239 q 985 145 1039 145 l 745 145 l 745 8 l 1171 8 q 1227 -41 1227 8 q 1171 -90 1227 -90 l 217 -90 z "},"堵":{"ha":1389,"x_min":75,"x_max":1314,"o":"m 750 -94 q 656 -66 685 -94 q 631 26 627 -38 l 631 377 q 481 300 503 300 q 441 313 454 300 q 429 353 429 326 q 476 406 429 385 q 791 600 598 457 l 547 600 q 486 648 486 600 q 547 699 486 699 l 760 699 l 760 849 l 589 849 q 528 899 528 849 q 589 948 528 948 l 760 948 l 760 1054 q 814 1105 760 1105 q 867 1054 867 1105 l 867 948 l 1000 948 q 1061 898 1061 948 q 1000 849 1061 849 l 867 849 l 867 699 l 910 699 q 1146 971 1044 818 q 1213 1024 1181 1024 q 1268 972 1268 1024 q 1213 873 1268 940 q 1046 699 1158 806 l 1255 699 q 1314 648 1314 699 q 1255 600 1314 600 l 933 600 l 789 488 l 1108 488 q 1202 460 1173 488 q 1227 369 1232 431 l 1227 26 q 1200 -68 1227 -39 q 1108 -94 1172 -98 l 750 -94 m 133 46 q 75 102 75 46 q 129 163 75 149 l 247 191 l 247 671 l 137 671 q 79 726 79 671 q 137 779 79 779 l 247 779 l 247 1039 q 301 1099 247 1099 q 354 1039 354 1099 l 354 779 l 431 779 q 490 726 490 779 q 431 671 490 671 l 354 671 l 354 220 l 437 243 l 457 247 q 509 193 509 247 q 446 133 509 159 q 240 71 392 111 l 133 46 m 1120 351 q 1109 382 1120 372 q 1077 395 1097 393 l 764 395 q 736 366 736 395 l 736 248 l 1120 248 l 1120 351 m 1077 4 q 1120 46 1119 4 l 1120 155 l 736 155 l 736 46 q 747 15 736 24 q 780 4 757 5 l 1077 4 z "},"塘":{"ha":1389,"x_min":75,"x_max":1317,"o":"m 646 875 q 593 821 591 875 l 593 578 q 521 75 593 248 q 384 -94 450 -94 q 328 -35 328 -94 q 350 11 328 -18 q 465 247 439 125 q 491 582 491 368 l 491 865 q 605 972 491 972 l 838 972 l 838 1054 q 897 1107 838 1107 q 955 1054 955 1107 l 955 972 l 1255 972 q 1314 924 1314 972 q 1255 875 1314 875 l 646 875 m 456 248 q 437 214 456 222 q 397 193 430 212 q 297 146 363 175 q 129 87 161 87 q 75 146 75 87 q 136 209 75 187 l 237 240 l 237 669 l 140 669 q 80 723 80 669 q 140 776 80 776 l 237 776 l 237 1032 q 292 1099 237 1099 q 345 1032 345 1099 l 345 776 l 412 776 q 472 723 472 776 q 412 669 472 669 l 345 669 l 345 278 l 380 293 q 414 302 404 302 q 456 248 456 302 m 1272 591 q 1317 547 1317 591 q 1272 503 1317 503 l 1233 503 l 1233 422 q 1206 343 1233 370 q 1127 316 1179 316 l 958 316 l 958 240 l 1146 240 q 1225 214 1198 240 q 1253 137 1253 187 l 1253 12 q 1146 -94 1253 -94 l 701 -94 q 597 12 597 -94 l 597 134 q 701 240 597 240 l 857 240 l 857 316 l 682 316 q 645 328 658 316 q 632 361 632 339 q 682 406 632 406 l 857 406 l 857 503 l 654 503 q 617 514 631 503 q 604 547 604 525 q 654 591 604 591 l 857 591 l 857 688 l 684 688 q 646 699 659 688 q 633 732 633 711 q 646 766 633 754 q 684 777 659 777 l 857 777 l 857 815 q 871 849 857 837 q 907 861 884 861 q 944 849 930 861 q 958 815 958 837 l 958 777 l 1127 777 q 1233 671 1233 777 l 1233 591 l 1272 591 m 1131 651 q 1122 678 1131 670 q 1095 688 1114 686 l 958 688 l 958 591 l 1131 591 l 1131 651 m 1131 503 l 958 503 l 958 406 l 1095 406 q 1122 414 1114 406 q 1131 442 1130 423 l 1131 503 m 1149 110 q 1140 138 1149 129 q 1111 148 1131 146 l 735 148 q 707 139 715 148 q 697 110 699 130 l 697 38 q 706 9 697 18 q 735 0 715 1 l 1111 0 q 1139 9 1131 0 q 1149 38 1147 18 l 1149 110 z "},"壁":{"ha":1389,"x_min":72,"x_max":1316,"o":"m 975 271 q 920 331 920 271 l 920 441 l 753 441 q 713 452 726 441 q 700 488 700 464 q 753 534 700 534 l 920 534 l 920 639 l 719 639 q 666 685 666 639 q 719 732 666 732 l 819 732 q 781 887 808 793 l 743 887 q 689 933 689 887 q 702 969 689 958 q 743 981 715 981 l 918 981 l 918 1051 q 977 1104 918 1104 q 1035 1051 1035 1104 l 1035 981 l 1227 981 q 1269 969 1256 981 q 1282 933 1282 958 q 1227 887 1282 887 l 1181 887 l 1139 732 l 1263 732 q 1316 685 1316 732 q 1263 639 1316 639 l 1029 639 l 1029 534 l 1203 534 q 1256 488 1256 534 q 1203 441 1256 441 l 1029 441 l 1029 331 q 975 271 1029 271 m 125 296 q 72 353 72 296 q 92 410 72 366 q 156 859 156 537 l 153 940 q 185 1024 152 996 q 283 1053 218 1053 l 541 1053 q 658 943 658 1053 l 658 838 q 541 726 658 726 l 254 726 q 209 422 247 552 q 170 328 191 359 q 125 296 148 296 m 517 821 q 556 859 553 821 l 556 920 q 517 958 556 955 l 297 958 q 262 943 273 958 q 256 821 259 939 l 517 821 m 1043 732 q 1080 887 1066 815 l 882 887 l 918 732 l 1043 732 m 363 326 q 262 429 262 326 l 262 555 q 363 658 262 658 l 556 658 q 659 555 659 658 l 659 429 q 556 326 659 326 l 363 326 m 528 412 q 563 446 563 412 l 563 536 q 528 571 563 568 l 381 571 q 355 544 355 571 l 355 446 q 391 412 355 415 l 528 412 m 142 -90 q 83 -39 83 -90 q 142 9 83 9 l 651 9 l 651 140 l 250 140 q 194 189 194 140 q 250 239 194 239 l 651 239 l 651 313 q 705 370 651 370 q 762 313 762 370 l 762 239 l 1138 239 q 1194 189 1194 239 q 1138 140 1194 140 l 762 140 l 762 9 l 1242 9 q 1306 -39 1306 9 q 1242 -90 1306 -90 l 142 -90 z "},"壇":{"ha":1389,"x_min":75,"x_max":1316,"o":"m 495 909 q 445 955 445 909 q 495 1001 445 1001 l 815 1001 l 815 1059 q 872 1108 815 1108 q 928 1059 928 1108 l 928 1001 l 1263 1001 q 1314 955 1314 1001 q 1263 909 1314 909 l 495 909 m 132 52 q 75 109 75 52 q 93 146 75 132 q 151 171 111 161 l 244 194 l 244 670 l 141 670 q 81 723 81 670 q 141 776 81 776 l 244 776 l 244 1038 q 297 1099 244 1099 q 350 1038 350 1099 l 350 776 l 429 776 q 488 723 488 776 q 429 670 488 670 l 350 670 l 350 224 l 441 248 q 458 251 454 251 q 492 237 479 251 q 505 202 505 222 q 476 155 505 171 l 387 125 q 213 71 281 90 q 132 52 145 52 m 613 430 q 510 533 510 430 l 510 766 q 613 869 510 869 l 1164 869 q 1242 843 1215 869 q 1270 765 1270 817 l 1270 534 q 1242 456 1270 483 q 1164 430 1215 430 l 613 430 m 1126 513 q 1158 547 1157 513 l 1158 753 q 1126 787 1158 784 l 650 787 q 616 754 618 787 l 616 545 q 650 513 616 515 l 1126 513 m 765 548 q 705 568 726 548 q 684 627 684 589 l 684 673 q 762 753 684 753 l 1008 753 q 1069 732 1047 753 q 1090 673 1090 712 l 1090 627 q 1070 568 1090 589 q 1010 548 1050 548 l 765 548 m 970 623 q 987 628 982 623 q 991 651 991 633 q 987 672 991 666 q 970 678 982 678 l 803 678 q 781 659 784 678 l 781 642 q 803 623 781 623 l 970 623 m 656 42 q 555 142 555 42 l 555 286 q 656 388 555 388 l 1118 388 q 1195 362 1168 388 q 1222 285 1222 336 l 1222 144 q 1195 68 1222 94 q 1118 42 1168 42 l 656 42 m 1114 277 q 1107 301 1114 294 q 1084 309 1100 308 l 688 309 q 658 278 658 309 l 658 255 l 1114 255 l 1114 277 m 1084 121 q 1107 128 1100 121 q 1114 152 1114 136 l 1114 182 l 658 182 l 658 152 q 665 130 658 137 q 688 121 671 122 l 1084 121 m 429 -96 q 377 -50 377 -96 q 429 -4 377 -4 l 1267 -4 q 1316 -50 1316 -4 q 1267 -96 1316 -96 l 429 -96 z "},"壢":{"ha":1389,"x_min":69,"x_max":1318,"o":"m 442 243 q 412 193 442 208 l 357 172 q 122 94 142 94 q 69 148 69 94 q 136 213 69 195 l 224 237 l 228 239 l 228 670 l 140 670 q 73 724 73 670 q 140 776 73 776 l 228 776 l 228 1038 q 281 1097 228 1097 q 334 1038 334 1097 l 334 776 l 397 776 q 458 724 458 776 q 397 670 458 670 l 334 670 l 334 274 l 372 288 l 391 293 q 442 243 442 293 m 581 917 q 579 628 581 675 q 559 281 572 419 q 521 66 545 144 q 416 -95 471 -95 q 358 -41 358 -95 q 388 33 358 -23 q 479 453 467 179 q 480 572 480 475 l 479 945 q 507 1030 479 1001 q 590 1059 536 1059 l 1246 1059 q 1289 1047 1274 1059 q 1303 1010 1303 1035 q 1246 962 1303 962 l 618 962 q 591 950 601 962 q 581 917 581 939 m 1104 330 q 1072 342 1084 330 q 1061 377 1061 354 l 1061 568 q 994 441 1027 484 q 932 399 960 399 q 887 444 887 399 q 895 467 887 454 q 914 490 902 480 q 890 486 905 486 q 865 496 879 486 q 840 525 852 506 l 823 544 l 823 377 q 779 330 823 330 q 735 377 735 330 l 735 553 q 625 406 682 406 q 587 452 587 406 q 623 510 587 477 q 716 650 677 560 l 658 650 q 622 661 635 650 q 609 694 609 673 q 658 738 609 738 l 735 738 l 735 819 l 689 811 l 652 806 q 621 816 632 803 q 609 852 609 829 q 627 881 609 871 q 685 898 646 891 l 766 914 q 852 933 776 917 l 872 937 q 906 928 894 941 q 918 891 918 914 q 823 834 918 859 l 823 738 l 878 738 q 928 694 928 738 q 878 650 928 650 l 823 650 l 823 609 q 842 613 831 613 q 899 576 863 613 q 935 524 935 541 q 929 502 935 509 q 1042 650 990 555 l 987 650 q 951 661 964 650 q 939 694 939 673 q 987 738 939 738 l 1061 738 l 1061 815 l 978 802 l 967 800 q 937 812 947 800 q 926 846 926 825 q 941 874 926 864 q 986 888 956 884 q 1089 907 1031 894 l 1218 939 q 1267 892 1267 939 q 1149 830 1267 857 l 1149 738 l 1251 738 q 1287 726 1274 738 q 1301 694 1301 713 q 1288 661 1301 673 q 1251 650 1275 650 l 1165 650 q 1290 495 1198 582 q 1311 472 1303 483 q 1318 449 1318 461 q 1270 401 1318 401 q 1209 444 1238 401 q 1149 567 1180 486 l 1149 377 q 1104 330 1149 330 m 1256 7 q 1310 -41 1310 7 q 1256 -90 1310 -90 l 590 -90 q 548 -77 562 -90 q 534 -41 534 -65 q 590 7 534 7 l 686 7 l 686 245 q 699 287 686 274 q 736 300 711 300 q 785 245 785 300 l 785 7 l 913 7 l 913 315 q 963 368 913 368 q 1013 315 1013 368 l 1013 241 l 1200 241 q 1240 230 1227 241 q 1253 194 1253 218 q 1200 148 1253 148 l 1013 148 l 1013 7 l 1256 7 z "},"士":{"ha":1389,"x_min":80,"x_max":1309,"o":"m 228 -52 q 174 -38 191 -52 q 156 5 156 -24 q 228 61 156 61 l 631 61 l 631 605 l 151 605 q 80 662 80 605 q 151 718 80 718 l 631 718 l 631 1021 q 690 1097 631 1097 q 734 1079 720 1097 q 747 1021 747 1061 l 747 718 l 1237 718 q 1309 662 1309 718 q 1237 605 1309 605 l 747 605 l 747 61 l 1161 61 q 1213 47 1196 61 q 1230 5 1230 34 q 1213 -38 1230 -24 q 1161 -52 1196 -52 l 228 -52 z "},"壯":{"ha":1389,"x_min":75,"x_max":1312,"o":"m 479 -133 q 426 -76 426 -133 l 426 362 l 302 362 l 300 288 q 240 -5 294 98 q 130 -106 189 -106 q 90 -83 110 -106 q 75 -45 75 -68 q 104 7 75 -23 q 193 240 182 87 l 198 362 l 129 362 q 76 415 76 362 q 129 467 76 467 l 426 467 l 426 625 l 244 625 q 158 653 186 625 q 132 738 130 681 l 132 968 q 184 1031 132 1031 q 236 968 236 1031 l 236 772 q 278 730 236 732 l 426 730 l 426 1048 q 480 1105 426 1105 q 532 1048 532 1105 l 532 -76 q 479 -133 532 -133 m 667 -64 q 602 -11 602 -64 q 667 43 602 43 l 883 43 l 883 589 l 640 589 q 572 644 572 589 q 640 700 572 700 l 883 700 l 883 1029 q 940 1092 883 1092 q 997 1029 997 1092 l 997 700 l 1242 700 q 1312 644 1312 700 q 1242 589 1312 589 l 997 589 l 997 43 l 1208 43 q 1274 -11 1274 43 q 1208 -64 1274 -64 l 667 -64 z "},"壽":{"ha":1389,"x_min":76,"x_max":1313,"o":"m 155 940 q 106 981 106 940 q 155 1023 106 1023 l 631 1023 l 631 1051 q 688 1108 631 1108 q 745 1051 745 1108 l 745 1023 l 1233 1023 q 1280 981 1280 1023 q 1233 940 1280 940 l 745 940 l 745 878 l 1133 878 q 1176 840 1176 878 q 1133 802 1176 802 l 256 802 q 213 840 213 802 q 256 878 213 878 l 631 878 l 631 940 l 155 940 m 129 673 q 83 712 83 673 q 129 753 83 753 l 1175 753 q 1262 728 1234 753 q 1287 651 1290 704 l 1287 574 q 1229 510 1287 510 q 1171 574 1171 510 l 1171 632 q 1128 673 1171 670 l 129 673 m 632 477 l 632 544 l 302 544 q 260 581 260 544 q 302 620 260 620 l 1057 620 q 1097 581 1097 620 q 1057 544 1097 544 l 742 544 l 742 477 l 1180 477 q 1221 439 1221 477 q 1177 403 1221 403 l 198 403 q 157 439 157 403 q 198 477 157 477 l 632 477 m 1150 270 l 1150 201 l 1255 201 q 1302 160 1302 201 q 1290 130 1302 141 q 1255 119 1278 119 l 1150 119 l 1150 -3 q 1021 -133 1161 -141 l 937 -133 q 879 -80 879 -133 q 937 -28 879 -28 l 1001 -28 q 1046 20 1046 -28 l 1046 119 l 662 119 q 613 161 613 119 q 662 201 613 201 l 1046 201 l 1046 270 l 122 270 q 76 311 76 270 q 122 351 76 351 l 1267 351 q 1313 311 1313 351 q 1267 270 1313 270 l 1150 270 m 488 214 q 589 115 589 214 l 589 12 q 488 -85 589 -85 l 247 -85 q 146 12 146 -85 l 146 115 q 247 214 146 214 l 488 214 m 481 96 q 446 133 481 132 l 286 133 q 251 96 254 133 l 251 31 q 286 -4 251 -3 l 446 -4 q 481 31 481 -4 l 481 96 m 747 96 q 817 50 776 96 q 857 -19 857 4 q 803 -64 857 -64 q 775 -50 792 -64 q 741 -12 758 -37 q 717 20 735 -5 q 699 53 699 45 q 747 96 699 96 z "},"夏":{"ha":1389,"x_min":76,"x_max":1313,"o":"m 1219 -5 q 1313 -61 1313 -9 q 1259 -121 1313 -121 l 1204 -117 l 1126 -106 q 712 -8 879 -71 q 415 -90 602 -52 q 127 -127 231 -127 q 88 -115 100 -127 q 76 -73 76 -102 q 100 -34 76 -47 q 174 -18 123 -20 q 593 52 406 -7 q 407 217 507 104 q 156 91 222 91 q 111 145 111 91 q 151 194 111 180 q 468 384 343 266 l 330 384 q 248 408 273 384 q 227 488 222 431 l 227 792 q 251 874 227 849 q 330 895 275 899 l 566 895 l 594 963 l 136 963 q 84 1009 84 963 q 136 1054 84 1054 l 1252 1054 q 1305 1009 1305 1054 q 1252 963 1305 963 l 719 963 l 680 895 l 1059 895 q 1141 871 1116 895 q 1162 792 1166 848 l 1162 488 q 1139 405 1162 430 q 1059 384 1115 380 l 594 384 l 536 324 l 1043 324 q 1122 270 1122 324 q 1038 172 1122 239 q 845 52 948 103 q 1219 -5 1029 3 m 370 814 q 332 776 331 814 l 332 751 l 1057 751 l 1057 776 q 1019 814 1057 815 l 370 814 m 1057 674 l 332 674 l 332 610 l 1057 610 l 1057 674 m 332 503 q 370 465 332 464 l 1019 465 q 1057 503 1058 465 l 1057 534 l 332 534 l 332 503 m 716 94 q 860 165 761 111 q 941 225 941 209 q 922 237 941 237 l 498 237 q 711 96 604 140 l 715 94 l 716 94 z "},"外":{"ha":1389,"x_min":81,"x_max":1313,"o":"m 1291 441 q 1313 395 1313 419 q 1299 361 1313 376 q 1259 342 1280 342 q 1211 365 1234 342 q 996 570 1080 496 l 996 -57 q 981 -103 996 -87 q 939 -119 966 -119 q 882 -57 882 -119 l 882 1039 q 939 1104 882 1104 q 996 1039 996 1104 l 996 681 q 1291 441 1168 566 m 625 899 q 702 873 674 899 q 728 799 730 848 q 655 427 724 605 q 461 108 586 248 q 172 -114 336 -33 q 136 -123 155 -123 q 91 -95 106 -123 q 85 -71 85 -84 q 123 -18 85 -39 q 491 338 368 118 q 301 479 396 416 q 277 518 277 495 q 286 544 277 533 q 323 564 301 564 q 357 553 338 564 q 537 433 444 503 q 612 758 597 579 q 603 788 613 777 q 572 799 593 799 l 368 799 q 283 618 331 708 q 182 457 235 528 q 134 429 161 429 q 100 442 118 429 q 81 479 81 457 q 99 524 81 500 q 328 1059 254 743 q 378 1103 339 1103 q 424 1086 408 1103 q 435 1038 439 1070 q 403 899 427 977 l 625 899 z "},"大":{"ha":1389,"x_min":81,"x_max":1308,"o":"m 140 -117 q 81 -56 81 -117 q 98 -22 81 -38 q 151 12 115 -5 q 605 652 556 209 l 163 652 q 111 666 127 652 q 94 708 94 680 q 111 749 94 736 q 163 762 127 762 l 617 762 q 624 1031 624 823 q 680 1100 624 1100 q 724 1081 709 1100 q 739 1031 739 1062 q 732 762 739 949 l 1225 762 q 1294 708 1294 762 q 1225 652 1294 652 l 747 652 q 928 292 796 456 q 1257 22 1061 126 q 1308 -45 1308 -5 q 1246 -111 1308 -111 q 1192 -88 1232 -111 q 1073 -11 1152 -65 q 841 216 940 81 q 694 498 738 358 q 288 -53 598 138 q 140 -117 184 -117 z "},"天":{"ha":1389,"x_min":79,"x_max":1310,"o":"m 136 -129 q 79 -62 79 -129 q 126 -5 79 -27 q 590 515 524 176 l 174 515 q 104 568 104 515 q 121 610 104 597 q 174 624 138 624 l 608 624 q 617 905 617 747 l 278 905 q 226 918 243 905 q 209 960 209 932 q 278 1015 209 1015 l 1115 1015 q 1184 960 1184 1015 q 1167 918 1184 932 q 1115 905 1150 905 l 734 905 l 734 865 q 723 624 734 726 l 1219 624 q 1287 568 1287 624 q 1219 515 1287 515 l 738 515 q 954 210 803 354 q 1272 -1 1103 68 q 1310 -56 1310 -18 q 1295 -105 1310 -90 q 1245 -121 1279 -121 q 971 37 1161 -121 q 681 427 779 195 q 410 33 606 194 q 136 -129 216 -129 z "},"太":{"ha":1389,"x_min":79,"x_max":1310,"o":"m 137 -110 q 92 -96 106 -110 q 79 -49 79 -81 q 148 22 79 -12 q 463 281 347 118 q 612 659 579 444 l 163 659 q 91 716 91 659 q 163 774 91 774 l 625 774 q 633 1036 633 879 q 694 1103 633 1103 q 753 1035 753 1103 q 742 783 751 935 l 742 774 l 1225 774 q 1297 716 1297 774 q 1225 659 1297 659 l 764 659 q 928 328 802 502 q 1260 30 1062 145 q 1310 -37 1310 0 q 1295 -87 1310 -71 q 1248 -103 1280 -103 q 1099 -18 1211 -103 q 853 235 952 94 q 707 536 754 377 l 700 536 q 567 235 650 361 q 336 -9 463 77 q 137 -110 191 -110 m 792 -80 q 758 -72 773 -80 q 730 -47 743 -64 q 606 94 642 52 q 593 115 597 106 q 591 144 590 125 q 606 170 593 160 q 647 180 620 180 q 764 92 685 180 q 828 14 810 41 q 846 -30 846 -12 q 831 -66 846 -53 q 792 -80 815 -80 z "},"如":{"ha":1389,"x_min":75,"x_max":1264,"o":"m 538 187 q 647 98 612 132 q 684 43 682 64 q 671 -1 686 16 q 629 -18 655 -18 q 603 -10 616 -18 q 574 10 590 -3 q 549 30 559 23 l 473 90 q 380 -8 433 39 q 260 -85 324 -57 q 156 -114 195 -114 q 102 -58 102 -114 q 156 1 102 -23 q 262 52 221 31 q 330 99 302 73 q 388 163 363 130 q 209 275 338 199 q 168 312 183 290 q 153 359 153 334 q 172 453 153 382 q 236 730 202 567 l 129 730 q 87 743 100 730 q 75 783 75 755 q 90 821 75 807 q 137 836 106 836 l 255 836 q 286 1042 277 959 q 305 1082 289 1066 q 343 1099 321 1099 q 387 1083 373 1099 q 400 1032 400 1067 q 368 834 400 997 l 548 834 q 630 809 600 834 q 659 735 661 784 q 624 423 652 556 q 538 187 595 290 m 1255 100 q 1223 -16 1260 20 q 1109 -45 1187 -52 l 884 -45 l 863 -46 q 739 100 730 -46 l 739 814 q 884 958 730 970 l 1109 958 l 1131 959 q 1255 814 1264 959 l 1255 100 m 1142 780 q 1078 849 1142 849 l 918 849 q 850 780 849 849 l 850 132 q 916 64 850 64 l 1076 64 q 1126 79 1109 64 q 1142 129 1142 95 l 1142 780 m 445 255 q 541 692 528 423 q 532 720 543 711 q 502 730 521 730 l 346 730 q 305 536 326 628 q 275 415 285 445 q 270 384 270 397 q 277 363 270 372 q 301 343 283 354 l 445 255 z "},"姓":{"ha":1389,"x_min":75,"x_max":1310,"o":"m 127 -98 q 79 -43 79 -98 q 127 18 79 -14 q 309 190 248 95 l 183 282 q 133 359 133 317 q 151 471 133 382 q 183 665 164 543 l 191 716 l 127 716 q 75 769 75 716 q 137 822 75 822 l 206 822 l 228 1038 q 281 1103 235 1103 q 336 1053 336 1103 l 309 854 l 307 826 l 420 826 q 525 722 525 826 q 437 214 525 434 q 556 76 556 113 q 500 20 556 20 q 430 73 475 20 l 388 119 q 252 -28 326 33 q 127 -98 170 -98 m 587 -83 q 528 -34 528 -83 q 587 16 528 16 l 911 16 l 911 335 l 718 335 q 654 385 654 335 q 718 435 654 435 l 911 435 l 911 713 l 715 713 q 581 407 644 407 q 525 454 525 407 q 532 476 525 461 q 543 499 538 491 q 642 922 613 654 q 699 1004 650 1004 q 738 994 726 1004 q 750 963 750 983 l 734 814 l 911 814 l 911 1040 q 963 1103 911 1103 q 1015 1040 1015 1103 l 1015 814 l 1230 814 q 1290 764 1290 814 q 1230 713 1290 713 l 1015 713 l 1015 435 l 1198 435 q 1255 385 1255 435 q 1198 335 1255 335 l 1015 335 l 1015 16 l 1252 16 q 1310 -34 1310 16 q 1252 -83 1310 -83 l 587 -83 m 354 281 q 420 688 420 468 q 384 722 420 724 l 293 722 q 243 429 258 491 l 239 387 q 296 321 237 359 l 354 281 z "},"子":{"ha":1389,"x_min":81,"x_max":1308,"o":"m 499 -117 q 446 -102 463 -117 q 430 -56 430 -87 q 499 4 430 4 l 579 4 q 644 68 646 4 l 644 426 l 149 426 q 81 481 81 426 q 98 522 81 509 q 149 534 114 534 l 644 534 l 644 628 q 671 734 644 697 q 833 831 688 755 q 950 897 920 876 q 981 926 981 917 q 975 936 981 932 q 963 940 970 940 l 271 940 q 222 953 237 940 q 206 993 206 966 q 222 1033 206 1020 q 271 1046 237 1046 l 1096 1046 q 1166 1029 1143 1046 q 1188 977 1188 1012 q 1121 898 1188 951 q 932 776 1054 845 l 875 743 q 770 678 779 690 q 755 614 755 656 l 755 534 l 1238 534 q 1308 481 1308 534 q 1238 426 1308 426 l 755 426 l 755 46 q 716 -77 755 -38 q 601 -117 677 -117 l 499 -117 z "},"學":{"ha":1389,"x_min":85,"x_max":1305,"o":"m 157 307 q 102 372 102 307 l 102 476 q 123 557 102 532 q 194 585 145 583 l 213 585 l 184 974 q 200 1030 183 1008 q 252 1061 217 1053 l 392 1084 l 435 1095 q 451 1099 441 1096 q 468 1101 461 1101 q 510 1054 510 1101 q 472 1018 510 1032 q 345 993 434 1004 q 302 979 315 989 q 290 949 289 968 l 292 911 l 457 911 q 507 869 507 911 q 457 827 507 827 l 298 827 l 304 753 l 457 753 q 507 709 507 753 q 457 667 507 667 l 309 667 l 315 585 l 1080 585 l 1085 667 l 922 667 q 876 709 876 667 q 922 753 876 753 l 1092 753 l 1095 827 l 922 827 q 887 838 898 827 q 876 869 876 848 q 922 911 876 911 l 1104 911 l 1104 940 q 1096 972 1104 963 q 1066 981 1088 981 l 910 981 q 867 1020 867 981 q 877 1052 867 1042 q 910 1062 887 1062 l 1103 1062 q 1208 981 1208 1062 l 1180 585 l 1195 585 q 1286 476 1294 585 l 1286 366 q 1232 302 1286 302 q 1191 317 1204 302 q 1177 366 1177 332 l 1177 450 q 1133 495 1177 492 l 258 495 q 212 450 214 495 l 212 370 q 157 307 212 307 m 563 848 q 524 887 524 848 q 604 958 524 910 l 633 974 q 548 1051 548 1034 q 558 1077 548 1067 q 587 1086 568 1086 q 696 1023 604 1086 l 735 1063 q 787 1095 764 1095 q 817 1085 807 1095 q 827 1059 827 1076 q 760 977 827 1036 l 774 968 q 831 901 831 928 q 821 869 831 880 q 791 859 810 859 q 745 884 772 859 l 697 929 q 563 848 594 848 m 528 635 q 613 705 528 658 l 640 722 l 625 731 q 556 795 556 776 q 595 830 556 830 q 640 810 608 830 l 682 785 l 704 770 l 741 806 q 789 836 773 836 q 831 799 831 836 q 769 726 831 774 q 849 644 849 671 q 808 602 849 602 q 762 628 792 602 l 704 677 q 618 618 655 639 q 567 597 582 597 q 528 635 528 597 m 1249 187 q 1305 142 1305 187 q 1249 98 1305 98 l 734 98 l 734 1 q 703 -104 734 -72 q 604 -132 671 -137 l 521 -132 q 471 -119 487 -132 q 456 -80 456 -107 q 521 -30 456 -30 l 575 -30 q 628 23 625 -30 l 628 98 l 140 98 q 85 142 85 98 q 140 187 85 187 l 628 187 l 628 225 q 651 270 628 256 q 760 304 673 283 l 901 340 l 901 343 l 301 343 q 248 385 248 343 q 260 418 248 407 q 301 429 273 429 l 1027 429 q 1105 417 1078 429 q 1133 382 1133 406 q 1039 321 1133 361 q 777 235 945 282 q 734 195 734 222 l 734 187 l 1249 187 z "},"安":{"ha":1389,"x_min":98,"x_max":1295,"o":"m 161 647 q 106 709 106 647 l 106 829 q 133 935 100 902 q 239 962 165 967 l 628 962 l 628 1046 q 688 1104 628 1104 q 746 1046 746 1104 l 746 962 l 1153 962 q 1259 935 1226 967 q 1286 829 1291 902 l 1286 709 q 1272 662 1286 677 q 1232 647 1259 647 q 1191 662 1204 647 q 1177 709 1177 677 l 1177 806 q 1162 849 1177 834 q 1120 863 1147 864 l 271 863 q 216 806 213 863 l 216 709 q 161 647 216 647 m 1180 -129 q 1090 -90 1158 -129 q 807 53 993 -33 q 210 -118 583 -118 q 150 -103 170 -118 q 130 -57 130 -88 q 153 -14 130 -26 q 274 -3 171 -5 q 509 28 404 0 q 689 102 614 56 q 393 202 587 145 q 336 231 355 213 q 317 275 317 248 q 334 334 317 300 l 411 487 l 161 487 q 98 537 98 487 q 161 589 98 589 l 461 589 l 543 781 q 595 825 560 825 q 642 810 625 825 q 658 769 658 796 q 586 589 658 750 l 1232 589 q 1295 537 1295 589 q 1232 487 1295 487 l 1057 487 q 897 140 1012 275 q 1200 -1 1017 94 q 1246 -64 1246 -26 q 1229 -111 1246 -92 q 1180 -129 1211 -129 m 458 334 q 453 312 453 323 q 481 281 453 289 q 755 193 572 256 q 789 182 770 189 q 941 487 901 289 l 537 487 l 458 334 z "},"官":{"ha":1389,"x_min":104,"x_max":1293,"o":"m 161 675 q 104 739 104 675 l 104 845 q 140 948 104 918 q 240 981 180 982 l 627 981 l 627 1038 q 690 1104 627 1104 q 737 1088 722 1104 q 753 1038 753 1072 l 753 981 l 1154 981 q 1255 948 1218 981 q 1290 845 1293 913 l 1290 739 q 1233 675 1290 675 q 1177 739 1177 675 l 1177 829 q 1123 883 1177 880 l 271 883 q 232 869 245 883 q 218 829 218 854 l 218 739 q 161 675 218 675 m 425 -88 q 317 -60 350 -88 q 289 28 283 -33 l 289 658 q 321 749 289 720 q 425 774 354 777 l 977 774 q 1077 745 1046 774 q 1104 656 1108 716 l 1104 534 q 1074 441 1104 471 q 977 416 1043 412 l 401 416 l 401 300 l 1047 300 q 1147 271 1116 300 q 1175 182 1177 243 l 1175 31 q 1142 -62 1175 -33 q 1039 -88 1109 -91 l 425 -88 m 944 515 q 991 562 989 515 l 991 629 q 944 675 991 673 l 448 675 q 401 629 403 675 l 401 515 l 944 515 m 1015 12 q 1061 58 1058 12 l 1061 155 q 1015 201 1061 199 l 401 201 l 401 58 q 448 12 401 15 l 1015 12 z "},"定":{"ha":1389,"x_min":79,"x_max":1310,"o":"m 159 646 q 102 709 102 646 l 102 829 q 133 930 102 903 q 236 963 172 964 l 624 963 l 624 1046 q 685 1104 624 1104 q 746 1046 746 1104 l 746 963 l 1157 963 q 1255 930 1218 963 q 1286 834 1286 901 l 1286 709 q 1272 661 1286 677 q 1229 646 1259 646 q 1175 709 1175 646 l 1175 806 q 1160 848 1175 834 q 1119 861 1146 863 l 269 861 q 216 806 214 861 l 216 709 q 159 646 216 646 m 1240 22 q 1310 -35 1310 23 q 1236 -92 1310 -92 q 769 -77 913 -92 q 514 -5 625 -62 q 353 146 415 46 l 350 145 q 243 -30 312 56 q 134 -110 178 -110 q 79 -54 79 -110 q 137 23 79 -31 q 309 415 277 153 q 329 466 313 449 q 369 483 345 483 q 425 427 425 483 q 389 258 425 380 q 639 49 494 90 l 639 612 l 317 612 q 255 663 255 612 q 317 712 255 712 l 1070 712 q 1134 663 1134 712 q 1070 612 1134 612 l 749 612 l 749 396 l 1074 396 q 1139 343 1139 396 q 1074 290 1139 290 l 749 290 l 749 31 q 1023 18 867 18 l 1240 22 z "},"宜":{"ha":1389,"x_min":75,"x_max":1314,"o":"m 164 662 q 106 727 106 662 l 106 850 q 136 951 106 920 q 232 978 165 982 l 624 978 l 624 1046 q 686 1105 624 1105 q 749 1046 749 1105 l 749 978 l 1156 978 q 1256 948 1225 978 q 1283 850 1287 918 l 1283 727 q 1225 662 1283 662 q 1165 727 1165 662 l 1165 826 q 1118 875 1165 872 l 270 875 q 222 826 222 875 l 222 727 q 164 662 222 662 m 140 -83 q 75 -31 75 -83 q 140 22 75 22 l 305 22 l 305 625 q 336 724 305 693 q 434 753 366 755 l 956 753 q 1057 722 1025 753 q 1084 625 1088 692 l 1084 22 l 1249 22 q 1314 -31 1314 22 q 1249 -83 1314 -83 l 140 -83 m 967 604 q 920 652 967 650 l 471 652 q 422 604 425 652 l 422 510 l 967 510 l 967 604 m 967 270 l 967 415 l 422 415 l 422 270 l 967 270 m 967 22 l 967 175 l 422 175 l 422 22 l 967 22 z "},"家":{"ha":1389,"x_min":99,"x_max":1308,"o":"m 157 678 q 99 749 99 678 l 99 841 q 133 948 99 916 q 243 982 172 985 l 623 982 l 623 1047 q 685 1105 623 1105 q 747 1047 747 1105 l 747 982 l 1145 982 q 1255 948 1217 982 q 1289 845 1289 918 l 1289 749 q 1230 678 1289 678 q 1172 749 1172 678 l 1172 830 q 1119 883 1172 884 l 267 883 q 216 830 214 883 l 216 749 q 157 678 216 678 m 1259 77 q 1308 20 1308 56 q 1303 0 1308 12 q 1284 -30 1298 -19 q 1251 -41 1270 -41 q 1219 -34 1237 -41 q 1058 62 1139 -1 q 946 169 993 114 q 857 298 899 224 q 872 140 872 217 q 815 -72 872 -7 q 620 -127 768 -127 q 552 -125 601 -127 q 495 -73 495 -121 q 512 -27 495 -41 q 566 -16 529 -14 q 609 -18 582 -18 q 738 20 712 -18 q 762 152 762 60 q 757 240 762 197 q 411 20 608 99 q 247 -38 317 -18 q 146 -58 176 -58 q 99 -15 99 -58 q 109 18 99 7 q 145 37 118 30 q 469 158 317 80 q 735 342 620 236 q 699 423 722 387 q 565 332 644 377 q 412 259 486 286 q 250 205 319 222 q 152 187 180 187 q 109 233 109 187 q 125 267 109 255 q 193 290 142 278 q 450 382 334 327 q 648 503 566 437 l 589 563 q 339 450 483 502 q 178 410 227 410 q 129 458 129 410 q 140 488 129 477 q 175 505 152 498 q 401 576 298 536 q 609 678 505 617 l 309 678 q 254 727 254 678 q 309 776 254 776 l 1077 776 q 1134 727 1134 776 q 1077 678 1134 678 l 762 678 q 666 610 723 648 q 822 410 760 533 q 1082 594 941 475 q 1128 614 1105 614 q 1168 597 1150 614 q 1181 566 1181 583 q 1153 515 1181 540 q 897 358 1043 423 q 1259 77 1016 182 z "},"富":{"ha":1389,"x_min":109,"x_max":1299,"o":"m 171 699 q 127 712 141 699 q 114 754 114 726 l 114 878 q 140 977 109 945 q 239 1002 171 1008 l 635 1002 l 635 1053 q 696 1104 635 1104 q 754 1053 754 1104 l 754 1002 l 1169 1002 q 1268 977 1237 1008 q 1294 878 1299 945 l 1294 754 q 1280 712 1294 726 q 1237 699 1267 699 q 1183 754 1183 699 l 1183 856 q 1130 910 1183 911 l 278 910 q 224 856 222 910 l 224 754 q 211 712 224 726 q 171 699 198 699 m 305 750 q 269 760 279 750 q 258 792 258 770 q 305 834 258 834 l 1101 834 q 1152 792 1152 834 q 1139 760 1152 770 q 1101 750 1127 750 l 305 750 m 385 419 q 303 444 330 419 q 277 522 277 469 l 277 579 q 385 682 277 688 l 1023 682 q 1131 582 1131 682 l 1131 522 q 1023 419 1131 414 l 385 419 m 977 502 q 1016 555 1016 502 q 977 600 1016 597 l 431 600 q 401 587 410 600 q 392 547 392 575 q 431 502 392 505 l 977 502 m 305 -88 q 210 -59 240 -88 q 183 33 180 -30 l 183 236 q 212 329 183 300 q 305 357 241 358 l 1104 357 q 1199 328 1169 357 q 1226 236 1229 298 l 1226 33 q 1197 -61 1226 -31 q 1104 -88 1168 -91 l 305 -88 m 644 271 l 335 271 q 294 231 297 271 l 294 179 l 644 179 l 644 271 m 1115 231 q 1074 271 1115 271 l 750 271 l 750 179 l 1115 179 l 1115 231 m 644 96 l 294 96 l 294 37 q 335 -4 294 -1 l 644 -4 l 644 96 m 1074 -4 q 1115 37 1112 -4 l 1115 96 l 750 96 l 750 -4 l 1074 -4 z "},"寧":{"ha":1389,"x_min":83,"x_max":1306,"o":"m 156 713 q 100 772 100 713 l 100 882 q 136 968 100 937 q 217 996 168 997 l 625 996 l 625 1061 q 685 1104 625 1104 q 745 1061 745 1104 l 745 996 l 1172 996 q 1260 962 1227 996 q 1287 882 1290 932 l 1287 772 q 1232 713 1287 713 q 1179 772 1179 713 l 1179 856 q 1127 906 1179 903 l 262 906 q 210 856 213 906 l 210 772 q 156 713 210 713 m 743 728 q 703 754 720 728 l 663 798 q 642 840 642 821 q 689 880 642 880 q 750 838 708 880 q 792 777 792 798 q 743 728 792 728 m 499 871 q 537 855 524 871 q 551 810 551 840 l 551 709 q 562 681 551 688 q 761 670 581 670 q 842 686 825 670 q 857 730 850 694 q 905 765 864 765 q 955 719 955 765 q 920 623 955 658 q 856 596 903 606 q 735 586 808 586 q 500 600 547 586 q 460 625 472 609 q 449 666 449 642 l 449 808 q 499 871 449 871 m 278 800 q 301 837 289 826 q 331 848 313 848 q 382 798 382 848 q 347 693 382 773 q 267 606 309 606 q 216 650 216 606 q 237 705 216 663 q 278 800 251 731 m 1009 848 q 1046 831 1024 848 q 1100 777 1067 814 q 1160 678 1160 709 q 1105 629 1160 629 q 1042 680 1070 629 q 975 769 1028 704 q 959 803 959 788 q 1009 848 959 848 m 1253 342 q 1292 331 1278 342 q 1306 298 1306 320 q 1253 254 1306 254 l 136 254 q 83 298 83 254 q 97 331 83 320 q 136 342 111 342 l 217 342 l 217 439 q 241 517 217 494 q 317 538 264 541 l 1073 538 q 1152 515 1127 538 q 1173 439 1176 492 l 1173 342 l 1253 342 m 317 342 l 499 342 l 499 456 l 355 456 q 328 446 338 456 q 317 418 319 435 l 317 342 m 784 456 l 597 456 l 597 342 l 784 342 l 784 456 m 882 456 l 882 342 l 1070 342 l 1070 418 q 1032 456 1070 453 l 882 456 m 1169 183 q 1223 138 1223 183 q 1169 94 1223 94 l 762 94 l 762 -3 q 732 -104 762 -73 q 633 -132 701 -136 l 511 -132 q 453 -80 453 -132 q 511 -27 453 -27 l 597 -27 q 635 -14 621 -27 q 650 24 650 0 l 650 94 l 225 94 q 171 138 171 94 q 225 183 171 183 l 1169 183 z "},"寮":{"ha":1389,"x_min":75,"x_max":1314,"o":"m 1248 513 q 1314 456 1314 496 q 1265 403 1314 403 q 1105 471 1233 403 l 1105 269 q 1080 182 1105 209 q 1000 159 1055 156 l 751 159 l 751 -5 q 722 -106 751 -75 q 624 -133 692 -137 l 547 -133 q 488 -80 488 -133 q 547 -27 488 -27 l 595 -27 q 633 -14 620 -27 q 647 24 646 0 l 647 159 l 391 159 q 307 184 332 159 q 283 269 281 210 l 283 484 q 121 400 149 400 q 75 450 75 400 q 141 510 75 488 q 274 570 214 534 l 202 627 q 179 663 179 646 q 227 705 179 705 q 353 617 254 705 q 492 727 418 656 l 298 727 q 243 772 243 727 q 298 817 243 817 l 570 817 l 616 890 q 632 909 625 903 l 262 909 q 210 856 209 909 l 210 774 q 156 718 210 718 q 103 774 103 718 l 103 876 q 228 1002 94 1012 l 624 1002 l 624 1053 q 685 1105 624 1105 q 746 1053 746 1105 l 746 1002 l 1160 1002 q 1286 876 1297 1012 l 1286 774 q 1232 718 1286 718 q 1179 774 1179 718 l 1179 856 q 1126 909 1179 911 l 709 909 q 719 887 719 901 q 709 859 719 879 q 684 817 699 838 l 1090 817 q 1145 772 1145 817 q 1090 727 1145 727 l 876 727 q 1023 610 935 666 l 1126 700 q 1143 709 1134 707 q 1168 712 1152 712 q 1196 700 1184 712 q 1204 666 1207 688 q 1177 629 1203 652 q 1096 570 1152 606 q 1248 513 1175 530 m 609 727 q 430 572 514 629 l 941 572 q 772 727 836 647 l 609 727 m 1005 463 q 975 491 1005 491 l 412 491 q 384 463 384 491 l 384 407 l 1005 407 l 1005 463 m 1005 331 l 384 331 l 384 279 q 422 239 384 240 l 966 239 q 1005 279 1005 239 l 1005 331 m 1232 -9 q 1272 -54 1272 -23 q 1227 -110 1272 -110 q 1027 -35 1172 -110 q 883 75 883 38 q 933 121 883 121 q 979 100 943 121 q 1232 -9 1100 31 m 420 119 q 469 75 469 119 q 340 -35 469 38 q 155 -111 208 -111 q 121 -100 133 -111 q 110 -66 110 -88 q 130 -33 110 -49 q 194 0 149 -18 q 376 96 278 33 q 420 119 411 119 z "},"寶":{"ha":1389,"x_min":84,"x_max":1306,"o":"m 155 755 q 103 812 103 755 l 103 899 q 131 980 103 952 q 212 1008 159 1008 l 633 1008 l 633 1053 q 694 1105 633 1105 q 755 1053 755 1105 l 755 1008 l 1176 1008 q 1257 980 1229 1008 q 1284 899 1284 952 l 1284 812 q 1230 755 1284 755 q 1177 812 1177 755 l 1177 880 q 1166 910 1177 899 q 1137 921 1156 921 l 793 921 q 812 898 812 914 q 799 860 812 883 l 1109 860 q 1149 826 1149 860 q 1109 792 1149 792 l 975 792 l 975 726 l 1218 726 q 1256 692 1256 726 q 1218 658 1256 658 l 975 658 l 975 567 l 1096 567 q 1124 601 1124 567 q 1135 637 1124 627 q 1166 648 1145 648 q 1208 612 1208 648 l 1208 572 q 1130 498 1208 498 l 739 498 q 659 574 659 498 l 659 613 q 701 650 659 650 q 734 639 724 650 q 745 602 745 628 q 751 576 745 583 q 773 567 758 568 l 892 567 l 892 658 l 659 658 q 620 692 620 658 q 659 726 620 726 l 892 726 l 892 792 l 755 792 q 697 741 718 741 q 666 751 678 741 q 654 774 654 762 q 673 814 654 791 l 727 895 q 753 921 741 916 l 251 921 q 210 880 210 921 l 210 869 l 583 869 q 624 831 624 869 q 583 795 624 795 l 434 795 l 434 728 l 556 728 q 586 719 575 728 q 597 692 597 709 q 556 655 597 655 l 434 655 l 434 586 q 585 597 476 589 q 616 588 605 598 q 627 559 627 578 q 593 521 627 525 q 170 488 382 500 q 118 532 118 487 q 130 562 118 552 q 172 574 142 572 l 227 576 q 347 582 305 579 l 347 655 l 222 655 q 182 692 182 655 q 222 728 182 728 l 347 728 l 347 795 l 209 795 q 155 755 199 755 m 1085 457 q 1166 432 1141 457 q 1188 351 1191 407 l 1188 123 q 1164 41 1188 66 q 1085 18 1139 15 l 305 18 q 223 43 248 18 q 201 123 198 68 l 201 351 q 225 434 201 408 q 305 457 250 460 l 1085 457 m 1081 349 q 1048 382 1081 382 l 342 382 q 308 349 308 382 l 308 334 l 1081 334 l 1081 349 m 1081 214 l 1081 264 l 308 264 l 308 214 l 1081 214 m 1081 144 l 308 144 l 308 125 q 342 92 308 92 l 1048 92 q 1081 125 1081 92 l 1081 144 m 1246 -41 q 1306 -85 1306 -43 q 1256 -132 1306 -132 q 1051 -111 1194 -132 q 841 -64 951 -96 q 822 -50 829 -60 q 815 -28 815 -41 q 827 3 815 -7 q 864 11 840 14 l 892 5 q 1246 -41 1057 -34 m 519 8 q 534 9 525 9 q 571 -27 564 9 q 534 -76 576 -65 q 130 -133 368 -118 q 84 -85 84 -134 q 90 -63 84 -73 q 106 -50 96 -53 q 145 -46 111 -49 l 197 -41 l 244 -35 q 381 -18 336 -27 l 519 8 z "},"將":{"ha":1389,"x_min":75,"x_max":1313,"o":"m 530 502 q 597 552 530 537 q 772 602 673 568 q 640 705 680 670 q 624 736 624 720 q 634 760 624 749 q 661 770 644 770 q 864 643 700 770 l 948 694 l 807 784 q 782 804 789 796 q 774 822 774 811 q 817 861 774 861 q 1023 753 854 861 q 1141 875 1111 823 q 1143 884 1143 880 q 1130 894 1143 894 l 747 894 q 560 769 600 769 q 517 817 517 769 q 579 883 517 848 q 783 1065 692 947 q 854 1111 818 1111 q 892 1100 878 1111 q 906 1073 906 1089 q 878 1024 906 1055 l 844 987 l 1204 987 q 1294 930 1294 987 q 1134 723 1294 872 q 762 503 977 578 q 576 453 617 453 q 530 502 530 453 m 445 1109 q 499 1051 499 1109 l 499 -73 q 446 -133 499 -133 q 392 -73 392 -133 l 392 361 l 292 361 q 269 100 290 206 q 187 -65 248 5 q 127 -100 157 -100 q 75 -43 75 -100 q 95 0 75 -24 q 170 133 144 56 q 191 361 191 198 l 132 361 q 81 411 81 361 q 132 461 81 461 l 392 461 l 392 623 l 237 623 q 129 730 129 623 l 129 972 q 179 1029 129 1029 q 229 972 229 1029 l 229 762 q 271 722 229 722 l 392 722 l 392 1051 q 445 1109 392 1109 m 1249 422 q 1313 372 1313 422 q 1249 319 1313 319 l 1147 319 l 1147 8 q 1009 -123 1157 -130 l 917 -123 q 861 -66 861 -123 q 917 -11 861 -11 l 983 -11 q 1021 3 1008 -11 q 1036 42 1035 16 l 1036 319 l 597 319 q 534 372 534 319 q 597 422 534 422 l 1036 422 l 1036 552 q 1095 609 1036 609 q 1147 552 1147 609 l 1147 422 l 1249 422 m 692 258 q 787 184 713 258 q 837 127 819 152 q 854 92 854 102 q 793 37 854 37 q 699 118 764 37 l 662 161 q 642 187 650 175 q 633 208 633 199 q 692 258 633 258 z "},"小":{"ha":1389,"x_min":87,"x_max":1301,"o":"m 499 -115 q 444 -100 461 -115 q 427 -54 427 -85 q 499 8 427 8 l 568 8 q 639 76 639 8 l 639 1028 q 653 1080 639 1063 q 697 1097 667 1097 q 755 1028 755 1097 l 755 52 q 716 -75 755 -37 q 590 -115 669 -117 l 499 -115 m 1232 117 q 1175 178 1191 117 q 972 755 1093 488 q 952 817 952 803 q 1005 863 952 863 q 1038 848 1021 863 q 1067 808 1054 834 q 1221 444 1143 658 q 1301 180 1301 224 q 1279 138 1301 160 q 1232 117 1257 117 m 145 114 q 87 171 87 114 q 126 271 87 186 q 271 718 222 473 q 304 838 292 818 q 347 860 319 860 q 399 804 399 860 q 321 454 399 693 q 202 156 245 224 q 145 114 175 114 z "},"尖":{"ha":1389,"x_min":76,"x_max":1313,"o":"m 551 598 q 486 658 486 598 q 551 715 486 715 l 594 715 q 648 769 650 715 l 648 1034 q 708 1104 648 1104 q 753 1087 739 1104 q 768 1034 768 1070 l 768 757 q 730 639 768 677 q 609 598 689 598 l 551 598 m 979 895 q 922 975 922 948 q 938 1014 922 1000 q 971 1028 954 1028 q 1003 1022 990 1028 q 1036 1001 1016 1016 q 1185 864 1111 936 l 1215 836 q 1274 773 1265 785 q 1287 732 1287 754 q 1265 693 1287 711 q 1222 677 1245 677 q 1187 690 1206 677 q 1152 723 1168 703 q 979 895 1093 792 m 171 650 q 123 663 140 647 q 107 707 107 678 q 116 734 107 722 q 144 762 125 746 q 354 983 259 861 q 382 1010 368 1002 q 415 1017 396 1017 q 451 1006 437 1017 q 465 970 465 994 q 435 901 465 943 q 336 787 406 860 q 171 650 210 654 m 1234 7 q 1313 -60 1313 -7 q 1244 -123 1313 -123 q 1042 -69 1169 -123 q 688 244 787 39 q 186 -122 579 -41 l 138 -127 q 76 -65 76 -136 q 165 0 76 -16 q 581 273 500 57 l 153 273 q 88 326 88 273 q 104 368 88 354 q 153 381 119 381 l 606 381 q 612 513 609 471 q 631 559 613 544 q 680 574 648 574 q 739 513 739 574 q 734 381 739 468 l 1233 381 q 1299 326 1299 381 q 1233 273 1299 273 l 769 273 q 964 98 849 164 q 1234 7 1080 33 z "},"尾":{"ha":1389,"x_min":75,"x_max":1313,"o":"m 1245 849 q 1215 766 1245 792 q 1124 739 1185 739 l 285 739 l 285 572 q 239 91 285 279 q 132 -94 194 -94 q 88 -79 102 -94 q 75 -35 75 -65 q 91 18 75 -19 q 163 308 142 130 q 173 509 171 374 q 175 895 175 644 l 175 945 q 208 1030 175 1005 q 313 1055 241 1055 l 1124 1055 q 1245 941 1245 1055 l 1245 849 m 1090 831 q 1134 873 1134 831 l 1134 917 q 1122 948 1134 937 q 1090 959 1111 959 l 328 959 q 296 947 307 959 q 285 906 285 935 l 285 831 l 1090 831 m 1256 136 q 1313 83 1313 136 q 1263 -65 1313 -20 q 1171 -89 1244 -81 q 964 -96 1097 -96 q 712 -80 761 -96 q 652 15 652 -60 l 652 149 l 355 123 q 313 134 327 121 q 300 172 300 148 q 350 220 300 214 l 652 247 l 652 358 l 406 336 q 357 384 357 332 q 410 433 357 426 l 652 453 l 652 552 l 411 536 q 366 547 381 534 q 351 586 351 560 q 372 621 351 609 q 437 633 392 632 q 1085 701 895 656 l 1112 705 q 1157 693 1142 709 q 1172 648 1172 677 q 1072 597 1172 613 q 758 560 906 571 l 758 463 l 1160 498 q 1193 486 1181 499 q 1204 450 1204 473 q 1190 417 1204 429 q 1150 403 1176 406 l 758 369 l 758 256 l 1233 298 q 1293 250 1293 304 q 1237 201 1293 206 l 758 159 l 758 72 q 776 22 758 31 q 926 5 817 5 q 1171 19 1137 5 q 1198 83 1191 27 q 1256 136 1203 136 z "},"屋":{"ha":1389,"x_min":76,"x_max":1306,"o":"m 288 741 q 244 94 288 275 q 136 -92 199 -92 q 76 -35 76 -92 q 92 18 76 -22 q 165 312 152 159 q 178 746 178 448 l 175 932 q 313 1053 172 1053 l 1124 1053 q 1215 1025 1185 1053 q 1244 940 1244 997 l 1244 849 q 1124 741 1244 735 l 288 741 m 288 830 l 1090 830 q 1134 872 1133 830 l 1134 918 q 1090 960 1134 958 l 332 960 q 288 891 288 960 l 288 830 m 1249 11 q 1306 -37 1306 11 q 1249 -85 1306 -85 l 335 -85 q 278 -37 278 -85 q 335 11 278 11 l 738 11 l 738 138 l 437 138 q 384 184 384 138 q 437 231 384 231 l 738 231 l 738 345 l 391 323 q 338 369 338 319 q 381 414 338 412 l 553 419 l 602 567 l 381 567 q 330 613 330 567 q 381 659 330 659 l 1222 659 q 1272 613 1272 659 q 1222 567 1272 567 l 720 567 l 655 422 l 1027 438 l 987 467 q 944 511 944 498 q 998 548 944 548 q 1153 460 1036 548 q 1271 339 1271 370 q 1217 293 1271 293 q 1135 349 1195 293 l 1114 368 l 845 351 l 845 231 l 1158 231 q 1211 183 1211 231 q 1158 138 1211 138 l 845 138 l 845 11 l 1249 11 z "},"屏":{"ha":1389,"x_min":75,"x_max":1309,"o":"m 134 -91 q 75 -35 75 -91 q 87 9 75 -22 q 152 264 132 119 q 172 793 172 407 l 170 940 q 292 1053 168 1053 l 1124 1053 q 1218 1024 1188 1053 q 1245 935 1248 996 l 1245 849 q 1216 758 1245 787 q 1124 732 1187 730 l 283 732 q 237 94 279 283 q 134 -91 197 -91 m 1090 826 q 1134 869 1131 826 l 1134 911 q 1122 943 1134 932 q 1090 955 1111 954 l 328 955 q 296 943 308 955 q 285 911 285 932 l 285 826 l 1090 826 m 581 563 q 529 602 553 563 q 492 673 492 658 q 547 718 492 718 q 598 685 576 718 q 637 606 637 629 q 581 563 637 563 m 355 -133 q 301 -79 301 -133 q 382 -9 301 -46 q 537 187 513 49 l 357 187 q 302 236 302 187 q 357 285 302 285 l 549 285 q 559 454 560 420 l 395 454 q 339 503 339 454 q 395 552 339 552 l 914 552 l 966 665 q 994 703 978 690 q 1029 716 1009 716 q 1085 670 1085 716 q 1070 631 1085 654 l 1048 594 l 1021 552 l 1194 552 q 1251 503 1251 552 q 1194 454 1251 454 l 1023 454 l 1023 285 l 1252 285 q 1309 236 1309 285 q 1252 187 1309 187 l 1023 187 l 1023 -71 q 966 -133 1023 -133 q 911 -71 911 -133 l 911 187 l 644 187 q 587 26 631 92 q 461 -88 543 -39 q 355 -133 387 -133 m 911 454 l 663 454 q 656 285 663 376 l 911 285 l 911 454 z "},"屯":{"ha":1389,"x_min":98,"x_max":1310,"o":"m 968 -96 q 669 -68 720 -96 q 613 20 617 -39 l 613 266 l 317 266 q 218 302 254 266 q 190 391 187 335 l 190 658 q 245 726 190 726 q 302 658 302 726 l 302 435 q 359 377 302 380 l 613 377 l 613 830 l 160 804 q 114 818 130 803 q 98 861 98 833 q 119 903 98 890 q 186 917 141 916 q 613 935 369 921 l 613 1048 q 669 1104 613 1104 q 726 1048 726 1104 l 726 943 q 1042 991 883 959 l 1162 1017 q 1217 952 1217 1017 q 1175 905 1217 916 q 726 840 975 859 l 726 377 l 1012 377 q 1070 435 1067 377 l 1070 682 q 1126 754 1070 754 q 1183 682 1183 754 l 1183 391 q 1146 296 1183 328 q 1054 266 1111 264 l 726 266 l 726 76 q 745 30 726 35 q 935 12 784 19 q 1168 42 1142 19 q 1182 74 1177 50 q 1191 138 1187 98 q 1251 209 1198 209 q 1310 140 1310 209 q 1261 -47 1310 -1 q 968 -96 1208 -96 z "},"山":{"ha":1389,"x_min":149,"x_max":1240,"o":"m 282 -53 q 228 -45 252 -53 q 179 -16 203 -37 q 151 79 149 23 l 151 798 q 209 868 151 868 q 251 851 237 868 q 264 798 264 834 l 264 121 q 330 56 264 57 l 636 56 l 636 1025 q 650 1080 636 1062 q 693 1097 665 1097 q 750 1025 750 1097 l 750 56 l 1061 56 q 1126 121 1124 56 l 1126 798 q 1183 868 1126 868 q 1226 851 1213 868 q 1240 798 1240 834 l 1240 79 q 1202 -24 1240 15 q 1108 -53 1173 -56 l 282 -53 z "},"岡":{"ha":1389,"x_min":140,"x_max":1255,"o":"m 1221 1013 q 1255 910 1255 981 l 1255 0 q 1221 -92 1255 -61 q 1123 -123 1187 -123 l 1010 -123 q 947 -64 947 -123 q 1008 -4 947 -4 l 1084 -4 q 1128 8 1114 -4 q 1142 47 1142 20 l 1142 880 q 1084 939 1142 939 l 311 939 q 252 880 252 939 l 252 -66 q 195 -129 252 -129 q 140 -66 140 -129 l 140 905 q 174 1013 140 978 q 282 1047 208 1050 l 1112 1047 q 1221 1013 1185 1047 m 1021 170 q 994 80 1021 109 q 907 53 967 52 l 483 53 q 394 81 422 53 q 369 170 366 109 l 369 454 q 423 509 369 509 q 476 454 476 509 l 476 199 q 517 159 476 161 l 643 159 l 643 585 l 355 585 q 298 636 298 585 q 355 686 298 686 l 780 686 q 841 854 817 777 q 902 913 860 913 q 958 867 958 913 q 882 686 958 834 l 1039 686 q 1096 636 1096 686 q 1039 585 1096 585 l 746 585 l 746 159 l 875 159 q 904 170 894 159 q 916 199 914 180 l 916 454 q 967 509 916 509 q 1021 454 1021 509 l 1021 170 m 528 705 q 457 791 494 705 q 430 861 430 853 q 483 905 430 905 q 551 841 517 905 q 585 754 585 777 q 528 705 585 705 z "},"峨":{"ha":1389,"x_min":115,"x_max":1314,"o":"m 225 58 q 115 170 115 58 l 115 845 q 161 897 115 897 q 206 845 206 897 l 206 190 q 233 163 206 163 l 278 163 l 278 1050 q 324 1101 278 1101 q 369 1050 369 1101 l 369 163 l 416 163 q 442 190 439 163 l 442 845 q 487 897 442 897 q 533 845 533 897 l 533 170 q 423 58 533 58 l 225 58 m 1207 -122 q 1034 84 1119 -122 q 861 -66 910 -66 q 815 -14 815 -66 q 859 46 815 15 q 997 190 925 96 q 937 623 956 331 l 788 623 l 788 416 l 865 446 q 894 452 880 452 q 935 403 935 452 q 788 317 935 369 l 788 7 q 759 -92 788 -61 q 665 -119 730 -123 l 594 -119 q 544 -66 544 -119 q 594 -12 544 -12 l 643 -12 q 689 33 688 -12 l 689 285 l 654 273 q 586 256 606 256 q 538 309 538 256 q 605 363 538 345 q 656 377 654 377 q 689 387 684 385 l 689 623 l 602 623 q 541 673 541 623 q 602 723 541 723 l 689 723 l 689 929 l 567 909 q 536 920 547 906 q 525 962 525 935 q 601 1012 525 1002 q 808 1054 751 1032 q 846 1062 830 1062 q 898 1006 898 1062 q 788 947 898 971 l 788 723 l 935 723 l 926 1028 q 939 1083 925 1065 q 981 1101 954 1101 q 1032 1043 1032 1101 l 1034 723 l 1242 723 q 1305 673 1305 723 q 1242 623 1305 623 l 1038 623 q 1069 298 1048 399 q 1143 461 1119 387 q 1207 545 1172 545 q 1259 503 1259 545 q 1100 178 1259 426 q 1153 57 1126 103 q 1202 3 1185 3 q 1227 122 1226 3 q 1270 168 1227 168 q 1314 123 1314 168 q 1207 -122 1314 -122 m 1219 800 q 1164 845 1192 800 l 1142 886 l 1122 924 q 1112 941 1119 928 q 1105 959 1105 954 q 1157 1004 1105 1004 q 1226 937 1183 1004 q 1271 849 1271 871 q 1219 800 1271 800 z "},"峰":{"ha":1389,"x_min":121,"x_max":1314,"o":"m 618 496 q 586 509 597 496 q 575 543 575 521 q 628 598 575 578 q 859 711 768 654 q 754 854 792 780 q 621 738 661 738 q 575 788 575 738 q 613 845 575 810 q 772 1055 713 941 q 833 1107 799 1107 q 873 1097 860 1107 q 886 1065 886 1086 q 852 994 886 1046 l 1123 994 q 1217 933 1217 994 q 1008 709 1217 864 q 1264 612 1112 644 q 1314 557 1314 601 q 1261 502 1314 502 q 1109 548 1217 502 q 928 652 1006 593 q 618 496 686 496 m 243 56 q 121 180 121 56 l 121 842 q 171 899 121 899 q 220 842 220 899 l 220 191 q 247 165 220 167 l 293 165 l 293 1048 q 343 1104 293 1104 q 393 1048 393 1104 l 393 165 l 439 165 q 465 191 464 165 l 465 842 q 515 899 465 899 q 566 842 566 899 l 566 180 q 442 56 566 49 l 243 56 m 935 762 q 1081 899 1081 876 q 1070 906 1081 906 l 821 906 q 935 762 853 836 m 930 -134 q 879 -73 879 -134 l 879 52 l 629 52 q 578 96 578 52 q 629 141 578 141 l 879 141 l 879 225 l 696 225 q 661 235 673 225 q 650 267 650 245 q 696 309 650 309 l 879 309 l 879 387 l 673 387 q 624 431 624 387 q 673 475 624 475 l 879 475 l 879 533 q 930 582 879 582 q 981 533 981 582 l 981 475 l 1194 475 q 1242 430 1242 475 q 1194 387 1242 387 l 981 387 l 981 309 l 1166 309 q 1213 267 1213 309 q 1166 225 1213 225 l 981 225 l 981 141 l 1257 141 q 1309 96 1309 141 q 1257 52 1309 52 l 981 52 l 981 -73 q 930 -134 981 -134 z "},"島":{"ha":1389,"x_min":118,"x_max":1294,"o":"m 1171 332 q 1294 227 1294 332 q 1237 -69 1294 -4 q 1158 -114 1210 -100 q 1029 -127 1107 -127 q 975 -115 993 -127 q 956 -73 956 -102 q 1035 -16 956 -16 q 1106 -6 1076 -16 q 1152 22 1137 4 q 1180 193 1180 54 q 1131 243 1180 243 l 587 243 l 587 57 l 815 57 q 852 95 853 57 l 852 157 q 906 208 852 208 q 960 157 960 208 l 960 69 q 935 -14 960 12 q 850 -39 909 -41 l 235 -39 q 127 69 118 -39 l 127 157 q 179 209 127 209 q 232 157 232 209 l 232 95 q 269 57 232 56 l 481 57 l 481 243 l 330 243 q 233 270 263 243 q 209 354 203 297 l 209 895 q 330 1008 198 1009 l 562 1008 q 566 1027 563 1015 q 576 1063 570 1040 q 643 1111 593 1111 q 688 1101 673 1111 q 704 1076 704 1092 q 694 1029 704 1058 l 685 1008 l 1053 1008 q 1175 895 1187 1008 l 1175 696 q 1055 583 1185 583 l 320 583 l 320 500 l 1214 500 q 1268 456 1268 500 q 1214 412 1268 412 l 320 412 l 320 368 q 357 332 320 331 l 1171 332 m 357 920 q 320 883 319 920 l 320 840 l 1062 840 l 1062 883 q 1025 920 1062 921 l 357 920 m 1025 670 q 1062 708 1063 670 l 1062 754 l 320 754 l 320 670 l 1025 670 z "},"峽":{"ha":1389,"x_min":114,"x_max":1314,"o":"m 481 -121 q 426 -62 426 -121 q 484 3 426 -20 q 826 365 772 113 q 853 806 853 491 l 632 806 q 568 860 568 806 q 632 913 568 913 l 853 913 l 852 1043 q 907 1107 852 1107 q 963 1032 963 1107 l 963 913 l 1233 913 q 1281 899 1264 913 q 1298 859 1298 884 q 1233 806 1298 806 l 963 806 q 941 442 963 568 q 1279 12 1039 134 q 1314 -47 1314 -5 q 1257 -115 1314 -115 q 1093 1 1206 -115 q 909 290 978 121 q 534 -103 825 30 q 481 -121 496 -121 m 228 60 q 114 171 114 60 l 114 846 q 164 899 114 899 q 213 846 213 899 l 213 194 q 237 170 213 170 l 278 170 l 278 1053 q 327 1105 278 1105 q 376 1053 376 1105 l 376 170 l 422 170 q 444 194 442 170 l 444 846 q 456 886 444 872 q 494 899 469 899 q 543 846 543 899 l 543 174 q 430 60 543 56 l 228 60 m 606 282 q 555 335 555 282 q 574 388 555 350 q 666 693 646 534 q 712 739 673 739 q 750 728 736 739 q 764 697 764 718 l 760 666 l 736 549 q 831 408 831 438 q 781 354 831 354 q 718 418 755 354 l 703 442 q 606 282 644 282 m 1255 312 q 1200 357 1225 312 q 1128 460 1184 387 q 1035 327 1078 327 q 997 340 1010 327 q 983 378 983 353 q 1010 445 983 395 q 1058 555 1034 486 q 1095 694 1081 618 q 1146 739 1103 739 q 1196 694 1196 739 l 1190 659 l 1161 562 q 1310 368 1310 412 q 1255 312 1310 312 z "},"崁":{"ha":1389,"x_min":77,"x_max":1310,"o":"m 293 770 q 200 798 229 770 q 174 886 171 826 l 174 1017 q 229 1076 174 1076 q 285 1017 285 1076 l 285 909 q 296 878 285 888 q 328 865 308 867 l 629 865 l 629 1047 q 685 1105 629 1105 q 741 1047 741 1105 l 741 865 l 1059 865 q 1103 909 1103 865 l 1103 1017 q 1158 1076 1103 1076 q 1214 1017 1214 1076 l 1214 886 q 1186 795 1214 823 q 1095 770 1158 768 l 293 770 m 1101 289 q 1068 302 1082 289 q 1054 332 1054 315 q 1069 376 1054 357 q 1128 458 1114 435 q 1137 480 1137 471 q 1126 500 1137 492 q 1100 507 1116 507 l 726 507 q 572 330 628 330 q 536 341 549 330 q 524 372 524 353 q 529 401 524 388 q 547 429 534 414 q 697 704 637 541 q 722 745 708 732 q 757 758 735 758 q 817 716 817 758 q 798 650 817 690 l 777 608 l 1202 608 q 1268 591 1244 608 q 1293 545 1293 574 q 1276 495 1293 524 q 1226 415 1255 457 q 1146 305 1153 312 q 1101 289 1133 289 m 122 9 q 77 62 77 9 q 90 100 77 87 q 138 119 103 113 l 262 142 l 262 439 l 148 439 q 99 451 114 439 q 84 490 84 463 q 99 526 84 515 q 148 537 114 537 l 262 537 l 262 684 q 315 742 262 742 q 368 684 368 742 l 368 537 l 471 537 q 519 526 505 537 q 534 490 534 515 q 519 451 534 463 q 471 439 505 439 l 368 439 l 368 165 l 463 189 q 513 195 491 195 q 541 183 530 195 q 551 146 551 171 q 515 99 551 111 q 352 52 418 68 q 186 16 286 35 q 122 9 151 9 m 430 -133 q 376 -80 376 -133 q 389 -47 376 -60 q 430 -28 401 -35 q 675 82 591 15 q 791 271 760 149 q 812 446 808 340 q 826 488 814 476 q 864 499 838 499 q 904 487 892 499 q 916 446 916 475 q 911 349 916 401 q 1030 138 947 228 q 1251 -16 1114 47 q 1297 -45 1283 -31 q 1310 -80 1310 -58 q 1297 -118 1310 -106 q 1253 -130 1283 -130 q 1034 -14 1180 -130 q 872 197 937 64 q 764 20 833 83 q 574 -98 669 -65 q 484 -125 515 -117 q 430 -133 452 -133 z "},"崎":{"ha":1389,"x_min":121,"x_max":1317,"o":"m 517 899 q 554 884 541 899 q 567 842 567 869 l 567 180 q 536 85 567 117 q 444 56 505 53 l 243 56 q 121 180 121 56 l 121 842 q 171 899 121 899 q 220 842 220 899 l 220 190 q 247 164 220 165 l 293 164 l 293 1047 q 343 1104 293 1104 q 393 1047 393 1104 l 393 164 l 441 164 q 460 170 454 164 q 467 190 465 175 l 467 842 q 517 899 467 899 m 652 872 q 597 920 597 872 q 652 967 597 967 l 884 967 l 887 1048 q 940 1104 890 1104 q 962 1101 955 1104 q 979 1090 970 1099 q 990 1074 987 1084 q 991 1044 993 1063 l 987 967 l 1238 967 q 1294 920 1294 967 q 1238 872 1294 872 l 974 872 q 944 780 960 811 q 981 795 963 795 q 1183 722 1023 795 q 1260 658 1260 688 q 1203 605 1260 605 q 1149 627 1183 605 q 960 722 1053 688 q 929 757 928 735 q 796 650 883 688 q 655 609 704 609 q 608 656 608 609 q 662 703 608 693 q 873 872 856 739 l 652 872 m 1257 576 q 1317 528 1317 576 q 1303 492 1317 503 q 1257 480 1289 480 l 1215 480 l 1215 12 q 1074 -127 1225 -137 l 1004 -127 q 947 -76 947 -127 q 960 -37 947 -49 q 1004 -24 974 -24 l 1059 -24 q 1114 30 1115 -24 l 1114 480 l 643 480 q 583 528 583 480 q 643 576 583 576 l 1257 576 m 1010 138 q 905 28 1010 28 l 761 28 q 652 140 652 28 l 652 285 q 761 395 652 400 l 902 395 q 1010 282 1010 395 l 1010 138 m 876 122 q 916 161 917 122 l 916 262 q 907 292 916 282 q 876 300 898 301 l 787 300 q 755 291 765 300 q 747 262 746 282 l 747 161 q 756 132 747 141 q 787 122 765 122 l 876 122 z "},"崙":{"ha":1389,"x_min":75,"x_max":1314,"o":"m 123 460 q 75 515 75 460 q 111 563 75 549 l 235 606 q 589 796 426 674 l 290 796 q 198 824 227 796 q 174 913 170 852 l 174 1009 q 229 1065 174 1065 q 286 1015 286 1065 l 286 939 q 328 897 286 899 l 631 897 l 631 1050 q 686 1105 631 1105 q 743 1050 743 1105 l 743 897 l 1059 897 q 1101 939 1101 897 l 1101 1009 q 1158 1065 1101 1065 q 1214 1009 1214 1065 l 1214 913 q 1097 796 1223 789 l 772 796 q 989 675 845 741 q 1227 591 1116 617 q 1293 567 1271 581 q 1314 533 1314 553 q 1261 473 1314 473 q 997 563 1192 473 l 993 566 q 998 544 998 556 q 940 498 998 498 l 444 498 q 389 544 389 498 l 392 562 q 123 460 184 460 m 940 590 q 684 750 803 658 q 446 590 589 667 l 940 590 m 225 -133 q 174 -80 174 -133 l 174 301 q 203 393 174 363 q 296 418 232 422 l 1097 418 q 1192 390 1162 418 q 1217 301 1221 362 l 1217 4 q 1187 -94 1217 -62 q 1095 -127 1158 -126 l 1025 -127 q 968 -76 968 -127 q 1019 -22 968 -22 l 1065 -22 q 1112 27 1109 -22 l 1112 113 l 887 113 l 887 -72 q 840 -121 887 -121 q 792 -72 792 -121 l 792 113 l 581 113 l 581 -72 q 533 -121 581 -121 q 486 -72 486 -121 l 486 113 l 278 113 l 278 -80 q 265 -120 278 -107 q 225 -133 252 -133 m 486 330 l 321 330 q 278 285 281 330 l 278 199 l 486 199 l 486 330 m 792 199 l 792 330 l 581 330 l 581 199 l 792 199 m 1112 285 q 1069 330 1112 327 l 887 330 l 887 199 l 1112 199 l 1112 285 z "},"嶼":{"ha":1389,"x_min":104,"x_max":1318,"o":"m 524 170 q 496 85 524 114 q 414 57 468 57 l 217 57 q 104 170 104 57 l 104 845 q 152 898 104 898 q 198 845 198 898 l 198 190 q 224 164 198 164 l 266 164 l 266 1050 q 313 1103 266 1103 q 359 1050 359 1103 l 359 164 l 404 164 q 430 190 429 164 l 430 845 q 476 898 430 898 q 524 845 524 898 l 524 255 q 549 262 534 262 l 586 262 l 568 944 q 642 1023 567 994 l 692 1047 q 755 1069 736 1069 q 798 1023 798 1069 q 780 993 798 1006 q 720 963 762 979 q 681 940 692 952 q 670 913 670 928 l 673 787 l 735 787 q 769 774 757 787 q 781 741 781 762 q 735 694 781 694 l 675 694 l 680 537 l 734 537 q 781 491 781 537 q 734 445 781 445 l 682 445 l 688 262 l 943 262 l 943 644 q 910 674 943 674 l 880 674 q 829 695 846 674 q 812 754 812 716 l 812 1061 q 857 1109 812 1109 q 902 1061 902 1109 l 902 1006 l 972 1006 q 1012 994 998 1006 q 1025 956 1025 981 q 972 907 1025 907 l 902 907 l 902 800 q 933 769 902 772 l 963 769 q 1013 749 996 769 q 1029 692 1029 728 l 1029 262 l 1149 262 l 1154 445 l 1096 445 q 1047 491 1047 445 q 1096 537 1047 537 l 1156 537 l 1158 694 l 1095 694 q 1046 741 1046 694 q 1059 774 1046 762 q 1095 787 1072 787 l 1161 787 l 1164 902 q 1156 930 1164 922 q 1127 940 1147 939 l 1081 940 q 1044 954 1057 940 q 1031 990 1031 967 q 1045 1027 1031 1015 q 1084 1040 1059 1040 l 1162 1040 q 1267 954 1267 1040 l 1249 262 l 1278 262 q 1318 214 1318 262 q 1278 167 1318 167 l 549 167 q 524 174 534 167 l 524 170 m 850 316 q 819 328 830 316 q 808 362 808 340 l 808 574 q 819 609 808 597 q 850 621 830 621 q 883 609 872 621 q 894 574 894 597 l 894 362 q 883 328 894 340 q 850 316 872 316 m 747 129 q 804 79 804 129 q 680 -42 804 34 q 507 -121 551 -121 q 456 -66 456 -121 q 526 1 456 -38 q 704 110 635 62 q 747 129 731 129 m 1272 -5 q 1313 -58 1313 -24 q 1259 -114 1313 -114 q 1100 -35 1214 -114 q 990 79 990 41 q 1047 127 990 127 q 1086 109 1063 127 q 1272 -5 1183 34 z "},"巒":{"ha":1389,"x_min":72,"x_max":1313,"o":"m 170 689 l 228 769 q 167 825 195 800 q 121 861 138 850 q 79 913 79 887 q 90 950 79 937 q 123 963 102 963 q 163 945 138 963 q 205 1017 190 989 q 227 1053 224 1048 q 256 1092 244 1080 q 285 1104 269 1104 q 338 1055 338 1104 q 229 891 338 1024 l 283 845 l 327 911 q 363 960 349 945 q 395 975 378 975 q 444 926 444 975 q 351 788 444 901 l 277 696 l 281 696 l 381 703 l 380 703 q 363 745 363 731 q 406 780 363 780 q 471 708 434 780 q 507 623 507 639 q 464 578 507 578 q 437 590 449 578 q 412 628 425 602 l 357 621 l 340 620 l 340 311 q 293 256 340 256 q 245 311 245 256 l 245 605 l 115 593 q 83 604 95 591 q 72 642 72 617 q 164 689 72 685 l 170 689 m 507 860 q 471 871 484 860 q 458 905 458 883 q 507 948 458 948 l 826 948 q 871 922 860 948 q 913 958 875 958 q 947 943 930 958 q 1012 1053 981 993 q 1070 1104 1039 1104 q 1123 1055 1123 1104 q 1009 888 1123 1021 l 1070 831 l 1122 909 q 1161 960 1146 944 q 1191 975 1176 975 q 1240 926 1240 975 q 1199 855 1240 911 q 1070 693 1158 799 l 1177 700 q 1160 745 1160 735 q 1202 780 1160 780 q 1267 708 1230 780 q 1303 623 1303 639 q 1260 578 1303 578 q 1208 627 1232 578 l 1137 618 l 1137 311 q 1089 256 1137 256 q 1042 311 1042 256 l 1042 605 l 898 590 q 865 602 878 589 q 853 639 853 614 q 865 670 853 659 q 901 682 878 681 l 963 686 l 1013 754 q 905 856 930 837 q 872 892 880 875 q 826 860 868 860 l 507 860 m 556 997 q 507 1040 507 997 q 520 1074 507 1062 q 556 1085 533 1085 l 804 1085 q 841 1074 827 1085 q 854 1040 854 1062 q 804 997 854 997 l 556 997 m 804 812 q 854 769 854 812 q 804 726 854 726 l 556 726 q 507 769 507 726 q 556 812 507 812 l 804 812 m 795 677 q 848 633 848 677 q 798 590 848 590 l 562 590 q 515 633 515 590 q 563 677 515 677 l 795 677 m 1308 382 q 1299 349 1313 362 q 1260 335 1284 335 q 1238 339 1248 335 q 1226 351 1229 343 l 1218 370 l 1181 495 q 1175 528 1175 519 q 1221 567 1175 567 q 1284 471 1255 567 l 1308 382 m 905 524 q 951 564 911 564 q 985 553 972 564 q 997 524 997 543 l 990 467 q 926 323 974 323 q 889 334 902 323 q 876 363 876 345 q 883 401 876 376 q 905 524 890 423 m 197 467 q 173 360 187 395 q 134 326 159 326 q 83 370 83 326 l 109 513 q 157 560 117 560 q 191 550 179 560 q 202 522 202 540 l 201 499 l 197 467 m 415 559 q 473 463 453 559 l 488 382 q 479 351 492 362 q 442 339 467 339 q 406 354 416 339 q 384 452 399 363 l 372 519 q 381 549 369 538 q 415 559 393 559 m 506 456 q 598 544 506 544 l 766 544 q 860 453 860 544 l 860 376 q 836 310 860 332 q 766 288 811 288 l 598 288 q 530 310 553 288 q 506 376 507 332 l 506 456 m 595 397 q 621 370 595 373 l 745 370 q 769 397 769 370 l 769 437 q 745 461 769 460 l 621 461 q 595 437 598 461 l 595 397 m 1158 229 q 1214 161 1214 229 l 1214 34 q 1185 -60 1214 -31 q 1095 -87 1157 -90 l 297 -87 q 204 -58 233 -87 q 176 34 175 -30 l 176 161 q 232 229 176 229 q 288 161 288 229 l 288 57 q 332 12 288 15 l 633 12 l 633 197 q 689 266 633 266 q 745 197 745 266 l 745 12 l 1058 12 q 1103 57 1100 12 l 1103 161 q 1158 229 1103 229 z "},"州":{"ha":1389,"x_min":77,"x_max":1256,"o":"m 151 -99 q 94 -39 94 -99 q 153 42 94 -9 q 312 300 283 159 q 346 739 345 460 l 349 1020 q 401 1088 349 1088 q 454 1023 454 1088 l 452 690 q 416 271 450 434 q 294 11 385 122 q 151 -99 203 -99 m 1200 -127 q 1146 -60 1146 -127 l 1146 1019 q 1200 1088 1146 1088 q 1256 1019 1256 1088 l 1256 -60 q 1200 -127 1256 -127 m 784 -56 q 730 11 730 -56 l 730 1004 q 784 1070 730 1070 q 837 1004 837 1070 l 837 11 q 784 -56 837 -56 m 127 304 q 77 353 77 304 q 85 378 77 359 q 149 747 146 507 q 197 814 149 814 q 243 764 243 814 l 241 723 q 195 381 235 495 q 127 304 170 304 m 1039 315 q 1004 333 1017 315 q 985 391 991 351 q 905 713 949 586 l 894 755 q 936 795 894 795 q 986 747 970 795 q 1021 637 1000 709 l 1029 610 q 1047 547 1044 559 q 1054 517 1053 528 q 1088 362 1088 387 q 1039 315 1088 315 m 632 319 q 590 347 602 319 q 574 427 583 365 q 507 716 555 568 q 500 747 500 736 q 544 785 500 785 q 608 684 575 785 q 680 373 680 454 q 632 319 680 319 z "},"巢":{"ha":1389,"x_min":81,"x_max":1308,"o":"m 750 758 q 706 770 728 758 q 655 806 684 781 l 605 848 l 559 886 q 525 940 525 914 q 557 990 525 966 l 612 1034 l 665 1077 q 703 1103 688 1096 q 741 1109 719 1109 q 772 1097 758 1109 q 787 1069 787 1085 q 777 1037 787 1051 q 741 1005 766 1023 q 701 981 716 989 l 656 954 q 643 939 643 945 q 655 925 643 933 q 770 848 743 869 q 798 806 798 827 q 784 771 798 784 q 750 758 770 758 m 1103 758 q 1062 769 1082 758 q 1008 806 1042 780 q 999 813 1002 810 q 993 819 996 817 q 975 833 983 826 q 958 848 967 841 l 911 886 q 878 940 878 914 q 910 990 878 966 l 964 1034 l 1017 1077 q 1056 1103 1040 1096 q 1093 1109 1072 1109 q 1125 1097 1111 1109 q 1139 1069 1139 1085 q 1130 1038 1139 1053 q 1093 1005 1120 1024 q 1043 974 1077 993 q 1009 954 1020 960 q 996 939 996 945 q 1008 925 996 932 q 1118 856 1086 883 q 1150 806 1150 829 q 1137 771 1150 784 q 1103 758 1123 758 m 410 758 q 364 770 388 758 q 305 808 340 783 q 210 884 250 849 q 179 939 179 913 q 213 994 179 964 q 256 1027 213 994 q 327 1080 316 1070 q 395 1108 361 1108 q 430 1096 415 1108 q 445 1067 445 1084 q 430 1033 445 1050 q 378 993 415 1016 l 342 970 l 309 949 q 298 936 298 943 q 307 926 298 930 q 422 854 388 882 q 457 803 457 827 q 443 772 457 785 q 410 758 429 758 m 686 -130 q 648 -114 662 -130 q 635 -66 635 -98 l 635 119 q 507 28 570 69 q 370 -45 445 -12 q 129 -119 199 -119 q 81 -68 81 -119 q 145 -14 81 -27 q 363 56 263 12 q 564 159 464 100 l 564 160 l 156 160 q 111 171 123 160 q 99 206 99 182 q 112 241 99 231 q 156 252 125 252 l 635 252 l 635 319 l 300 319 q 233 342 256 319 q 209 410 209 366 l 209 643 q 233 710 209 686 q 300 734 256 734 l 1088 734 q 1155 710 1131 734 q 1179 643 1179 686 l 1179 410 q 1155 342 1179 366 q 1088 319 1131 319 l 738 319 l 738 252 l 1230 252 q 1276 241 1263 252 q 1290 205 1290 231 q 1230 155 1290 155 l 804 155 q 1008 53 901 96 q 1221 -4 1116 9 q 1287 -24 1267 -9 q 1308 -61 1308 -38 q 1253 -115 1308 -115 q 1168 -98 1238 -115 q 738 125 932 -38 l 738 -66 q 724 -114 738 -98 q 686 -130 711 -130 m 635 647 l 355 647 q 323 635 335 647 q 312 604 312 624 l 312 570 l 635 570 l 635 647 m 1076 604 q 1065 635 1076 624 q 1032 647 1054 647 l 738 647 l 738 570 l 1076 570 l 1076 604 m 312 448 q 355 407 312 407 l 635 407 l 635 486 l 312 486 l 312 448 m 1032 407 q 1076 450 1076 407 l 1076 486 l 738 486 l 738 407 l 1032 407 z "},"左":{"ha":1389,"x_min":79,"x_max":1310,"o":"m 136 0 q 79 62 79 0 q 113 126 79 92 q 449 798 357 381 l 160 798 q 91 854 91 798 q 160 910 91 910 l 472 910 l 490 1043 q 552 1104 498 1104 q 613 1050 613 1104 l 609 1013 l 590 910 l 1230 910 q 1302 854 1302 910 q 1230 798 1302 798 l 568 798 q 351 243 500 503 q 227 62 282 123 q 136 0 172 0 m 393 -69 q 324 -14 324 -69 q 393 41 324 41 l 784 41 l 784 418 l 568 418 q 510 472 510 418 q 568 526 510 526 l 1164 526 q 1232 472 1232 526 q 1164 418 1232 418 l 899 418 l 899 41 l 1238 41 q 1310 -15 1310 41 q 1238 -69 1310 -69 l 393 -69 z "},"市":{"ha":1389,"x_min":77,"x_max":1312,"o":"m 138 830 q 92 843 107 830 q 77 884 77 856 q 92 924 77 911 q 138 937 107 937 l 623 937 l 623 1044 q 684 1104 623 1104 q 745 1044 745 1104 l 745 937 l 1249 937 q 1312 884 1312 937 q 1296 843 1312 856 q 1249 830 1280 830 l 138 830 m 684 -130 q 627 -68 627 -130 l 627 533 l 377 533 q 325 515 343 533 q 307 464 307 498 l 307 53 q 293 7 307 22 q 250 -8 279 -8 q 193 53 193 -8 l 193 500 q 331 639 182 650 l 627 639 l 627 749 q 684 802 627 802 q 742 749 742 802 l 742 639 l 1055 639 q 1194 500 1204 650 l 1194 140 q 1047 -7 1204 -16 l 948 -7 q 888 52 888 -7 q 948 113 888 113 l 1013 113 q 1080 179 1080 113 l 1080 464 q 1062 515 1080 498 q 1010 533 1044 533 l 742 533 l 742 -68 q 684 -130 742 -130 z "},"布":{"ha":1389,"x_min":77,"x_max":1312,"o":"m 747 -130 q 696 -66 696 -130 l 696 480 l 461 480 q 416 435 419 480 l 416 26 q 362 -37 416 -37 q 309 26 309 -37 l 309 461 q 129 320 171 320 q 77 380 77 320 q 132 449 77 408 q 465 823 358 617 l 144 823 q 81 878 81 823 q 144 929 81 929 l 514 929 l 555 1039 q 582 1088 568 1073 q 616 1104 595 1104 q 675 1061 675 1104 q 629 929 675 1044 l 1246 929 q 1312 876 1312 929 q 1246 823 1312 823 l 581 823 q 419 582 522 709 l 696 582 l 696 701 q 709 749 696 734 q 749 765 722 765 q 789 749 776 765 q 802 701 802 734 l 802 582 l 1095 582 q 1195 551 1164 582 q 1222 454 1226 521 l 1222 113 q 1189 1 1222 35 q 1080 -30 1156 -34 l 991 -30 q 924 27 924 -30 q 991 85 924 85 l 1055 85 q 1111 140 1108 85 l 1111 425 q 1057 480 1111 477 l 802 480 l 802 -66 q 789 -115 802 -99 q 747 -130 776 -130 z "},"平":{"ha":1389,"x_min":88,"x_max":1301,"o":"m 1234 396 q 1301 343 1301 396 q 1234 290 1301 290 l 749 290 l 749 -61 q 734 -113 749 -96 q 689 -129 720 -129 q 629 -61 629 -129 l 629 290 l 153 290 q 104 303 119 290 q 88 343 88 316 q 153 396 88 396 l 629 396 l 629 922 l 218 922 q 156 975 156 922 q 218 1028 156 1028 l 1156 1028 q 1222 975 1222 1028 q 1156 922 1222 922 l 749 922 l 749 396 l 1234 396 m 1099 825 q 1147 811 1130 825 q 1165 774 1165 798 q 1088 572 1165 735 q 1010 488 1047 488 q 961 500 977 488 q 945 540 945 513 q 966 597 945 559 l 1046 783 q 1099 825 1066 825 m 376 486 q 307 556 334 486 q 248 693 285 613 q 229 739 236 719 q 222 770 222 758 q 238 802 222 789 q 277 814 254 814 q 315 800 298 814 q 346 760 331 787 q 439 541 439 576 q 420 500 439 515 q 376 486 400 486 z "},"庄":{"ha":1389,"x_min":77,"x_max":1303,"o":"m 137 -88 q 77 -23 77 -88 q 96 30 77 -3 q 193 663 193 198 l 190 833 q 324 952 189 952 l 671 952 l 671 1043 q 732 1104 671 1104 q 793 1043 793 1104 l 793 952 l 1232 952 q 1298 902 1298 952 q 1232 850 1298 850 l 369 850 q 304 777 304 850 l 305 575 q 251 102 307 302 q 137 -88 198 -88 m 362 -62 q 296 -7 296 -62 q 362 49 296 49 l 742 49 l 742 412 l 445 412 q 377 467 377 412 q 445 521 377 521 l 742 521 l 742 734 q 800 803 742 803 q 859 734 859 803 l 859 521 l 1176 521 q 1242 467 1242 521 q 1176 412 1242 412 l 859 412 l 859 49 l 1233 49 q 1303 -7 1303 49 q 1233 -62 1303 -62 l 362 -62 z "},"店":{"ha":1389,"x_min":79,"x_max":1297,"o":"m 136 -92 q 79 -35 79 -92 q 102 28 79 -14 q 194 639 194 195 l 190 845 q 316 964 189 964 l 675 964 l 675 1050 q 735 1104 675 1104 q 795 1050 795 1104 l 795 964 l 1236 964 q 1297 913 1297 964 q 1236 861 1297 861 l 359 861 q 301 798 301 861 l 302 594 q 248 99 304 307 q 193 -44 222 4 q 136 -92 164 -92 m 510 -80 q 406 -50 438 -80 q 378 49 373 -19 l 378 247 q 409 349 378 317 q 510 376 439 381 l 694 376 l 694 765 q 747 815 694 815 q 802 765 802 815 l 802 650 l 1194 650 q 1255 601 1255 650 q 1194 552 1255 552 l 802 552 l 802 376 l 1092 376 q 1194 345 1162 376 q 1221 247 1225 315 l 1221 49 q 1190 -53 1221 -22 q 1092 -80 1160 -84 l 510 -80 m 1048 16 q 1094 33 1078 16 q 1111 80 1109 49 l 1111 216 q 1048 278 1111 275 l 549 278 q 503 262 519 278 q 486 216 487 245 l 486 80 q 503 34 486 50 q 549 16 519 18 l 1048 16 z "},"度":{"ha":1389,"x_min":75,"x_max":1313,"o":"m 285 605 q 244 73 285 248 q 193 -81 220 -33 q 133 -129 165 -129 q 75 -69 75 -129 q 94 -14 75 -52 q 155 222 137 73 q 172 605 172 372 l 172 876 q 198 953 172 926 q 274 979 224 979 l 700 979 l 700 1054 q 715 1093 700 1078 q 760 1107 731 1107 q 804 1093 788 1107 q 819 1054 819 1078 l 819 979 l 1229 979 q 1290 929 1290 979 q 1229 880 1290 880 l 342 880 q 285 823 285 880 l 285 605 m 621 427 q 546 454 572 427 q 519 529 519 480 l 519 646 l 376 646 q 326 693 326 646 q 339 728 326 716 q 376 741 353 741 l 519 741 l 519 814 q 574 857 519 857 q 627 814 627 857 l 627 741 l 963 741 l 963 810 q 1016 857 963 857 q 1072 810 1072 857 l 1072 741 l 1218 741 q 1271 693 1271 741 q 1218 646 1271 646 l 1072 646 l 1072 529 q 1045 454 1072 480 q 970 427 1019 427 l 621 427 m 963 646 l 627 646 l 627 563 q 636 532 627 541 q 666 522 646 522 l 922 522 q 963 563 963 522 l 963 646 m 1252 -18 q 1313 -71 1313 -22 q 1298 -115 1313 -102 q 1246 -127 1283 -127 q 1010 -92 1143 -126 q 787 -7 876 -57 q 330 -127 590 -103 q 283 -117 300 -130 q 266 -77 266 -104 q 279 -42 266 -56 q 316 -26 293 -28 q 519 7 423 -15 q 680 57 614 28 q 602 102 654 68 q 519 167 551 136 q 503 201 503 183 q 518 233 503 218 q 548 247 532 247 q 585 232 566 247 q 688 161 623 202 q 785 104 753 121 q 897 170 841 132 q 991 247 952 208 q 996 255 996 251 q 982 264 996 264 l 431 264 q 374 313 374 264 q 431 359 374 359 l 1066 359 q 1128 342 1105 359 q 1152 296 1152 324 q 1124 235 1152 266 q 890 56 1029 126 q 1252 -18 1058 -7 z "},"庫":{"ha":1389,"x_min":75,"x_max":1312,"o":"m 133 -100 q 75 -41 75 -100 q 94 15 75 -23 q 187 642 187 194 l 183 857 q 315 982 180 982 l 674 982 l 674 1057 q 736 1105 674 1105 q 798 1057 798 1105 l 798 982 l 1244 982 q 1306 932 1306 982 q 1244 883 1306 883 l 354 883 q 297 826 297 883 l 300 608 q 248 85 304 285 q 133 -100 197 -100 m 798 -134 q 746 -75 746 -134 l 746 22 l 345 22 q 292 68 292 22 q 345 114 292 114 l 746 114 l 746 193 l 505 193 q 414 221 442 193 q 389 309 385 250 l 389 502 q 417 592 389 564 q 505 617 445 620 l 746 617 l 746 692 l 392 692 q 339 736 339 692 q 392 781 339 781 l 746 781 l 746 822 q 798 871 746 871 q 850 822 850 871 l 850 781 l 1236 781 q 1289 736 1289 781 q 1236 692 1289 692 l 850 692 l 850 617 l 1105 617 q 1196 589 1166 617 q 1221 502 1225 562 l 1221 309 q 1193 218 1221 247 q 1105 193 1165 190 l 850 193 l 850 114 l 1255 114 q 1312 68 1312 114 q 1255 22 1312 22 l 850 22 l 850 -75 q 798 -134 850 -134 m 746 534 l 541 534 q 495 491 495 534 l 495 448 l 746 448 l 746 534 m 1112 491 q 1066 534 1112 534 l 850 534 l 850 448 l 1112 448 l 1112 491 m 746 370 l 495 370 l 495 317 q 541 274 495 277 l 746 274 l 746 370 m 1066 274 q 1112 317 1112 274 l 1112 370 l 850 370 l 850 274 l 1066 274 z "},"康":{"ha":1389,"x_min":81,"x_max":1309,"o":"m 296 594 q 271 207 296 377 q 197 -71 245 37 q 141 -117 176 -117 q 118 -113 130 -117 q 81 -66 81 -99 q 91 -28 81 -49 q 166 234 145 91 q 187 597 187 377 l 187 868 q 308 996 187 996 l 701 996 l 701 1050 q 762 1103 701 1103 q 823 1050 823 1103 l 823 996 l 1238 996 q 1290 948 1290 996 q 1238 901 1290 901 l 330 901 q 296 867 296 901 l 296 594 m 1261 23 q 1297 3 1284 16 q 1309 -28 1309 -11 q 1306 -46 1309 -35 q 1287 -77 1301 -66 q 1255 -88 1274 -88 q 1232 -84 1244 -88 q 985 43 1100 -46 q 825 228 869 132 l 825 0 q 795 -98 825 -68 q 697 -127 765 -127 l 604 -127 q 545 -76 545 -127 q 559 -37 545 -49 q 604 -24 574 -24 l 685 -24 q 719 9 719 -24 l 719 350 l 422 350 q 384 361 396 350 q 372 396 372 372 q 422 439 372 439 l 719 439 l 719 526 l 374 526 q 335 538 349 526 q 321 572 321 551 q 335 606 321 594 q 374 618 349 618 l 719 618 l 719 699 l 439 699 q 401 711 415 699 q 388 745 388 723 q 439 788 388 788 l 719 788 l 719 838 q 733 874 719 860 q 772 888 747 888 q 810 874 796 888 q 825 838 825 860 l 825 788 l 1080 788 q 1155 762 1128 788 q 1181 686 1181 735 l 1181 618 l 1259 618 q 1309 572 1309 618 q 1295 538 1309 551 q 1259 526 1282 526 l 1181 526 l 1181 452 q 1155 376 1181 403 q 1080 350 1128 350 l 825 350 q 948 194 869 273 q 1137 324 1046 252 q 1160 338 1150 334 q 1185 343 1171 343 q 1221 330 1207 343 q 1234 296 1234 317 q 1208 251 1234 269 q 1015 138 1133 191 q 1117 81 1051 113 q 1261 23 1183 49 m 825 618 l 1078 618 l 1078 665 q 1044 699 1078 699 l 825 699 l 825 618 m 825 526 l 825 439 l 1044 439 q 1078 473 1078 439 l 1078 526 l 825 526 m 392 243 q 365 286 365 259 q 378 316 365 305 q 411 327 391 327 q 467 310 427 327 q 547 270 507 293 q 589 237 576 252 q 601 205 601 222 q 587 172 601 184 q 553 159 574 159 q 524 168 541 159 q 486 189 506 176 l 392 243 m 656 73 q 555 19 633 57 q 403 -46 475 -20 q 308 -72 334 -72 q 274 -58 286 -72 q 262 -19 262 -43 q 275 14 262 0 q 323 39 288 27 l 351 49 q 532 118 490 99 q 598 144 576 137 q 636 152 620 152 q 666 140 654 152 q 678 110 678 127 q 656 73 678 88 z "},"廟":{"ha":1389,"x_min":75,"x_max":1301,"o":"m 130 -100 q 75 -37 75 -100 q 92 16 75 -19 q 187 632 187 202 l 182 869 q 304 996 180 996 l 673 996 l 673 1055 q 734 1105 673 1105 q 795 1055 795 1105 l 795 996 l 1248 996 q 1301 948 1301 996 q 1248 901 1301 901 l 343 901 q 292 849 292 901 l 296 651 l 297 581 q 247 100 297 301 q 193 -50 222 1 q 130 -100 163 -100 m 574 -134 q 528 -80 528 -134 l 528 56 l 350 56 q 301 99 301 56 q 350 141 301 141 l 528 141 l 528 221 l 449 221 q 351 323 351 221 l 351 505 q 449 605 351 605 l 532 605 l 532 686 l 373 686 q 326 727 326 686 q 373 768 326 768 l 532 768 l 532 830 q 576 876 532 876 q 621 830 621 876 l 621 768 l 785 768 q 833 727 833 768 q 785 686 833 686 l 621 686 l 621 605 l 709 605 q 808 502 808 605 l 808 320 q 709 221 808 221 l 621 221 l 621 141 l 766 141 q 815 98 815 141 q 766 56 815 56 l 621 56 l 621 -80 q 574 -134 621 -134 m 1062 -122 q 1001 -69 1001 -122 q 1058 -16 1001 -16 l 1111 -16 q 1157 30 1154 -16 l 1157 245 l 960 245 q 891 -4 952 110 q 788 -121 830 -121 q 739 -68 739 -121 q 765 -18 739 -47 q 861 216 842 75 q 876 528 876 330 l 875 700 q 901 782 875 755 q 982 808 928 808 l 1149 808 q 1233 783 1207 808 q 1256 701 1259 757 l 1256 8 q 1225 -93 1256 -61 q 1128 -122 1195 -125 l 1062 -122 m 1157 680 q 1120 715 1157 715 l 1005 715 q 967 678 967 715 l 968 568 l 1157 568 l 1157 680 m 718 492 q 682 529 718 526 l 475 529 q 439 492 439 529 l 439 449 l 718 449 l 718 492 m 1157 334 l 1157 480 l 968 480 l 964 334 l 1157 334 m 682 297 q 718 331 715 297 l 718 377 l 439 377 l 439 331 q 475 297 439 300 l 682 297 z "},"延":{"ha":1389,"x_min":75,"x_max":1314,"o":"m 566 160 q 500 213 500 160 q 566 266 500 266 l 642 266 l 642 690 q 654 739 642 723 q 694 754 667 754 q 746 690 746 754 l 746 266 l 910 266 l 910 906 q 644 884 703 884 q 564 940 564 884 q 661 996 564 993 q 1172 1062 1001 1006 l 1214 1070 q 1271 1015 1271 1070 q 1245 967 1271 983 q 1112 935 1219 951 l 1016 920 l 1016 665 l 1206 665 q 1270 612 1270 665 q 1206 560 1270 560 l 1016 560 l 1016 266 l 1238 266 q 1303 213 1303 266 q 1238 160 1303 160 l 566 160 m 129 -123 q 75 -66 75 -123 q 119 -8 75 -31 q 278 121 214 42 q 178 285 213 197 q 140 423 140 382 q 190 473 140 473 q 227 453 212 473 q 250 395 243 433 q 336 203 267 296 q 412 507 412 334 q 377 541 412 541 l 212 541 q 142 601 142 541 q 182 671 142 621 q 277 806 214 713 l 334 892 q 353 930 353 922 q 334 945 353 945 l 151 945 q 87 1000 87 945 q 151 1053 87 1053 l 414 1053 q 505 996 505 1053 q 481 947 505 981 q 321 708 419 850 q 292 661 292 663 q 307 646 292 646 l 415 646 q 517 553 517 646 l 511 479 q 410 133 486 266 q 606 49 492 69 q 968 26 734 26 q 1215 31 1154 26 l 1253 33 q 1299 18 1283 34 q 1314 -26 1314 3 q 1289 -76 1314 -64 q 1181 -87 1265 -87 l 944 -87 q 351 50 522 -87 q 229 -71 293 -22 q 129 -123 160 -123 z "},"引":{"ha":1389,"x_min":102,"x_max":1150,"o":"m 1093 -111 q 1048 -94 1062 -111 q 1034 -38 1034 -76 l 1034 1012 q 1093 1085 1034 1085 q 1150 1012 1150 1085 l 1150 -38 q 1093 -111 1150 -111 m 396 -115 q 336 -98 357 -115 q 316 -49 316 -81 q 338 3 316 -12 q 415 12 351 11 q 591 64 568 15 q 627 321 627 142 q 614 356 627 346 q 576 366 602 366 l 241 366 q 117 468 117 366 l 127 609 q 159 724 127 686 q 256 761 191 761 l 556 761 q 609 814 606 761 l 609 902 q 556 955 609 952 l 164 955 q 102 1005 102 955 q 164 1055 102 1055 l 593 1055 q 693 1025 662 1055 q 719 929 724 994 l 719 792 q 689 691 719 723 q 594 665 659 659 l 290 665 q 248 651 255 665 q 231 509 237 629 q 243 477 229 488 q 282 465 258 465 l 617 465 q 745 363 745 465 q 692 -8 745 100 q 396 -115 639 -115 z "},"彌":{"ha":1389,"x_min":76,"x_max":1316,"o":"m 1149 753 q 1267 632 1267 753 l 1267 -14 q 1146 -130 1267 -129 l 1085 -130 q 1045 -118 1058 -130 q 1032 -79 1032 -106 q 1045 -37 1032 -50 q 1085 -24 1058 -24 l 1128 -24 q 1169 12 1169 -24 l 1169 623 q 1135 658 1169 658 l 918 658 l 918 -60 q 907 -100 918 -88 q 871 -113 895 -113 q 825 -60 825 -113 l 825 658 l 621 658 q 587 623 589 658 l 587 -79 q 574 -120 587 -106 q 538 -134 562 -134 q 488 -79 488 -134 l 488 635 q 506 707 488 681 q 469 692 480 692 q 429 741 429 692 q 467 789 429 762 q 629 922 552 849 q 669 940 647 940 q 718 897 718 940 q 564 750 718 864 l 557 745 q 608 753 578 753 l 825 753 l 825 958 l 530 958 q 471 1010 471 958 q 485 1048 471 1036 q 530 1061 499 1061 l 1244 1061 q 1306 1009 1306 1061 q 1244 958 1306 958 l 918 958 l 918 753 l 1149 753 m 343 475 q 414 454 392 475 q 437 389 437 433 l 435 342 l 426 231 q 358 -58 406 -3 q 184 -115 309 -115 q 113 -57 113 -115 q 180 -3 113 -8 l 233 -4 q 305 83 283 -5 q 335 345 335 212 q 292 382 335 382 l 189 382 q 94 463 94 382 l 110 644 q 210 758 110 758 l 281 758 q 324 802 321 758 l 324 910 q 281 954 324 952 l 130 954 q 76 1002 76 954 q 130 1051 76 1051 l 315 1051 q 396 1025 370 1051 q 422 943 422 998 l 422 773 q 396 692 422 718 q 315 666 370 666 l 247 666 q 202 606 206 666 l 195 513 q 205 484 194 494 q 235 475 216 475 l 343 475 m 1261 829 q 1316 768 1316 807 q 1270 718 1316 718 q 1183 760 1248 718 l 1139 788 q 1044 855 1070 834 q 1019 890 1019 876 q 1066 937 1019 937 q 1104 920 1082 937 q 1261 829 1188 856 m 751 492 q 817 393 817 415 q 779 355 817 355 q 736 393 761 355 l 709 430 q 633 351 659 351 q 595 389 595 351 q 601 405 595 396 q 616 426 606 414 q 662 491 637 454 l 617 540 q 604 570 604 553 q 639 604 604 604 q 657 597 648 604 q 680 575 666 590 l 700 549 l 719 587 q 758 616 734 616 q 795 582 795 616 q 780 543 795 567 l 751 492 m 932 389 q 954 426 932 404 q 998 490 970 442 l 974 518 q 949 548 959 534 q 939 570 939 562 q 974 604 939 604 q 994 595 983 604 q 1015 575 1004 587 l 1036 552 l 1036 549 l 1055 587 q 1095 616 1070 616 q 1123 607 1114 616 q 1133 582 1133 598 q 1116 543 1133 572 l 1095 506 l 1088 491 q 1152 393 1152 414 q 1114 355 1152 355 q 1097 363 1104 355 q 1072 393 1089 370 l 1046 429 q 970 351 993 351 q 932 389 932 351 m 751 183 q 802 114 788 136 q 817 83 817 92 q 779 45 817 45 q 755 59 769 45 q 712 121 742 73 q 633 39 661 39 q 595 77 595 39 q 601 93 595 84 q 616 114 606 102 l 662 180 l 639 209 q 623 228 633 216 q 608 248 613 240 q 604 260 604 255 q 639 294 604 294 q 657 288 648 294 q 680 266 666 281 l 700 240 l 719 277 q 757 307 735 307 q 795 273 795 307 q 773 222 795 256 q 760 194 765 208 l 751 183 m 1046 117 q 970 39 994 39 q 932 77 932 39 q 954 114 932 88 l 998 179 l 975 208 l 958 229 q 944 247 949 239 q 939 260 939 255 q 974 294 939 294 q 1015 266 994 294 l 1036 237 l 1055 277 q 1095 307 1069 307 q 1133 273 1133 307 q 1116 229 1133 255 l 1086 183 q 1152 83 1152 103 q 1114 45 1152 45 q 1097 53 1105 45 q 1076 79 1088 61 l 1048 117 l 1046 117 z "},"彰":{"ha":1389,"x_min":75,"x_max":1299,"o":"m 126 680 q 75 726 75 680 q 126 770 75 770 l 248 770 l 224 902 l 146 902 q 96 947 96 902 q 146 991 96 991 l 391 991 l 391 1048 q 442 1101 391 1101 q 496 1048 496 1101 l 496 991 l 743 991 q 793 947 793 991 q 743 902 793 902 l 655 902 l 623 770 l 760 770 q 804 726 804 770 q 760 680 804 680 l 126 680 m 853 760 q 798 817 798 760 q 840 871 798 853 q 1086 1029 949 917 q 1166 1082 1150 1082 q 1226 1029 1226 1082 q 1065 875 1226 990 q 853 760 905 760 m 320 902 l 347 770 l 530 770 q 556 902 541 807 l 320 902 m 1147 684 q 1196 708 1175 708 q 1257 654 1257 708 q 1070 479 1257 600 q 831 359 884 359 q 791 374 804 359 q 779 419 779 388 q 848 484 779 456 q 1147 684 1008 548 m 819 118 q 768 72 819 72 l 499 72 l 499 -77 q 449 -133 499 -133 q 399 -77 399 -133 l 399 72 l 125 72 q 75 118 75 72 q 125 164 75 164 l 399 164 l 399 237 l 239 237 q 134 340 134 237 l 134 511 q 239 614 134 614 l 647 614 q 750 511 750 614 l 750 340 q 647 237 750 237 l 499 237 l 499 164 l 768 164 q 819 118 819 164 m 235 465 l 651 465 l 651 500 q 613 537 651 536 l 271 537 q 235 500 235 537 l 235 465 m 235 351 q 271 315 235 315 l 613 315 q 651 351 651 315 l 651 392 l 235 392 l 235 351 m 1240 313 q 1299 259 1299 313 q 1176 118 1299 217 q 928 -41 1057 23 q 772 -102 804 -102 q 718 -42 718 -102 q 734 -9 718 -23 q 783 18 750 5 q 1184 282 1028 111 q 1213 305 1198 297 q 1240 313 1227 313 z "},"後":{"ha":1389,"x_min":76,"x_max":1313,"o":"m 130 792 q 80 849 80 792 q 122 909 80 882 q 327 1076 231 981 q 378 1104 355 1104 q 434 1053 434 1104 q 302 903 434 1012 q 130 792 168 792 m 509 -122 q 457 -71 457 -122 q 526 -15 457 -27 q 815 90 699 16 q 667 296 720 176 q 544 145 620 216 q 442 77 473 77 q 395 129 395 77 q 454 202 395 153 q 666 505 600 323 l 665 506 q 570 500 635 503 q 530 498 557 500 q 475 495 492 495 q 418 545 418 495 q 490 598 418 598 l 587 600 l 685 601 l 749 674 q 532 829 635 765 q 488 880 488 856 q 540 929 488 929 q 631 883 564 929 l 633 883 q 722 1035 686 960 q 796 1104 753 1104 q 839 1092 826 1104 q 852 1054 852 1080 q 708 831 852 998 l 817 753 q 844 787 831 772 q 864 812 856 802 q 960 936 951 922 q 1002 987 985 971 q 1035 1004 1020 1004 q 1093 951 1093 1004 q 937 749 1093 918 l 811 605 q 962 612 860 606 q 1112 618 1063 617 l 1078 663 q 1052 699 1062 684 q 1042 722 1042 713 q 1086 764 1042 764 q 1208 655 1118 764 q 1298 518 1298 548 q 1246 468 1298 468 q 1222 477 1234 468 q 1194 507 1210 487 l 1172 536 q 994 525 1114 533 q 774 511 841 514 l 742 426 l 1092 426 q 1160 407 1137 426 q 1183 357 1183 388 q 1157 286 1183 321 q 1063 164 1103 209 q 982 85 1024 119 q 1257 -5 1095 24 q 1313 -64 1313 -15 q 1299 -108 1313 -94 q 1253 -122 1284 -122 q 897 23 1111 -122 q 690 -80 812 -35 q 509 -122 574 -122 m 279 -132 q 228 -69 228 -132 l 228 437 q 165 370 193 393 q 122 347 137 347 q 87 360 99 347 q 76 403 76 373 q 85 431 76 416 q 113 467 94 445 q 334 755 266 631 q 387 793 354 793 q 441 745 441 793 q 332 570 441 716 l 332 -69 q 279 -132 332 -132 m 990 240 q 1040 319 1040 302 q 1021 334 1040 334 l 745 334 q 897 144 807 217 q 990 240 951 193 z "},"復":{"ha":1389,"x_min":79,"x_max":1310,"o":"m 130 791 q 79 849 79 791 q 121 910 79 882 q 326 1077 224 978 q 378 1105 354 1105 q 435 1053 435 1105 q 304 902 435 1013 q 130 791 172 791 m 496 770 q 457 781 471 770 q 444 812 444 792 q 452 842 444 827 q 481 879 461 857 q 547 958 511 910 q 608 1051 575 997 q 674 1105 642 1105 q 726 1062 726 1105 q 711 1024 726 1050 l 693 993 l 1236 993 q 1290 945 1290 993 q 1236 899 1290 899 l 631 899 q 496 770 534 770 m 1251 -3 q 1310 -58 1310 -11 q 1289 -112 1310 -94 q 1233 -126 1267 -130 q 1042 -75 1139 -114 q 880 7 944 -35 q 692 -80 799 -43 q 472 -129 585 -117 q 430 -118 445 -132 q 415 -84 415 -104 q 426 -47 415 -61 q 465 -28 437 -34 q 637 12 549 -14 q 791 69 726 37 q 646 220 694 148 q 525 126 581 157 q 490 115 507 115 q 453 138 468 115 q 445 165 445 153 q 473 210 445 190 q 692 427 618 311 l 665 427 q 576 455 604 427 q 551 540 548 483 l 551 716 q 578 803 551 776 q 665 830 605 830 l 1100 830 q 1189 802 1161 830 q 1214 716 1217 774 l 1214 540 q 1187 454 1214 481 q 1100 427 1160 427 l 807 427 q 762 355 785 388 l 1118 355 q 1181 338 1158 355 q 1203 294 1203 321 q 1173 225 1203 260 q 1089 140 1139 184 q 983 66 1039 96 q 1251 -3 1082 23 m 442 745 q 421 691 442 727 q 353 590 400 655 l 353 -68 q 297 -133 353 -133 q 244 -68 244 -133 l 244 454 q 174 388 222 431 q 133 370 153 370 q 95 389 111 370 q 80 423 80 407 q 103 468 80 445 q 239 620 179 544 q 332 755 298 696 q 387 795 355 795 q 427 782 412 795 q 442 745 442 769 m 659 673 l 1105 673 l 1105 703 q 1067 743 1105 743 l 697 743 q 669 732 680 743 q 659 703 659 722 l 659 673 m 659 553 q 669 524 659 534 q 697 514 680 514 l 1067 514 q 1105 553 1105 514 l 1105 589 l 659 589 l 659 553 m 724 267 q 888 119 787 190 q 972 176 928 141 q 1050 245 1017 212 q 1055 256 1055 251 q 1050 264 1055 260 q 1039 267 1046 267 l 724 267 z "},"德":{"ha":1389,"x_min":75,"x_max":1314,"o":"m 517 886 q 454 936 454 886 q 517 986 454 986 l 810 986 l 810 1061 q 865 1109 810 1109 q 920 1061 920 1109 l 920 986 l 1248 986 q 1310 936 1310 986 q 1248 886 1310 886 l 920 886 l 920 800 l 1156 800 q 1239 774 1213 800 q 1263 693 1265 749 l 1263 566 q 1237 480 1263 507 q 1156 457 1211 453 l 602 457 q 517 483 544 457 q 494 566 491 509 l 494 693 q 519 777 494 751 q 602 800 545 803 l 810 800 l 810 886 l 517 886 m 132 789 q 76 848 76 789 q 137 920 76 883 q 300 1042 231 977 q 392 1105 368 1105 q 452 1047 452 1105 q 311 897 452 1006 q 132 789 174 789 m 401 799 q 457 750 457 799 q 347 574 457 712 l 347 -68 q 293 -133 347 -133 q 240 -68 240 -133 l 240 442 q 123 342 152 342 q 75 400 75 342 q 103 457 75 429 q 330 734 250 605 q 401 799 370 799 m 722 711 l 635 711 q 597 671 597 711 l 597 586 q 635 547 597 549 l 722 547 l 722 711 m 939 547 l 939 711 l 810 711 l 810 547 l 939 547 m 1027 547 l 1122 547 q 1149 557 1139 547 q 1160 586 1160 567 l 1160 671 q 1122 711 1160 708 l 1027 711 l 1027 547 m 1308 342 q 1246 296 1308 296 l 513 296 q 452 343 452 296 q 513 389 452 389 l 1246 389 q 1308 342 1308 389 m 899 259 q 928 248 913 259 q 963 210 943 236 q 1001 140 1001 163 q 944 88 1001 88 q 872 161 913 88 l 848 203 l 845 217 q 857 248 841 237 q 899 259 872 259 m 1077 111 q 1131 50 1131 111 q 1040 -83 1131 -62 q 860 -95 982 -95 q 694 -76 719 -95 q 658 -1 663 -53 l 658 191 q 711 255 658 255 q 764 191 764 255 l 764 52 q 779 15 764 26 q 880 5 792 5 q 1000 16 979 5 q 1023 61 1020 28 q 1077 111 1027 111 m 522 235 q 571 184 571 235 q 541 8 571 113 q 476 -88 513 -88 q 435 -78 450 -88 q 419 -47 419 -68 q 422 -30 419 -43 l 454 102 q 465 153 460 125 q 472 193 469 180 q 522 235 480 235 m 1255 130 q 1314 1 1314 26 q 1256 -54 1314 -54 q 1217 -37 1230 -54 q 1179 39 1204 -22 l 1143 110 q 1123 151 1139 119 q 1107 190 1107 183 q 1158 231 1107 231 q 1255 130 1198 231 z "},"心":{"ha":1389,"x_min":85,"x_max":1309,"o":"m 863 834 q 783 857 822 830 q 597 983 715 905 q 571 1009 578 996 q 566 1042 564 1023 q 585 1076 568 1061 q 624 1092 601 1092 q 650 1086 637 1092 q 758 1032 697 1067 q 871 959 818 997 q 903 930 894 944 q 911 895 911 916 q 897 853 911 869 q 863 834 883 837 m 718 -96 q 523 -87 586 -96 q 432 -50 460 -79 q 404 42 404 -20 l 404 764 q 419 819 404 802 q 465 837 434 837 q 526 764 526 837 l 526 96 q 543 39 526 56 q 598 17 560 22 q 727 12 636 12 q 911 27 884 12 q 940 71 930 38 q 951 170 949 104 q 966 214 951 198 q 1009 231 981 231 q 1054 214 1040 231 q 1069 167 1067 198 q 1046 -2 1070 57 q 971 -77 1023 -61 q 718 -96 910 -96 m 1241 168 q 1200 183 1218 168 q 1147 309 1185 197 q 1054 519 1114 408 q 1001 639 1001 617 q 1062 690 1001 690 q 1207 495 1104 690 q 1309 225 1309 304 q 1289 186 1309 203 q 1241 168 1267 168 m 153 103 q 109 115 126 103 q 88 144 91 126 q 99 209 85 170 q 149 389 133 300 q 176 600 165 479 q 193 641 179 627 q 233 655 208 655 q 279 639 263 655 q 293 594 294 623 q 271 372 289 487 q 222 170 252 258 q 193 121 212 138 q 153 103 175 103 z "},"忠":{"ha":1389,"x_min":90,"x_max":1297,"o":"m 689 361 q 632 420 632 361 l 632 498 l 290 498 q 193 528 224 498 q 167 623 163 557 l 167 823 q 196 921 167 891 q 290 947 225 951 l 632 947 l 632 1048 q 689 1105 632 1105 q 745 1048 745 1105 l 745 947 l 1096 947 q 1194 918 1164 947 q 1221 823 1225 888 l 1221 623 q 1191 524 1221 555 q 1096 498 1161 494 l 745 498 l 745 420 q 689 361 745 361 m 632 846 l 328 846 q 279 798 282 846 l 279 647 q 328 598 279 601 l 632 598 l 632 846 m 1058 598 q 1107 647 1104 598 l 1107 798 q 1058 846 1107 845 l 745 846 l 745 598 l 1058 598 m 757 140 q 689 197 719 140 l 669 229 q 640 285 640 275 q 696 336 640 336 q 769 278 724 336 q 815 198 815 220 q 757 140 815 140 m 666 -96 q 472 -83 540 -96 q 426 -54 442 -77 q 410 5 410 -31 l 410 264 q 467 327 410 327 q 522 264 522 327 l 522 68 q 537 20 522 31 q 594 8 552 8 l 727 8 q 880 30 860 8 q 905 113 905 57 q 919 156 905 141 q 959 171 933 171 q 1019 114 1019 171 q 944 -75 1020 -49 q 666 -96 883 -96 m 1236 -1 q 1204 10 1218 -1 q 1176 46 1190 22 q 1067 217 1122 145 q 1047 262 1047 243 q 1099 313 1047 313 q 1143 286 1115 313 q 1214 202 1171 259 q 1297 57 1297 91 q 1281 14 1297 28 q 1236 -1 1265 -1 m 148 -57 q 90 0 90 -57 q 119 68 90 16 q 174 213 152 125 q 233 277 190 277 q 289 221 289 277 q 240 57 289 174 q 148 -57 191 -57 z "},"恆":{"ha":1389,"x_min":71,"x_max":1313,"o":"m 320 -136 q 264 -71 264 -136 l 264 1043 q 320 1108 264 1108 q 376 1043 376 1108 l 376 -71 q 320 -136 376 -136 m 481 -72 q 416 -16 416 -72 q 481 38 416 38 l 1023 38 l 1063 621 q 1049 654 1065 643 q 1004 666 1034 666 l 708 666 l 656 381 q 616 186 628 217 q 595 161 609 170 q 563 153 581 153 q 513 201 513 153 l 519 240 q 640 936 575 498 l 541 936 q 476 991 476 936 q 541 1046 476 1046 l 1221 1046 q 1287 991 1287 1046 q 1221 936 1287 936 l 751 936 l 745 901 l 726 769 l 1048 769 q 1126 754 1099 769 q 1179 666 1183 724 l 1137 38 l 1249 38 q 1313 -16 1313 38 q 1249 -72 1313 -72 l 481 -72 m 509 701 q 437 783 475 701 l 415 822 q 392 876 392 863 q 404 906 392 895 q 435 917 415 917 q 500 859 463 917 q 559 750 559 766 q 509 701 559 701 m 132 449 q 80 511 71 449 q 103 815 103 656 q 111 891 103 871 q 155 913 119 913 q 203 859 203 913 q 191 572 203 693 q 132 449 179 449 m 928 407 q 905 415 921 407 q 871 434 888 423 q 795 484 838 453 q 764 508 774 498 q 754 529 754 518 q 804 583 754 583 q 838 572 817 583 l 872 553 q 978 461 978 494 q 928 407 978 407 m 916 161 q 880 176 906 161 l 821 214 l 781 241 q 715 307 715 277 q 765 357 715 357 q 911 282 784 357 q 966 216 966 251 q 916 161 966 161 z "},"愛":{"ha":1389,"x_min":75,"x_max":1314,"o":"m 217 949 q 152 962 172 949 q 132 1001 132 975 q 151 1039 132 1027 q 214 1051 170 1051 l 418 1051 q 1086 1099 834 1051 q 1142 1105 1119 1105 q 1198 1053 1198 1105 q 1109 997 1198 1006 q 217 949 723 949 m 148 500 q 94 562 94 500 l 94 675 q 125 777 94 745 q 224 806 156 808 l 324 806 q 283 890 283 876 q 332 932 283 932 q 378 901 353 932 q 444 806 404 871 l 652 806 l 620 857 q 598 902 598 892 q 654 945 598 945 q 707 918 688 945 l 777 806 l 920 806 l 967 886 q 1055 968 1017 968 q 1114 928 1114 968 q 1034 806 1114 909 l 1160 806 q 1261 774 1229 806 q 1289 675 1293 743 l 1289 562 q 1234 500 1289 500 q 1181 562 1181 500 l 1181 666 q 1134 713 1181 711 l 250 713 q 202 666 205 713 l 202 562 q 148 500 202 500 m 741 532 q 678 570 715 532 l 651 597 q 624 637 624 624 q 673 681 624 681 q 745 637 694 681 q 789 578 789 600 q 741 532 789 532 m 129 -133 q 88 -121 102 -136 q 75 -80 75 -107 q 136 -27 75 -34 q 583 62 374 -3 q 419 220 487 127 q 168 80 225 80 q 115 127 115 80 q 128 162 115 148 q 168 187 141 176 q 494 401 365 264 q 430 468 430 410 l 430 631 q 441 668 430 656 q 479 680 453 680 q 528 632 528 680 l 528 511 q 555 483 528 487 q 751 479 591 479 q 867 491 842 479 q 879 530 876 495 q 893 562 880 551 q 926 574 906 574 q 977 530 977 574 q 943 429 977 463 q 754 397 910 397 l 613 397 l 552 330 l 1005 330 q 1071 312 1047 330 q 1095 269 1095 294 q 1051 199 1095 233 q 942 125 1010 168 q 821 56 873 83 q 1210 -8 987 7 q 1314 -68 1314 -15 q 1244 -127 1314 -127 q 982 -91 1143 -127 q 696 0 806 -52 q 193 -125 483 -90 l 129 -133 m 1139 408 q 1077 461 1114 408 q 996 564 1032 526 q 951 633 951 610 q 963 659 951 648 q 991 669 975 669 q 1037 647 1010 669 q 1108 575 1063 625 q 1191 456 1191 483 q 1139 408 1191 408 m 256 396 q 219 408 232 396 q 206 437 206 420 q 210 456 206 448 l 271 590 q 330 650 298 650 q 376 605 376 650 q 335 491 376 582 q 256 396 293 396 m 739 123 q 924 227 898 201 q 929 236 929 232 q 918 241 929 241 l 519 241 q 697 103 585 159 l 739 123 z "},"成":{"ha":1389,"x_min":77,"x_max":1312,"o":"m 1188 -119 q 1063 -52 1131 -119 q 929 119 985 27 q 705 -49 836 26 q 533 -118 586 -118 q 480 -61 480 -118 q 494 -24 480 -37 q 590 16 505 -16 q 876 218 743 72 q 747 770 773 434 l 328 770 q 286 753 296 770 q 278 586 278 736 l 548 586 q 659 469 659 586 q 625 152 659 213 q 414 73 581 73 q 358 132 358 73 q 414 187 358 187 l 464 187 q 547 260 537 187 q 557 437 557 332 q 545 470 557 458 q 509 481 532 481 l 278 481 q 243 72 278 221 q 194 -65 221 -19 q 134 -111 167 -111 q 77 -49 77 -111 q 107 31 77 -30 q 153 213 136 91 q 168 495 168 319 l 165 757 q 288 882 163 882 l 742 882 l 739 1046 q 795 1104 739 1104 q 852 1039 852 1104 l 852 882 l 1233 882 q 1301 826 1301 882 q 1233 770 1301 770 l 859 770 q 949 315 876 505 l 963 331 q 1080 566 1047 460 q 1145 636 1103 636 q 1199 589 1199 636 q 1138 433 1199 559 q 1005 205 1080 312 q 1085 91 1036 151 q 1161 27 1137 27 q 1200 118 1194 27 q 1253 203 1207 203 q 1312 145 1312 203 q 1275 -33 1312 57 q 1188 -119 1240 -119 m 1093 916 q 996 1010 1061 916 q 981 1039 981 1032 q 1040 1089 981 1089 q 1112 1036 1063 1089 q 1143 996 1133 1015 q 1154 967 1154 977 q 1093 916 1154 916 z "},"投":{"ha":1389,"x_min":75,"x_max":1312,"o":"m 174 -118 q 113 -61 113 -118 q 174 -4 113 -4 l 214 -4 q 266 49 264 -4 l 266 332 q 126 297 137 297 q 87 311 99 297 q 75 354 75 324 q 83 385 75 372 q 107 403 91 397 q 152 415 130 410 q 193 426 174 420 q 266 445 217 431 l 266 742 l 133 742 q 94 755 106 742 q 81 795 81 768 q 94 833 81 821 q 133 845 106 845 l 266 845 l 266 1046 q 320 1107 266 1107 q 374 1046 374 1107 l 374 845 l 467 845 q 518 793 518 845 q 506 754 518 766 q 467 742 494 742 l 374 742 l 374 473 l 450 498 q 465 500 461 500 q 495 488 483 500 q 507 452 507 475 q 498 428 507 441 q 475 407 490 415 q 374 366 431 384 l 374 15 q 239 -118 384 -126 l 174 -118 m 563 551 q 524 562 537 551 q 510 590 510 572 q 522 627 510 608 q 562 673 534 646 q 623 852 623 734 l 623 959 q 743 1059 623 1059 l 929 1059 q 1022 1031 994 1059 q 1047 940 1050 1002 l 1047 728 q 1119 686 1047 686 q 1180 697 1168 686 q 1194 749 1194 709 l 1192 803 q 1245 850 1192 850 q 1301 792 1301 850 q 1288 665 1301 705 q 1252 609 1275 624 q 1203 592 1234 597 q 1116 587 1172 587 q 984 610 1024 587 q 944 690 944 633 l 944 910 q 932 944 944 932 q 897 958 920 956 l 774 958 q 734 941 745 958 q 726 883 726 928 l 726 825 q 658 624 726 715 q 563 551 604 551 m 492 -119 q 451 -106 464 -119 q 438 -65 438 -94 q 468 -19 438 -30 l 548 4 q 682 50 624 26 q 788 107 741 73 q 745 150 762 129 q 699 209 727 171 q 642 327 642 285 q 654 362 642 351 q 697 373 667 373 q 754 330 732 373 q 772 293 757 323 q 803 243 787 263 q 869 171 838 195 q 1044 374 964 259 q 1051 393 1051 382 q 1025 412 1051 412 l 609 412 q 545 464 545 412 q 609 514 545 514 l 1082 514 q 1198 441 1198 514 q 1179 386 1198 419 q 1118 293 1161 353 q 948 111 1044 193 q 1229 8 1072 42 q 1312 -54 1312 -9 q 1253 -117 1312 -117 q 1067 -65 1195 -117 q 865 42 944 -15 q 656 -72 766 -30 q 492 -119 533 -119 z "},"文":{"ha":1389,"x_min":79,"x_max":1310,"o":"m 137 -119 q 79 -56 79 -119 q 98 -17 79 -33 q 160 8 118 -1 q 609 205 426 64 l 609 208 q 406 481 475 332 q 335 681 335 635 q 393 728 335 728 q 431 714 415 728 q 456 673 448 700 q 693 282 524 446 l 696 282 q 928 788 879 479 l 164 788 q 94 842 94 788 q 164 898 94 898 l 628 898 l 628 1028 q 688 1104 628 1104 q 733 1086 719 1104 q 747 1028 747 1067 l 747 898 l 1225 898 q 1294 842 1294 898 q 1225 788 1294 788 l 1053 788 q 780 217 977 426 l 780 214 q 1236 19 968 77 q 1310 -46 1310 3 q 1251 -114 1310 -114 q 1225 -110 1241 -114 q 1200 -103 1208 -106 q 696 136 891 -19 l 693 136 q 399 -45 574 31 q 137 -119 228 -119 z "},"斗":{"ha":1389,"x_min":79,"x_max":1310,"o":"m 930 -129 q 885 -113 899 -129 q 871 -62 871 -96 l 871 289 l 132 210 q 79 270 79 205 q 140 327 79 321 l 871 406 l 871 1027 q 930 1103 871 1103 q 991 1027 991 1103 l 991 419 l 1260 448 q 1297 435 1284 450 q 1310 392 1310 420 q 1241 328 1310 336 l 991 302 l 991 -62 q 930 -129 991 -129 m 595 842 q 541 865 574 842 l 445 925 q 353 1008 353 983 q 415 1065 353 1065 q 544 1001 438 1065 q 647 903 647 939 q 627 859 647 878 q 595 842 609 842 m 445 533 q 372 570 430 533 q 236 650 316 606 q 194 704 194 674 q 209 746 194 732 q 255 760 224 760 q 435 670 290 760 q 505 593 505 628 q 445 533 505 533 z "},"新":{"ha":1389,"x_min":75,"x_max":1313,"o":"m 411 -133 q 358 -69 358 -133 l 358 227 q 228 52 308 132 q 123 -27 149 -27 q 75 31 75 -27 q 89 63 75 46 q 134 104 103 80 q 343 339 283 222 l 153 339 q 92 389 92 339 q 153 438 92 438 l 358 438 l 358 566 l 136 566 q 90 577 104 566 q 76 614 76 589 q 136 665 76 665 l 222 665 q 190 850 216 736 l 189 861 l 141 861 q 92 911 92 861 q 141 960 92 960 l 354 960 l 354 1038 q 411 1107 354 1107 q 468 1038 468 1107 l 468 960 l 680 960 q 727 911 727 960 q 680 861 727 861 l 618 861 l 581 665 l 685 665 q 745 614 745 665 q 730 577 745 589 q 685 566 716 566 l 464 566 l 464 438 l 667 438 q 728 388 728 438 q 667 339 728 339 l 464 339 l 464 240 q 511 267 479 267 q 602 216 534 267 q 670 137 670 164 q 621 87 670 87 q 568 115 601 87 l 464 206 l 464 -69 q 411 -133 464 -133 m 1116 -130 q 1061 -64 1061 -130 l 1061 555 l 880 555 l 878 460 q 799 30 869 174 q 675 -111 730 -111 q 617 -52 617 -111 q 661 20 617 -31 q 732 152 707 75 q 770 345 761 237 q 783 632 780 454 l 781 890 q 804 978 781 948 q 911 1021 827 1006 q 1057 1051 1004 1038 q 1101 1062 1096 1061 q 1160 1077 1092 1059 q 1203 1088 1196 1088 q 1264 1023 1264 1088 q 1214 977 1264 989 q 943 920 1042 935 q 883 826 883 911 l 883 662 l 1263 662 q 1313 608 1313 662 q 1263 555 1313 555 l 1172 555 l 1172 -64 q 1116 -130 1172 -130 m 521 854 l 521 861 l 283 861 q 317 667 300 793 l 317 665 l 486 665 l 521 854 z "},"旗":{"ha":1389,"x_min":75,"x_max":1314,"o":"m 332 -119 q 271 -62 271 -119 q 287 -20 271 -34 q 338 -7 302 -7 q 392 7 374 -7 q 415 52 410 22 q 435 259 425 110 q 442 389 441 346 l 446 476 q 407 515 449 515 l 320 515 q 245 69 301 227 q 130 -90 189 -90 q 75 -33 75 -90 q 87 5 75 -14 q 198 302 172 138 q 224 788 224 458 l 136 788 q 75 841 75 788 q 136 892 75 892 l 278 892 l 278 1048 q 335 1107 278 1107 q 391 1048 391 1107 l 391 892 l 483 892 q 543 841 543 892 l 538 821 q 685 1061 628 921 q 745 1107 704 1107 q 795 1062 795 1107 q 779 1012 795 1043 l 754 966 l 1255 966 q 1308 916 1308 966 q 1255 867 1308 867 l 697 867 q 560 720 604 720 q 511 770 511 720 q 521 798 511 784 q 483 788 507 788 l 326 788 l 324 620 l 439 620 q 551 525 551 620 q 540 270 551 441 q 533 175 534 208 q 471 -80 521 -42 q 332 -119 419 -119 m 612 102 q 564 146 564 102 q 612 193 564 193 l 704 193 l 704 629 l 636 629 q 593 674 593 629 q 636 718 593 718 l 704 718 l 704 783 q 753 831 704 831 q 802 783 802 831 l 802 718 l 1084 718 l 1084 774 q 1135 831 1084 831 q 1184 774 1184 831 l 1184 718 l 1251 718 q 1295 673 1295 718 q 1251 629 1295 629 l 1184 629 l 1184 193 l 1271 193 q 1314 146 1314 193 q 1271 102 1314 102 l 612 102 m 1084 545 l 1084 629 l 802 629 l 802 545 l 1084 545 m 1084 372 l 1084 463 l 802 463 l 802 372 l 1084 372 m 1084 193 l 1084 289 l 802 289 l 802 193 l 1084 193 m 1265 -129 q 1120 -65 1221 -129 q 1013 33 1013 3 q 1063 80 1013 80 q 1109 61 1080 80 q 1284 -35 1211 -3 q 1314 -79 1314 -49 q 1265 -129 1314 -129 m 581 -132 q 534 -83 534 -132 q 579 -33 534 -52 q 730 42 684 9 q 803 79 781 79 q 853 30 853 79 q 741 -68 853 -5 q 581 -132 627 -132 z "},"日":{"ha":1389,"x_min":240,"x_max":1165,"o":"m 406 -69 q 250 83 240 -80 l 250 871 q 290 991 250 952 q 396 1023 323 1023 l 1008 1023 q 1128 982 1088 1023 q 1160 876 1160 951 l 1160 83 q 1128 -37 1165 1 q 1008 -69 1090 -75 l 406 -69 m 1040 829 q 1024 892 1040 876 q 959 909 1008 909 l 449 909 q 385 892 401 909 q 369 826 369 876 l 369 544 l 1040 544 l 1040 829 m 959 45 q 1024 61 1008 45 q 1040 126 1040 77 l 1040 430 l 369 430 l 369 126 q 386 61 369 77 q 452 45 403 45 l 959 45 z "},"星":{"ha":1389,"x_min":77,"x_max":1303,"o":"m 1244 8 q 1303 -38 1303 8 q 1244 -85 1303 -85 l 144 -85 q 85 -38 85 -85 q 144 8 85 8 l 648 8 l 648 151 l 294 151 q 243 197 243 151 q 294 243 243 243 l 648 243 l 648 370 l 307 370 q 199 240 243 282 q 129 198 156 198 q 77 252 77 198 q 125 323 77 275 q 289 537 231 431 q 309 563 298 555 q 336 571 320 571 q 395 528 395 571 q 365 464 395 511 l 648 464 l 648 583 l 323 583 q 202 709 193 583 l 202 935 q 323 1061 193 1061 l 1059 1061 q 1185 935 1195 1061 l 1185 709 q 1065 583 1195 583 l 755 583 l 755 464 l 1190 464 q 1242 416 1242 464 q 1190 370 1242 370 l 755 370 l 755 243 l 1118 243 q 1171 197 1171 243 q 1118 151 1171 151 l 755 151 l 755 8 l 1244 8 m 363 971 q 315 924 312 971 l 315 868 l 1073 868 l 1073 924 q 1024 971 1073 972 l 363 971 m 315 722 q 363 673 315 671 l 1024 673 q 1073 722 1074 673 l 1073 781 l 315 781 l 315 722 z "},"春":{"ha":1389,"x_min":76,"x_max":1313,"o":"m 1259 396 q 1313 336 1313 373 q 1256 278 1313 278 q 1191 302 1233 278 q 1078 381 1149 327 q 1103 282 1104 345 l 1103 49 q 1072 -56 1103 -23 q 971 -84 1040 -90 l 419 -84 q 288 49 277 -94 l 288 282 q 300 358 288 328 q 199 279 240 304 q 126 254 159 254 q 76 311 76 254 q 142 378 76 339 q 350 534 258 446 l 149 534 q 95 582 95 534 q 149 629 95 629 l 431 629 q 502 739 464 673 l 250 739 q 198 785 198 739 q 250 830 198 830 l 545 830 l 578 913 l 183 913 q 130 960 130 913 q 183 1008 130 1008 l 604 1008 l 608 1032 q 669 1104 620 1104 q 726 1061 726 1104 l 720 1034 l 712 1008 l 1204 1008 q 1259 960 1259 1008 q 1204 913 1259 913 l 688 913 l 656 830 l 1139 830 q 1190 784 1190 830 q 1139 739 1190 739 l 888 739 q 956 629 921 677 l 1238 629 q 1291 582 1291 629 q 1238 534 1291 534 l 1039 534 q 1259 396 1133 449 m 616 739 q 549 629 595 699 l 846 629 q 788 739 817 680 l 616 739 m 963 423 q 1044 408 1016 423 l 1046 408 q 911 534 951 484 l 476 534 q 357 412 431 487 q 429 423 389 423 l 963 423 m 998 293 q 955 336 998 334 l 437 336 q 393 293 393 336 l 393 218 l 998 218 l 998 293 m 998 134 l 393 134 l 393 57 q 445 4 393 7 l 945 4 q 998 57 997 4 l 998 134 z "},"暖":{"ha":1389,"x_min":133,"x_max":1318,"o":"m 564 937 q 502 986 502 937 q 590 1035 502 1034 q 882 1050 705 1038 q 1166 1085 1100 1065 q 1226 1095 1210 1097 q 1282 1039 1282 1089 q 1256 1001 1282 1016 q 1123 975 1232 987 q 865 955 1031 966 l 817 951 q 564 937 627 937 m 248 95 q 161 123 189 95 q 136 214 133 152 l 136 906 q 163 1000 136 970 q 248 1027 190 1029 l 380 1027 q 467 998 439 1027 q 491 906 494 968 l 491 214 q 464 121 491 151 q 380 95 437 92 l 248 95 m 581 -125 q 530 -75 530 -125 q 546 -39 530 -52 q 593 -22 562 -27 q 831 54 699 -4 q 709 210 747 132 q 589 64 658 129 q 488 0 521 0 q 439 49 439 0 q 483 110 439 77 q 716 438 640 229 l 576 438 q 519 486 519 438 q 576 533 519 533 l 745 533 l 765 623 l 608 623 q 549 670 549 623 q 608 716 549 716 l 1027 716 q 1096 869 1073 807 q 1158 941 1122 941 q 1214 897 1214 941 q 1122 716 1214 857 l 1210 716 q 1265 669 1265 716 q 1210 623 1265 623 l 867 623 l 845 533 l 1246 533 q 1306 486 1306 533 q 1246 438 1306 438 l 818 438 l 785 354 l 1133 354 q 1214 294 1214 354 q 1149 183 1214 259 q 1016 53 1080 106 q 1240 -1 1099 15 q 1318 -60 1318 -9 q 1263 -118 1318 -118 q 1107 -87 1219 -118 q 920 -11 1000 -57 q 726 -95 822 -68 q 581 -125 624 -125 m 393 886 q 351 926 393 924 l 275 926 q 235 886 237 926 l 235 618 l 393 618 l 393 886 m 910 743 q 845 819 875 743 q 823 880 823 873 q 875 920 823 920 q 918 884 902 920 q 959 788 959 798 q 910 743 959 743 m 682 735 q 620 810 650 735 l 605 845 q 597 876 597 864 q 646 914 597 914 q 704 856 675 914 q 732 781 732 798 q 682 735 732 735 m 351 195 q 393 235 391 195 l 393 519 l 235 519 l 235 235 q 275 195 235 195 l 351 195 m 921 104 q 1013 183 964 134 q 1067 254 1067 237 q 1053 266 1067 266 l 785 266 q 921 104 827 168 z "},"最":{"ha":1389,"x_min":75,"x_max":1314,"o":"m 335 686 q 250 713 277 686 q 225 798 222 739 l 225 959 q 252 1044 225 1017 q 335 1067 278 1070 l 1051 1067 q 1139 1042 1112 1067 q 1162 959 1166 1016 l 1162 798 q 1136 711 1162 738 q 1051 686 1109 684 l 335 686 m 1051 947 q 1010 987 1051 986 l 373 987 q 332 947 335 987 l 332 917 l 1051 917 l 1051 947 m 1010 766 q 1051 808 1051 766 l 1051 841 l 332 841 l 332 808 q 373 766 332 769 l 1010 766 m 602 -133 q 552 -72 552 -133 l 552 20 l 537 16 q 138 -90 213 -90 q 87 -35 87 -90 q 127 15 87 5 l 199 31 l 199 530 l 127 530 q 87 542 100 530 q 75 578 75 553 q 127 623 75 623 l 1260 623 q 1314 576 1314 623 q 1260 530 1314 530 l 652 530 l 652 -72 q 602 -133 652 -133 m 552 445 l 552 530 l 300 530 l 300 445 l 552 445 m 736 -129 q 684 -76 684 -129 q 696 -45 684 -58 q 734 -20 708 -31 q 899 73 831 22 q 770 288 770 202 q 822 330 770 330 q 878 281 857 330 q 971 142 906 208 l 974 140 q 1078 278 1039 205 l 1104 327 q 1110 339 1105 331 q 1115 353 1115 347 q 1096 368 1115 368 l 766 368 q 709 414 709 368 q 766 460 709 460 l 1157 460 q 1222 446 1200 460 q 1244 403 1244 433 q 1208 308 1244 374 q 1137 184 1168 232 q 1050 79 1108 142 q 1249 -5 1126 27 q 1314 -65 1314 -22 q 1257 -123 1314 -123 q 1123 -79 1214 -123 q 975 7 1019 -27 q 736 -129 815 -129 m 552 271 l 552 363 l 300 363 l 300 271 l 552 271 m 300 52 q 552 110 435 79 l 552 190 l 300 190 l 300 52 z "},"望":{"ha":1389,"x_min":75,"x_max":1314,"o":"m 365 530 q 244 543 289 530 q 174 647 174 560 l 174 883 l 125 883 q 75 932 75 883 q 125 981 75 981 l 338 981 l 338 1051 q 393 1105 338 1105 q 449 1051 449 1105 l 449 981 l 637 981 q 689 930 689 981 q 637 883 689 883 l 278 883 l 278 684 q 302 640 278 648 q 437 629 332 629 l 519 632 l 559 635 q 613 585 613 639 q 574 536 613 545 q 365 530 557 533 m 604 435 q 552 494 552 435 q 579 534 552 519 q 705 690 673 585 q 738 933 732 772 q 846 1066 734 1069 l 1153 1066 q 1236 1044 1208 1066 q 1260 978 1264 1021 l 1245 779 q 1202 509 1227 563 q 1009 441 1169 441 q 945 496 945 441 q 1023 544 945 544 q 1088 550 1067 544 q 1115 579 1109 556 q 1130 663 1126 628 l 808 663 q 713 496 773 556 q 604 435 652 435 m 1150 897 q 1153 947 1153 929 q 1118 978 1153 978 l 879 978 q 846 966 853 978 q 837 897 841 954 l 1150 897 m 1138 742 q 1145 818 1143 795 l 831 818 l 825 742 l 1138 742 m 130 -88 q 88 -77 102 -88 q 75 -39 75 -65 q 130 8 75 8 l 633 8 l 633 121 l 259 121 q 208 165 208 121 q 259 210 208 210 l 633 210 l 633 315 l 187 315 q 132 362 132 315 q 187 411 132 411 l 1200 411 q 1256 362 1256 411 q 1200 315 1256 315 l 741 315 l 741 210 l 1130 210 q 1183 165 1183 210 q 1130 121 1183 121 l 741 121 l 741 8 l 1257 8 q 1314 -39 1314 8 q 1257 -88 1314 -88 l 130 -88 z "},"朴":{"ha":1389,"x_min":76,"x_max":1294,"o":"m 479 578 q 526 555 495 578 q 595 490 556 532 q 686 363 686 393 q 674 328 686 340 q 640 315 662 315 q 608 322 623 315 q 579 349 594 330 l 471 476 q 452 495 465 481 q 434 518 439 509 l 434 -73 q 381 -130 434 -130 q 328 -73 328 -130 l 328 513 l 323 514 q 221 286 289 399 q 125 183 159 183 q 76 244 76 183 q 104 304 76 271 q 313 718 244 460 l 316 726 l 157 726 q 94 776 94 726 q 157 827 94 827 l 328 827 l 328 1046 q 381 1104 328 1104 q 434 1046 434 1104 l 434 827 l 594 827 q 656 776 656 827 q 594 726 656 726 l 434 726 l 434 556 q 453 571 439 564 q 479 578 467 578 m 1164 572 q 1294 408 1294 453 q 1280 367 1294 380 q 1237 354 1267 354 q 1161 412 1204 354 q 1051 534 1119 467 l 1020 566 q 963 625 968 617 l 963 -65 q 906 -127 963 -127 q 864 -113 878 -127 q 850 -65 850 -98 l 850 1038 q 906 1101 850 1101 q 963 1038 963 1101 l 963 667 q 1006 690 979 690 q 1164 572 1035 690 z "},"杉":{"ha":1389,"x_min":75,"x_max":1301,"o":"m 617 354 q 563 308 617 308 q 495 392 540 308 q 452 467 486 412 l 422 518 l 422 -73 q 366 -134 422 -134 q 311 -73 311 -134 l 311 525 q 224 300 283 418 q 129 186 165 186 q 75 250 75 186 q 106 313 75 271 q 300 735 235 486 l 148 735 q 91 788 91 735 q 148 841 91 841 l 311 841 l 311 1044 q 366 1105 311 1105 q 422 1044 422 1105 l 422 841 l 543 841 q 600 788 600 841 q 543 735 600 735 l 422 735 l 422 579 q 441 590 430 587 q 460 589 452 593 q 496 559 476 582 q 549 487 515 537 q 617 354 617 385 m 699 719 q 646 783 646 719 q 723 846 646 817 q 1067 1039 911 921 q 1139 1077 1118 1077 q 1184 1064 1171 1077 q 1198 1023 1198 1051 q 1143 960 1198 1004 q 983 852 1089 917 q 699 719 765 719 m 1116 674 q 1161 697 1143 697 q 1223 640 1223 697 q 1008 465 1223 595 q 716 335 792 335 q 671 393 671 335 q 686 433 671 418 q 734 454 690 437 q 776 472 735 456 q 1116 674 978 557 m 1238 313 q 1301 255 1301 313 q 1149 118 1301 212 q 837 -41 994 23 q 636 -106 677 -106 q 582 -42 582 -106 q 600 -5 582 -19 q 690 30 614 7 q 1164 273 981 119 q 1238 313 1213 313 z "},"村":{"ha":1389,"x_min":76,"x_max":1309,"o":"m 444 564 q 545 464 471 564 q 617 339 617 365 q 568 293 617 293 q 540 309 556 293 q 500 357 524 324 q 411 499 456 418 l 411 -73 q 357 -132 411 -132 q 304 -73 304 -132 l 304 494 q 266 386 290 446 q 216 278 241 326 q 127 172 159 172 q 88 187 100 172 q 76 233 76 202 q 98 283 76 254 q 298 722 240 477 l 148 722 q 84 774 84 722 q 148 827 84 827 l 304 827 l 304 1046 q 357 1104 304 1104 q 411 1046 411 1104 l 411 827 l 525 827 q 589 774 589 827 q 525 722 589 722 l 411 722 l 411 544 q 427 559 416 553 q 444 564 437 564 m 1256 823 q 1309 770 1309 823 q 1256 718 1309 718 l 1153 718 l 1153 41 q 1115 -83 1153 -37 q 991 -122 1067 -123 l 876 -122 q 808 -60 808 -122 q 876 0 808 0 l 974 0 q 1039 64 1036 0 l 1039 718 l 678 718 q 627 770 627 718 q 678 823 627 823 l 1039 823 l 1039 1029 q 1096 1101 1039 1101 q 1153 1029 1153 1101 l 1153 823 l 1256 823 m 902 315 q 844 260 902 260 q 803 273 822 260 q 774 316 795 278 l 754 353 l 696 446 q 675 481 684 465 q 667 505 667 496 q 724 557 667 557 q 830 450 757 557 q 902 315 902 343 z "},"東":{"ha":1389,"x_min":77,"x_max":1316,"o":"m 1248 47 q 1316 -20 1316 28 q 1259 -83 1316 -83 q 1092 -24 1218 -83 q 886 96 977 28 q 741 236 796 163 l 741 -68 q 686 -133 741 -133 q 632 -68 632 -133 l 632 232 q 412 49 533 127 q 237 -52 309 -18 q 130 -85 164 -85 q 77 -31 77 -85 q 84 -3 77 -16 q 103 18 91 11 l 197 58 q 575 301 403 140 l 308 301 q 210 332 240 301 q 183 427 179 362 l 183 667 q 212 766 183 735 q 308 795 241 798 l 632 795 l 632 887 l 155 887 q 108 901 125 887 q 91 939 91 914 q 155 990 91 990 l 632 990 l 632 1057 q 646 1093 632 1081 q 686 1105 661 1105 q 726 1093 712 1105 q 741 1057 741 1081 l 741 990 l 1232 990 q 1297 939 1297 990 q 1232 887 1297 887 l 741 887 l 741 795 l 1078 795 q 1177 764 1146 795 q 1203 667 1207 732 l 1203 427 q 1174 327 1203 358 q 1078 301 1145 296 l 791 301 q 981 155 864 220 q 1248 47 1097 91 m 632 696 l 347 696 q 304 685 315 696 q 293 642 293 674 l 293 600 l 632 600 l 632 696 m 741 600 l 1093 600 l 1093 642 q 1083 685 1093 674 q 1040 696 1073 696 l 741 696 l 741 600 m 632 502 l 293 502 l 293 452 q 304 411 293 422 q 347 400 315 400 l 632 400 l 632 502 m 741 400 l 1040 400 q 1083 411 1073 400 q 1093 452 1093 422 l 1093 502 l 741 502 l 741 400 z "},"松":{"ha":1389,"x_min":75,"x_max":1310,"o":"m 339 -133 q 286 -77 286 -133 l 286 500 q 130 190 194 190 q 75 247 75 190 q 95 297 75 267 q 274 723 235 514 l 145 723 q 81 774 81 723 q 145 827 81 827 l 286 827 l 286 1048 q 339 1105 286 1105 q 392 1048 392 1105 l 392 827 l 492 827 q 557 774 557 827 q 492 723 557 723 l 392 723 l 392 529 q 423 544 404 544 q 507 450 449 544 q 566 336 566 358 q 517 292 566 292 q 469 335 488 292 l 393 475 l 392 479 l 392 -77 q 339 -133 392 -133 m 1255 412 q 1118 570 1203 412 q 1023 895 1034 724 q 972 954 1019 952 l 902 954 q 842 1006 842 954 q 902 1058 842 1058 l 1012 1058 q 1094 1026 1067 1058 q 1126 925 1120 994 q 1280 536 1142 686 q 1310 476 1310 502 q 1255 412 1310 412 m 586 437 q 533 494 533 437 q 555 547 533 507 q 675 884 624 667 q 734 937 688 937 q 773 926 761 937 q 785 888 785 914 q 743 726 785 867 q 658 510 701 585 q 619 454 636 472 q 586 437 602 437 m 1225 -90 q 1160 -22 1192 -90 l 1149 1 q 571 -72 930 -38 q 509 -12 509 -77 q 604 42 509 41 l 658 45 q 799 500 760 317 q 856 552 811 552 q 914 505 914 552 q 909 471 914 492 q 897 427 903 450 q 758 52 837 228 q 1108 84 994 66 q 1020 229 1066 164 q 1001 275 1001 256 q 1013 311 1001 300 q 1051 323 1025 323 q 1146 224 1082 323 q 1248 54 1215 115 q 1286 -34 1286 -18 q 1271 -76 1286 -62 q 1225 -90 1256 -90 z "},"板":{"ha":1389,"x_min":75,"x_max":1310,"o":"m 434 374 q 374 486 418 407 l 370 492 l 370 -77 q 317 -134 370 -134 q 264 -77 264 -134 l 264 468 q 184 266 220 335 q 121 197 149 197 q 85 210 96 197 q 75 251 75 222 q 94 301 75 274 q 256 724 203 450 l 141 724 q 81 776 81 724 q 141 826 81 826 l 264 826 l 264 1048 q 317 1105 264 1105 q 370 1048 370 1105 l 370 826 l 475 826 q 536 776 536 826 q 475 724 536 724 l 370 724 l 370 553 q 400 567 382 567 q 437 543 416 567 q 488 465 458 518 l 505 439 q 532 365 532 396 q 483 319 532 319 q 460 332 472 319 q 434 374 449 346 m 1255 11 q 1310 -52 1310 -7 q 1256 -114 1310 -114 q 1088 -38 1211 -114 q 959 64 1034 -4 l 956 64 q 783 -64 888 1 q 703 -106 736 -92 q 652 -119 669 -119 q 612 -107 625 -119 q 600 -65 600 -95 q 678 4 600 -30 q 892 138 817 64 l 892 141 q 760 460 793 277 l 754 511 q 765 545 753 533 q 802 557 777 557 q 849 519 840 557 l 861 464 q 968 227 892 320 q 1026 324 1001 273 q 1076 442 1051 376 q 1118 582 1118 556 q 1107 606 1118 598 q 1080 614 1097 614 l 689 614 q 678 401 685 484 q 661 258 671 317 q 571 20 635 125 q 461 -83 507 -83 q 407 -33 407 -83 q 434 19 407 -15 q 572 355 548 160 q 586 803 586 469 l 586 905 q 705 1038 586 1038 l 1237 1038 q 1286 1025 1271 1038 q 1302 985 1302 1012 q 1237 933 1302 933 l 758 933 q 701 906 715 933 q 696 821 696 891 q 693 716 696 800 l 1119 716 q 1238 631 1238 716 q 1175 404 1238 555 q 1032 148 1107 245 l 1032 145 q 1255 11 1127 54 z "},"枋":{"ha":1389,"x_min":75,"x_max":1312,"o":"m 340 -133 q 288 -71 288 -133 l 288 494 q 208 289 259 395 q 125 189 159 189 q 75 247 75 189 q 94 294 75 264 q 278 722 233 502 l 146 722 q 83 774 83 722 q 146 827 83 827 l 288 827 l 288 1043 q 340 1105 288 1105 q 393 1043 393 1105 l 393 827 l 472 827 q 536 774 536 827 q 472 722 536 722 l 393 722 l 393 556 q 426 574 406 574 q 477 537 449 574 l 525 477 q 595 363 595 391 q 547 317 595 317 q 505 349 525 317 l 393 515 l 393 -71 q 340 -133 393 -133 m 928 -118 q 856 -57 856 -118 q 949 4 856 4 l 985 4 q 1093 111 1080 4 q 1118 429 1118 301 q 1062 483 1118 483 l 845 483 q 784 187 826 296 q 648 -19 736 65 q 510 -106 557 -106 q 449 -46 449 -106 q 510 22 449 -22 q 699 269 642 113 q 737 469 726 342 q 749 785 749 597 l 609 785 q 543 838 543 785 q 609 891 543 891 l 827 891 l 827 1034 q 883 1104 827 1104 q 940 1034 940 1104 l 940 891 l 1245 891 q 1312 838 1312 891 q 1245 785 1312 785 l 859 785 l 853 595 l 853 589 l 1101 589 q 1229 476 1229 589 q 1199 91 1229 296 q 1130 -73 1181 -28 q 928 -118 1077 -118 z "},"林":{"ha":1389,"x_min":72,"x_max":1318,"o":"m 363 -133 q 308 -73 308 -133 l 308 507 q 220 289 271 382 q 126 183 165 190 l 115 182 q 83 195 95 182 q 72 229 72 208 q 95 288 72 256 q 288 723 228 463 l 156 723 q 90 776 90 723 q 106 816 90 802 q 156 830 123 830 l 308 830 l 308 1044 q 363 1104 308 1104 q 419 1044 419 1104 l 419 830 l 532 830 q 581 816 564 830 q 598 776 598 802 q 532 723 598 723 l 419 723 l 419 553 q 452 570 435 570 q 547 481 472 570 q 602 410 586 435 q 617 362 617 385 q 604 331 617 343 q 572 319 591 319 q 545 329 559 319 q 521 355 532 339 q 420 503 484 416 l 419 502 l 419 -73 q 363 -133 419 -133 m 939 -127 q 883 -68 883 -127 l 883 524 l 882 524 q 810 352 849 434 q 734 214 772 270 q 654 111 686 144 q 601 79 623 79 q 545 134 545 79 q 574 184 545 153 q 754 445 671 285 q 861 724 836 604 l 697 724 q 631 776 631 724 q 697 829 631 829 l 883 829 l 883 1043 q 937 1104 883 1104 q 993 1043 993 1104 l 993 829 l 1230 829 q 1294 776 1294 829 q 1230 724 1294 724 l 1010 724 q 1122 444 1058 566 q 1280 222 1185 321 q 1310 187 1301 202 q 1318 151 1318 172 q 1301 109 1318 125 q 1257 98 1283 94 q 1130 236 1210 104 q 1056 375 1092 297 q 994 528 1020 453 l 993 528 l 993 -68 q 939 -127 993 -127 z "},"柳":{"ha":1389,"x_min":75,"x_max":1265,"o":"m 297 -133 q 261 -120 273 -133 q 250 -80 250 -107 l 250 494 q 115 184 172 184 q 75 245 75 184 q 96 311 75 273 q 239 727 194 481 l 141 727 q 80 777 80 727 q 141 827 80 827 l 250 827 l 250 1054 q 297 1105 250 1105 q 345 1054 345 1105 l 345 827 l 408 827 q 469 777 469 827 q 408 727 469 727 l 345 727 l 345 553 q 373 570 355 570 q 437 491 391 570 q 468 431 457 456 q 479 396 479 406 q 437 358 479 358 q 397 404 415 358 q 345 518 388 429 l 345 -80 q 297 -133 345 -133 m 498 -118 q 439 -58 439 -118 q 479 -7 439 -27 q 681 172 629 77 q 708 245 694 197 q 450 137 494 137 q 401 190 401 137 q 435 241 401 227 q 475 255 448 247 l 502 264 l 502 875 q 526 958 502 926 q 604 1004 551 990 q 727 1051 644 1013 q 818 1086 806 1086 q 869 1031 869 1086 q 677 921 869 981 q 601 860 598 898 l 601 302 l 628 313 q 724 353 670 330 q 736 716 736 469 l 735 764 q 734 810 734 779 q 784 871 734 871 q 833 811 833 871 l 831 617 q 798 227 831 380 q 659 -16 768 88 q 498 -118 553 -118 m 962 -136 q 910 -80 910 -136 l 910 929 q 1015 1035 910 1035 l 1157 1035 q 1265 926 1265 1035 l 1265 133 q 1236 38 1265 68 q 1139 9 1206 8 l 1089 9 q 1039 65 1039 9 q 1089 121 1039 121 l 1127 121 q 1160 160 1157 121 l 1160 894 q 1131 924 1160 921 l 1042 924 q 1012 894 1015 924 l 1012 -80 q 962 -136 1012 -136 z "},"栗":{"ha":1389,"x_min":75,"x_max":1314,"o":"m 278 494 q 178 524 209 494 q 152 621 146 555 l 152 728 q 278 854 142 865 l 484 854 l 484 956 l 145 956 q 83 1009 83 956 q 145 1061 83 1061 l 1242 1061 q 1306 1008 1306 1061 q 1242 956 1306 956 l 894 956 l 894 854 l 1109 854 q 1236 728 1245 865 l 1236 621 q 1109 494 1245 486 l 278 494 m 795 854 l 795 956 l 583 956 l 583 854 l 795 854 m 1078 589 q 1131 642 1134 589 l 1131 708 q 1078 760 1131 762 l 894 760 l 894 589 l 1078 589 m 484 760 l 309 760 q 258 708 256 760 l 258 642 q 309 589 258 587 l 484 589 l 484 760 m 795 589 l 795 760 l 583 760 l 583 589 l 795 589 m 686 -133 q 631 -65 631 -133 l 631 180 q 345 -5 515 75 q 127 -84 179 -84 q 75 -27 75 -84 q 90 12 75 0 q 180 49 104 24 q 594 258 415 119 l 149 258 q 87 309 87 258 q 149 361 87 361 l 631 361 l 631 423 q 686 473 631 473 q 742 423 742 473 l 742 361 l 1238 361 q 1303 309 1303 361 q 1238 258 1303 258 l 781 258 q 1252 43 937 111 q 1314 -15 1314 28 q 1257 -80 1314 -80 q 1013 4 1195 -80 q 742 186 830 88 l 742 -65 q 686 -133 742 -133 z "},"桃":{"ha":1389,"x_min":75,"x_max":1314,"o":"m 326 -133 q 275 -77 275 -133 l 275 491 q 201 293 250 396 q 121 194 153 194 q 75 251 75 194 q 94 300 75 270 q 264 723 229 514 l 145 723 q 81 776 81 723 q 145 827 81 827 l 275 827 l 275 1050 q 326 1105 275 1105 q 377 1050 377 1105 l 377 827 l 457 827 q 521 776 521 827 q 457 723 521 723 l 377 723 l 377 567 q 411 583 392 583 q 486 503 435 583 q 536 401 536 423 q 486 357 536 357 q 439 403 457 357 q 385 514 425 442 l 377 529 l 377 -77 q 326 -133 377 -133 m 500 -121 q 448 -65 448 -121 q 494 -8 448 -34 q 642 136 589 46 q 705 347 696 225 q 533 224 568 224 q 483 278 483 224 q 528 345 483 320 q 712 456 632 403 q 715 1025 715 825 q 768 1099 715 1099 q 821 1028 821 1099 l 821 807 q 792 229 821 396 q 639 -45 764 64 q 500 -121 551 -121 m 1073 -95 q 945 -73 971 -95 q 917 8 917 -50 l 917 1035 q 967 1099 917 1099 q 1017 1035 1017 1099 l 1017 61 q 1038 20 1017 31 q 1111 11 1057 11 q 1194 27 1180 11 q 1207 94 1207 42 q 1261 156 1207 156 q 1314 107 1314 156 q 1272 -61 1314 -20 q 1073 -95 1238 -95 m 1101 629 q 1050 682 1050 629 q 1084 741 1050 705 q 1154 831 1118 777 q 1219 886 1192 886 q 1272 836 1272 886 q 1203 719 1272 808 q 1101 629 1134 629 m 639 598 q 586 680 610 598 l 538 802 q 530 831 530 821 q 581 869 530 869 q 612 846 595 869 q 651 773 629 823 q 680 696 670 728 q 690 648 690 663 q 639 598 690 598 m 1233 233 q 1141 316 1208 233 l 1073 396 q 1047 446 1047 429 q 1096 492 1047 492 q 1206 403 1120 492 q 1290 288 1290 317 q 1233 233 1290 233 z "},"桐":{"ha":1389,"x_min":73,"x_max":1272,"o":"m 385 564 q 458 475 410 564 q 507 361 507 385 q 464 320 507 320 q 381 450 434 320 l 355 503 l 355 -80 q 305 -134 355 -134 q 255 -80 255 -134 l 255 475 q 115 193 183 193 q 73 251 73 193 q 91 300 73 271 q 244 724 202 484 l 142 724 q 80 777 80 724 q 142 829 80 829 l 255 829 l 255 1053 q 305 1107 255 1107 q 355 1053 355 1107 l 355 829 l 433 829 q 496 777 496 829 q 433 724 496 724 l 355 724 l 355 551 q 385 564 369 564 m 1145 1047 q 1242 1017 1211 1047 q 1268 925 1272 987 l 1268 12 q 1234 -96 1268 -61 q 1127 -126 1200 -130 l 1039 -126 q 981 -69 981 -126 q 1039 -11 981 -11 l 1101 -11 q 1157 45 1154 -11 l 1157 891 q 1109 940 1157 937 l 675 940 q 628 891 631 940 l 628 -73 q 575 -130 628 -130 q 524 -73 524 -130 l 524 925 q 646 1047 513 1055 l 1145 1047 m 723 711 q 666 762 666 711 q 723 815 666 815 l 1061 815 q 1115 764 1115 815 q 1101 724 1115 738 q 1062 711 1088 711 l 723 711 m 1070 232 q 1046 140 1076 170 q 952 115 1016 110 l 833 115 q 739 140 769 110 q 715 232 709 170 l 715 472 q 740 566 709 536 q 833 590 770 595 l 952 590 q 1046 565 1016 595 q 1070 472 1076 534 l 1070 232 m 936 214 q 975 254 977 214 l 975 450 q 966 481 975 472 q 936 491 956 491 l 848 491 q 808 450 807 491 l 808 254 q 848 214 808 213 l 936 214 z "},"梅":{"ha":1389,"x_min":75,"x_max":1314,"o":"m 1256 145 q 1308 98 1308 145 q 1256 52 1308 52 l 1196 52 q 1142 -99 1185 -68 q 968 -133 1093 -133 q 910 -77 910 -133 q 986 -26 910 -26 q 1074 -4 1055 -26 q 1093 52 1090 12 l 669 52 q 581 75 610 52 q 553 144 552 98 l 560 205 l 576 369 l 541 369 q 507 378 521 369 l 510 369 q 498 340 511 350 q 464 330 486 330 q 415 396 444 330 l 366 505 l 366 -72 q 315 -133 366 -133 q 262 -72 262 -133 l 262 502 q 122 190 178 190 q 75 247 75 190 q 92 296 75 269 q 251 734 202 467 l 142 734 q 81 787 81 734 q 142 838 81 838 l 262 838 l 262 1043 q 315 1105 262 1105 q 366 1043 366 1105 l 366 838 l 433 838 q 486 787 486 838 q 433 734 486 734 l 366 734 l 366 547 q 388 557 376 557 q 418 540 403 557 q 456 479 434 522 q 488 419 467 457 q 504 451 490 438 q 541 464 518 464 l 585 464 l 595 600 q 610 701 601 663 q 635 754 618 738 q 720 776 659 779 l 1104 776 q 1194 750 1164 776 q 1223 673 1225 724 l 1217 464 l 1261 464 q 1314 416 1314 464 q 1261 369 1314 369 l 1213 369 l 1203 145 l 1256 145 m 525 667 q 476 720 476 667 q 506 779 476 738 q 624 1031 571 864 q 686 1105 648 1105 q 745 1057 745 1105 q 723 983 745 1035 l 1255 983 q 1312 930 1312 983 q 1255 880 1312 880 l 678 880 q 591 720 628 772 q 525 667 553 667 m 1123 636 q 1076 681 1126 681 l 738 681 q 694 618 699 681 l 684 464 l 1115 464 l 1123 636 m 935 612 q 1004 536 1004 562 q 963 496 1004 496 q 913 528 948 496 q 845 579 891 547 q 814 629 814 601 q 822 652 814 644 q 845 661 830 661 q 935 612 868 661 m 1111 369 l 678 369 l 658 178 q 667 153 656 161 q 697 145 677 145 l 1100 145 l 1111 369 m 845 259 q 818 286 826 275 q 810 307 810 296 q 819 330 810 321 q 845 339 829 339 q 935 290 865 339 q 1005 216 1005 240 q 963 175 1005 175 q 913 205 947 175 q 872 237 913 205 l 845 259 z "},"梓":{"ha":1389,"x_min":75,"x_max":1313,"o":"m 328 -133 q 275 -77 275 -133 l 275 495 q 123 198 190 198 q 75 254 75 198 q 95 305 75 273 q 264 723 220 495 l 145 723 q 81 776 81 723 q 145 827 81 827 l 275 827 l 275 1048 q 328 1105 275 1105 q 381 1048 381 1105 l 381 827 l 468 827 q 532 776 532 827 q 468 723 532 723 l 381 723 l 381 544 q 418 563 396 563 q 441 549 429 563 q 475 506 454 536 q 547 368 547 400 q 500 323 547 323 q 431 406 477 323 q 408 446 415 433 l 381 500 l 381 -77 q 328 -133 381 -133 m 909 -130 q 853 -71 853 -130 l 853 174 l 617 174 q 556 227 556 174 q 617 277 556 277 l 853 277 l 853 463 l 578 463 q 515 514 515 463 q 578 567 515 567 l 701 567 l 656 823 l 589 823 q 536 875 536 823 q 589 926 536 926 l 850 926 l 850 1035 q 909 1104 850 1104 q 964 1035 964 1104 l 964 926 l 1225 926 q 1276 875 1276 926 q 1225 823 1276 823 l 1157 823 q 1096 567 1131 690 l 1249 567 q 1313 514 1313 567 q 1249 463 1313 463 l 963 463 l 963 277 l 1204 277 q 1270 225 1270 277 q 1254 186 1270 198 q 1204 174 1238 174 l 963 174 l 963 -71 q 909 -130 963 -130 m 1004 604 q 1051 823 1038 750 l 757 823 l 803 567 l 996 567 l 1004 604 z "}}}
